%TF.GenerationSoftware,KiCad,Pcbnew,9.0.3*%
%TF.CreationDate,2026-05-17T22:53:08+02:00*%
%TF.ProjectId,palemka,70616c65-6d6b-4612-9e6b-696361645f70,rev?*%
%TF.SameCoordinates,Original*%
%TF.FileFunction,Legend,Top*%
%TF.FilePolarity,Positive*%
%FSLAX46Y46*%
G04 Gerber Fmt 4.6, Leading zero omitted, Abs format (unit mm)*
G04 Created by KiCad (PCBNEW 9.0.3) date 2026-05-17 22:53:08*
%MOMM*%
%LPD*%
G01*
G04 APERTURE LIST*
%ADD10C,0.150000*%
%ADD11C,0.120000*%
%ADD12C,0.000000*%
G04 APERTURE END LIST*
D10*
X136213095Y-147549819D02*
X136213095Y-148359342D01*
X136213095Y-148359342D02*
X136260714Y-148454580D01*
X136260714Y-148454580D02*
X136308333Y-148502200D01*
X136308333Y-148502200D02*
X136403571Y-148549819D01*
X136403571Y-148549819D02*
X136594047Y-148549819D01*
X136594047Y-148549819D02*
X136689285Y-148502200D01*
X136689285Y-148502200D02*
X136736904Y-148454580D01*
X136736904Y-148454580D02*
X136784523Y-148359342D01*
X136784523Y-148359342D02*
X136784523Y-147549819D01*
X137784523Y-148549819D02*
X137213095Y-148549819D01*
X137498809Y-148549819D02*
X137498809Y-147549819D01*
X137498809Y-147549819D02*
X137403571Y-147692676D01*
X137403571Y-147692676D02*
X137308333Y-147787914D01*
X137308333Y-147787914D02*
X137213095Y-147835533D01*
D11*
%TO.C,D3*%
X115360713Y-87603068D02*
X113338388Y-85580743D01*
X113338388Y-85580743D02*
X111980743Y-86938388D01*
X111980743Y-86938388D02*
X114003068Y-88960713D01*
%TO.C,D13*%
X133160000Y-78210000D02*
X133160000Y-75350000D01*
X131240000Y-78210000D02*
X133160000Y-78210000D01*
X131240000Y-75350000D02*
X131240000Y-78210000D01*
%TO.C,D4*%
X134698716Y-117098960D02*
X132924867Y-116364207D01*
X133604241Y-119741256D02*
X134698716Y-117098960D01*
X132924867Y-116364207D02*
X131830393Y-119006504D01*
D12*
%TO.C,G\u002A\u002A\u002A*%
G36*
X132440664Y-73829902D02*
G01*
X133507183Y-74415947D01*
X134099425Y-74885507D01*
X135104929Y-75975858D01*
X135652223Y-77052117D01*
X135718408Y-78062177D01*
X135631176Y-78371010D01*
X135524343Y-78769171D01*
X135507600Y-79260922D01*
X135592768Y-79959479D01*
X135791667Y-80978058D01*
X136003316Y-81935122D01*
X136134644Y-82515037D01*
X137299053Y-81999963D01*
X138380394Y-81646967D01*
X139140204Y-81708574D01*
X139608652Y-82204009D01*
X139815905Y-83152494D01*
X139832407Y-83614249D01*
X139643222Y-84915738D01*
X139127742Y-86180604D01*
X138376817Y-87226039D01*
X137799278Y-87705207D01*
X137242738Y-88169382D01*
X137054382Y-88589973D01*
X137061792Y-88631249D01*
X137144742Y-89115477D01*
X137257712Y-90031044D01*
X137391804Y-91281554D01*
X137538119Y-92770611D01*
X137687759Y-94401820D01*
X137831825Y-96078787D01*
X137961420Y-97705115D01*
X138067644Y-99184410D01*
X138130341Y-100206770D01*
X138204822Y-101445497D01*
X138279112Y-102465741D01*
X138344914Y-103166473D01*
X138393933Y-103446662D01*
X138396487Y-103447916D01*
X138659520Y-103334296D01*
X139241729Y-103041927D01*
X139752375Y-102774334D01*
X140997036Y-102273225D01*
X141984604Y-102203582D01*
X142680428Y-102543930D01*
X143049857Y-103272792D01*
X143058241Y-104368693D01*
X142982798Y-104776519D01*
X142494172Y-106160888D01*
X141747496Y-107267963D01*
X140818116Y-108029812D01*
X139781380Y-108378505D01*
X139030306Y-108339984D01*
X138248958Y-108168371D01*
X138248958Y-110835227D01*
X138272056Y-111973864D01*
X138334779Y-112862546D01*
X138427268Y-113395885D01*
X138498418Y-113502083D01*
X138869219Y-113377410D01*
X139479427Y-113067782D01*
X139656319Y-112966089D01*
X140516794Y-112600093D01*
X141451015Y-112413942D01*
X142274090Y-112426674D01*
X142788043Y-112643667D01*
X143006195Y-113174040D01*
X143044598Y-114031834D01*
X142912203Y-115050092D01*
X142617962Y-116061856D01*
X142602714Y-116100427D01*
X141894507Y-117332269D01*
X140947785Y-118153766D01*
X139824040Y-118515969D01*
X139551575Y-118529166D01*
X138513541Y-118529166D01*
X138513541Y-125196666D01*
X138521641Y-126995583D01*
X138544440Y-128591048D01*
X138579687Y-129916005D01*
X138625131Y-130903397D01*
X138678522Y-131486168D01*
X138728904Y-131612812D01*
X138870387Y-131263179D01*
X139084695Y-130514129D01*
X139339802Y-129484920D01*
X139542427Y-128583332D01*
X140437383Y-124817823D01*
X141483291Y-121188318D01*
X142070326Y-119471837D01*
X142607915Y-119471837D01*
X142668898Y-120155585D01*
X142795793Y-120549195D01*
X143059984Y-121153115D01*
X143375090Y-121370674D01*
X143934215Y-121325214D01*
X143993538Y-121314235D01*
X144981837Y-121303940D01*
X145651798Y-121713752D01*
X146021705Y-122555482D01*
X146037571Y-122634796D01*
X146172648Y-123210793D01*
X146399641Y-123475061D01*
X146882341Y-123530221D01*
X147421476Y-123501862D01*
X148262374Y-123507321D01*
X148756955Y-123737476D01*
X149076192Y-124305541D01*
X149201773Y-124680728D01*
X149555184Y-125036464D01*
X150205889Y-125161121D01*
X150978708Y-125061923D01*
X151698462Y-124746096D01*
X151924093Y-124568462D01*
X152425049Y-123970126D01*
X152441125Y-123526766D01*
X151955435Y-123186560D01*
X151416410Y-123010464D01*
X149576654Y-122343625D01*
X147762411Y-121379050D01*
X146129108Y-120216016D01*
X144832174Y-118953797D01*
X144591054Y-118650908D01*
X144072106Y-118039145D01*
X143649726Y-117683816D01*
X143472022Y-117645523D01*
X143212386Y-117974511D01*
X142895828Y-118584947D01*
X142841342Y-118711174D01*
X142607915Y-119471837D01*
X142070326Y-119471837D01*
X142731626Y-117538204D01*
X142958973Y-116958981D01*
X144069792Y-116958981D01*
X144238078Y-117241907D01*
X144685059Y-117800725D01*
X145323921Y-118528680D01*
X145521410Y-118744008D01*
X146842151Y-119948757D01*
X148418694Y-121043085D01*
X150070218Y-121917033D01*
X151615903Y-122460641D01*
X151644167Y-122467312D01*
X152507507Y-122632044D01*
X152990819Y-122596574D01*
X153214672Y-122332216D01*
X153270673Y-122080317D01*
X153214911Y-121764379D01*
X152878602Y-121496065D01*
X152163306Y-121210808D01*
X151735181Y-121073203D01*
X149727169Y-120236662D01*
X147822727Y-119045559D01*
X146179567Y-117610531D01*
X145294055Y-116554778D01*
X144954558Y-116206879D01*
X144621445Y-116290846D01*
X144495298Y-116388737D01*
X144147613Y-116769617D01*
X144069792Y-116958981D01*
X142958973Y-116958981D01*
X143468611Y-115660548D01*
X144069792Y-115660548D01*
X144245737Y-115686333D01*
X144483903Y-115543912D01*
X145708221Y-115543912D01*
X145768492Y-116069367D01*
X146234201Y-116777311D01*
X146462594Y-117046692D01*
X147507847Y-118026890D01*
X148868593Y-119009155D01*
X150347772Y-119863993D01*
X151562160Y-120397721D01*
X152635561Y-120749477D01*
X153325184Y-120871021D01*
X153724029Y-120761706D01*
X153925094Y-120420888D01*
X153936038Y-120381249D01*
X153915936Y-119939761D01*
X153711622Y-119852083D01*
X153313334Y-119642448D01*
X153058820Y-119310201D01*
X152645326Y-118911440D01*
X152266925Y-118927612D01*
X151722092Y-118866553D01*
X151425644Y-118543452D01*
X150923413Y-118114842D01*
X150480135Y-117999999D01*
X149942521Y-117846004D01*
X149721722Y-117603124D01*
X149384699Y-117251420D01*
X149193896Y-117206249D01*
X148822572Y-117029899D01*
X148227056Y-116570146D01*
X147613195Y-116001078D01*
X146917073Y-115345969D01*
X146461561Y-115041924D01*
X146148538Y-115033467D01*
X146032658Y-115107433D01*
X145708221Y-115543912D01*
X144483903Y-115543912D01*
X144683305Y-115424671D01*
X144834575Y-115308144D01*
X145270166Y-114833852D01*
X145620312Y-114239305D01*
X147391506Y-114239305D01*
X147497692Y-114697655D01*
X147657277Y-115041380D01*
X148026613Y-115602504D01*
X148383163Y-115877663D01*
X148426488Y-115883333D01*
X148813921Y-116097070D01*
X148934407Y-116296977D01*
X149205990Y-116564194D01*
X149380734Y-116532878D01*
X149723538Y-116589127D01*
X150071513Y-116930756D01*
X150494274Y-117310791D01*
X150846493Y-117363707D01*
X151257159Y-117447407D01*
X151544144Y-117742808D01*
X152079958Y-118166218D01*
X152571795Y-118264583D01*
X153164119Y-118409483D01*
X153434332Y-118683460D01*
X153740296Y-118980024D01*
X154116654Y-118884631D01*
X154325973Y-118507241D01*
X154158612Y-118132321D01*
X153648206Y-117704856D01*
X152957792Y-117326886D01*
X152250408Y-117100455D01*
X152039723Y-117076321D01*
X151380759Y-116856389D01*
X150981389Y-116532024D01*
X150413520Y-116067519D01*
X150116278Y-115920948D01*
X151213542Y-115920948D01*
X151429642Y-116237166D01*
X151929028Y-116356368D01*
X152488332Y-116234234D01*
X152567916Y-116189673D01*
X153077830Y-115921100D01*
X153291206Y-116010354D01*
X153330208Y-116399352D01*
X153513112Y-116884750D01*
X153926648Y-117251669D01*
X154368055Y-117336679D01*
X154449037Y-117301153D01*
X154586591Y-116976800D01*
X154652210Y-116351384D01*
X154653125Y-116264593D01*
X154568749Y-115594611D01*
X154293814Y-115357071D01*
X154243111Y-115354166D01*
X153738145Y-115237771D01*
X153061308Y-114954540D01*
X153002133Y-114924458D01*
X152426212Y-114661184D01*
X152082746Y-114685025D01*
X151742661Y-115024247D01*
X151692356Y-115086061D01*
X151342993Y-115594947D01*
X151213542Y-115920948D01*
X150116278Y-115920948D01*
X149759925Y-115745229D01*
X149110798Y-115354720D01*
X148831844Y-114690127D01*
X148548355Y-114031853D01*
X148053414Y-113814266D01*
X147571753Y-113983378D01*
X147391506Y-114239305D01*
X145620312Y-114239305D01*
X145720364Y-114069416D01*
X146226168Y-112935553D01*
X146705241Y-111690630D01*
X147124243Y-110526530D01*
X147454650Y-109556942D01*
X147664010Y-108880956D01*
X147719867Y-108597660D01*
X147718732Y-108596162D01*
X147490013Y-108579257D01*
X147162838Y-108925438D01*
X146715516Y-109669877D01*
X146126355Y-110847752D01*
X145528188Y-112148340D01*
X144990608Y-113364640D01*
X144542353Y-114414317D01*
X144223860Y-115199979D01*
X144075571Y-115624239D01*
X144069792Y-115660548D01*
X143468611Y-115660548D01*
X144233867Y-113710867D01*
X145101986Y-111668685D01*
X145554357Y-110611116D01*
X145914229Y-109737671D01*
X146136640Y-109159422D01*
X146186458Y-108989779D01*
X145958279Y-108815313D01*
X145407886Y-108650047D01*
X145392860Y-108647009D01*
X144518143Y-108221566D01*
X144341258Y-107977227D01*
X145392708Y-107977227D01*
X145624735Y-108133841D01*
X146192382Y-108209216D01*
X146282670Y-108210416D01*
X147257184Y-107977082D01*
X147870170Y-107512878D01*
X148423490Y-106702489D01*
X148567708Y-106050875D01*
X148537850Y-105535683D01*
X148347235Y-105433733D01*
X147844299Y-105665131D01*
X147840104Y-105667328D01*
X147234933Y-106064705D01*
X146555320Y-106624750D01*
X145934801Y-107221431D01*
X145506911Y-107728713D01*
X145392708Y-107977227D01*
X144341258Y-107977227D01*
X143915237Y-107388746D01*
X143619291Y-106214467D01*
X143613940Y-105775753D01*
X144113725Y-105775753D01*
X144227566Y-106647781D01*
X144313641Y-106848757D01*
X144573849Y-107282419D01*
X144696535Y-107416666D01*
X144916849Y-107252570D01*
X145405518Y-106827898D01*
X145894636Y-106383479D01*
X146666890Y-105741103D01*
X147427621Y-105219526D01*
X147797497Y-105025666D01*
X148244902Y-104787604D01*
X148401518Y-104528551D01*
X149096875Y-104528551D01*
X149159893Y-104768180D01*
X149359815Y-104596309D01*
X149712943Y-103988113D01*
X150235578Y-102918766D01*
X150431905Y-102495530D01*
X150942097Y-101382157D01*
X151259863Y-100663335D01*
X151413644Y-100252746D01*
X151431884Y-100064073D01*
X151343024Y-100010998D01*
X151251469Y-100008332D01*
X151063976Y-100230460D01*
X150733015Y-100810085D01*
X150320618Y-101617069D01*
X149888816Y-102521273D01*
X149499640Y-103392561D01*
X149215121Y-104100795D01*
X149097289Y-104515835D01*
X149096875Y-104528551D01*
X148401518Y-104528551D01*
X148433997Y-104474828D01*
X148367549Y-103971844D01*
X148048326Y-103163162D01*
X147852448Y-102732481D01*
X147324961Y-101840851D01*
X146756523Y-101425497D01*
X146108344Y-101426301D01*
X145526577Y-101814367D01*
X144988531Y-102587465D01*
X144541907Y-103601475D01*
X144234405Y-104712278D01*
X144113725Y-105775753D01*
X143613940Y-105775753D01*
X143608138Y-105299999D01*
X143827811Y-104000976D01*
X144270647Y-102750801D01*
X144866575Y-101694012D01*
X145545526Y-100975148D01*
X145770630Y-100839238D01*
X146351979Y-100626771D01*
X146811720Y-100731469D01*
X147193606Y-100988583D01*
X147801912Y-101600895D01*
X148287722Y-102334482D01*
X148594739Y-102890677D01*
X148812620Y-103168407D01*
X148832292Y-103175417D01*
X148993029Y-102948140D01*
X149334147Y-102312901D01*
X149820577Y-101345056D01*
X150417253Y-100119966D01*
X151080185Y-98731677D01*
X151739700Y-98731677D01*
X151821271Y-99387610D01*
X152150352Y-100128787D01*
X152427686Y-100517199D01*
X153071028Y-101107090D01*
X153787473Y-101321539D01*
X154046589Y-101331249D01*
X154980514Y-101331249D01*
X154224449Y-100339062D01*
X153506538Y-99479422D01*
X152823550Y-98803739D01*
X152268814Y-98394255D01*
X151942740Y-98328436D01*
X151739700Y-98731677D01*
X151080185Y-98731677D01*
X151089109Y-98712989D01*
X151663363Y-97492235D01*
X152616950Y-97492235D01*
X152627451Y-97729360D01*
X152994563Y-98083240D01*
X153239971Y-98281673D01*
X153895641Y-98924024D01*
X154572924Y-99762581D01*
X154812391Y-100114982D01*
X155266266Y-100754113D01*
X155690303Y-101064806D01*
X156206395Y-101052699D01*
X156936439Y-100723433D01*
X157732778Y-100250083D01*
X158334350Y-99793327D01*
X158711631Y-99351933D01*
X158735393Y-99300389D01*
X158705586Y-98730298D01*
X158256097Y-98173385D01*
X157495787Y-97668522D01*
X156533517Y-97254582D01*
X155478148Y-96970435D01*
X154438541Y-96854956D01*
X153523555Y-96947015D01*
X152917757Y-97223017D01*
X152616950Y-97492235D01*
X151663363Y-97492235D01*
X151801076Y-97199483D01*
X152153636Y-96439956D01*
X152801042Y-96439956D01*
X153003659Y-96566477D01*
X153050241Y-96568749D01*
X153281105Y-96354631D01*
X153703892Y-95777468D01*
X154250420Y-94935043D01*
X154649099Y-94275622D01*
X155372426Y-92958927D01*
X155760248Y-92031278D01*
X155817264Y-91476406D01*
X155548171Y-91278042D01*
X155514891Y-91277083D01*
X155338336Y-91495313D01*
X154991803Y-92071563D01*
X154537140Y-92888169D01*
X154036196Y-93827469D01*
X153550820Y-94771800D01*
X153142862Y-95603499D01*
X152874170Y-96204905D01*
X152801042Y-96439956D01*
X152153636Y-96439956D01*
X152518089Y-95654807D01*
X153205079Y-94154320D01*
X153826981Y-92773381D01*
X154348727Y-91587348D01*
X154705887Y-90741149D01*
X155976042Y-90741149D01*
X156197998Y-91129751D01*
X156740588Y-91558312D01*
X157418893Y-91910477D01*
X158047994Y-92069890D01*
X158089262Y-92070833D01*
X158778946Y-91922795D01*
X159561619Y-91557549D01*
X159705395Y-91466215D01*
X160298195Y-90975284D01*
X160656242Y-90506770D01*
X160689965Y-90407882D01*
X160662069Y-90141602D01*
X160370731Y-90004445D01*
X159703060Y-89957767D01*
X159368879Y-89955641D01*
X158323578Y-90012569D01*
X157334014Y-90160666D01*
X156533206Y-90369135D01*
X156054171Y-90607181D01*
X155976042Y-90741149D01*
X154705887Y-90741149D01*
X154735250Y-90671580D01*
X154951484Y-90101435D01*
X154984586Y-89954166D01*
X155014147Y-89438545D01*
X155573480Y-89438545D01*
X155732850Y-89838780D01*
X156186271Y-89809465D01*
X156201242Y-89803144D01*
X156654850Y-89703750D01*
X157484942Y-89601302D01*
X158539232Y-89513289D01*
X158937756Y-89488869D01*
X160044000Y-89420989D01*
X160737941Y-89338874D01*
X161135720Y-89200710D01*
X161353482Y-88964681D01*
X161507369Y-88588973D01*
X161517443Y-88560113D01*
X161710910Y-87709495D01*
X161786009Y-86734536D01*
X161744711Y-85820653D01*
X161588988Y-85153267D01*
X161479375Y-84979999D01*
X160863375Y-84708843D01*
X160019312Y-84793216D01*
X159044708Y-85171503D01*
X158037086Y-85782086D01*
X157093968Y-86563351D01*
X156312879Y-87453680D01*
X155791340Y-88391458D01*
X155713913Y-88622690D01*
X155573480Y-89438545D01*
X155014147Y-89438545D01*
X155050716Y-88800689D01*
X155576965Y-87581100D01*
X156513513Y-86370635D01*
X157810537Y-85244528D01*
X158342946Y-84882646D01*
X159484448Y-84332356D01*
X160558588Y-84135920D01*
X161451175Y-84301890D01*
X161888159Y-84617187D01*
X162241132Y-85357683D01*
X162347818Y-86421176D01*
X162232678Y-87676005D01*
X161920174Y-88990507D01*
X161434764Y-90233024D01*
X160800910Y-91271892D01*
X160609855Y-91497815D01*
X160081258Y-92032692D01*
X159613277Y-92325950D01*
X159011231Y-92452907D01*
X158080441Y-92488881D01*
X158047038Y-92489321D01*
X156372917Y-92510935D01*
X155380729Y-94207934D01*
X154901388Y-95045944D01*
X154549256Y-95696179D01*
X154391340Y-96034240D01*
X154388542Y-96049930D01*
X154624203Y-96177768D01*
X155233701Y-96358263D01*
X155862389Y-96504070D01*
X157424498Y-96966692D01*
X158531698Y-97577247D01*
X159172821Y-98293520D01*
X159336701Y-99073297D01*
X159012172Y-99874363D01*
X158188068Y-100654503D01*
X157119006Y-101254811D01*
X155628998Y-101766553D01*
X154221833Y-101931860D01*
X153016000Y-101744941D01*
X152469399Y-101482007D01*
X151740882Y-101004610D01*
X150818918Y-103027727D01*
X150347077Y-104097715D01*
X149787952Y-105419736D01*
X149182045Y-106891869D01*
X148569854Y-108412192D01*
X147991881Y-109878786D01*
X147488625Y-111189728D01*
X147100586Y-112243099D01*
X146868265Y-112936976D01*
X146838971Y-113043494D01*
X146656034Y-113775531D01*
X147467133Y-113363472D01*
X149148762Y-113363472D01*
X149555142Y-113499222D01*
X149656471Y-113502083D01*
X150030227Y-113540177D01*
X150035135Y-113751180D01*
X149806025Y-114127886D01*
X149553131Y-114676589D01*
X149688064Y-115045652D01*
X149696220Y-115053928D01*
X150141752Y-115320798D01*
X150665519Y-115202101D01*
X151189231Y-114852567D01*
X151826380Y-114362734D01*
X151237361Y-113535533D01*
X150808842Y-112972377D01*
X150473567Y-112753823D01*
X150022160Y-112790380D01*
X149692187Y-112875096D01*
X149196806Y-113113958D01*
X149148762Y-113363472D01*
X147467133Y-113363472D01*
X148504282Y-112836574D01*
X149570291Y-112383563D01*
X151427705Y-112383563D01*
X151493278Y-112785077D01*
X151788956Y-113168319D01*
X152483254Y-113807359D01*
X153271820Y-114367716D01*
X153982767Y-114737844D01*
X154340225Y-114824010D01*
X154568700Y-114640754D01*
X154511113Y-114229687D01*
X154007228Y-113133804D01*
X153266203Y-112487433D01*
X152687920Y-112297597D01*
X151828565Y-112218507D01*
X151427705Y-112383563D01*
X149570291Y-112383563D01*
X150326871Y-112062047D01*
X151869191Y-111728760D01*
X153125150Y-111833912D01*
X154088653Y-112374699D01*
X154753607Y-113348321D01*
X155113918Y-114751975D01*
X155181880Y-115907155D01*
X155055827Y-117546989D01*
X154708791Y-119431418D01*
X154188483Y-121349162D01*
X153579073Y-123004981D01*
X152654012Y-124556526D01*
X151414837Y-125705268D01*
X149917231Y-126418739D01*
X148216877Y-126664470D01*
X147391764Y-126612726D01*
X146054167Y-126446091D01*
X144957341Y-128242316D01*
X144404204Y-129181254D01*
X143811977Y-130239824D01*
X143239150Y-131306408D01*
X142744212Y-132269384D01*
X142385654Y-133017132D01*
X142221964Y-133438033D01*
X142217708Y-133470579D01*
X142445065Y-133575114D01*
X142891193Y-133610416D01*
X143533059Y-133793643D01*
X144192812Y-134240462D01*
X144246249Y-134291987D01*
X144707340Y-134875922D01*
X144833676Y-135501443D01*
X144792618Y-135981570D01*
X144657416Y-136989581D01*
X145913874Y-137156256D01*
X147066197Y-137462780D01*
X147760016Y-138022717D01*
X148007721Y-138848073D01*
X147994541Y-139172603D01*
X147966956Y-139679925D01*
X148110726Y-139933608D01*
X148555731Y-140032347D01*
X149167858Y-140064193D01*
X150093530Y-140203508D01*
X150843649Y-140574515D01*
X151445112Y-141228813D01*
X151924817Y-142217999D01*
X152309663Y-143593672D01*
X152626547Y-145407431D01*
X152837764Y-147104166D01*
X152986024Y-149331944D01*
X152885024Y-151127909D01*
X152528419Y-152530368D01*
X151909866Y-153577623D01*
X151734056Y-153768107D01*
X151161351Y-154227672D01*
X150513831Y-154482127D01*
X149720166Y-154522328D01*
X148709028Y-154339131D01*
X147409088Y-153923392D01*
X145749019Y-153265969D01*
X144861495Y-152887110D01*
X141111681Y-151261721D01*
X140222056Y-152159506D01*
X139818603Y-152590765D01*
X139551006Y-152993255D01*
X139381007Y-153495769D01*
X139270345Y-154227101D01*
X139180762Y-155316045D01*
X139149746Y-155769270D01*
X138967061Y-158481249D01*
X136341222Y-158481249D01*
X135147114Y-158474588D01*
X134392315Y-158442359D01*
X133987015Y-158366196D01*
X133841405Y-158227730D01*
X133865677Y-158008594D01*
X133875438Y-157976957D01*
X133880334Y-157952083D01*
X134540169Y-157952083D01*
X136402867Y-157952083D01*
X137556864Y-157906666D01*
X138206424Y-157768505D01*
X138368307Y-157621353D01*
X138438310Y-157209407D01*
X138527893Y-156428717D01*
X138619086Y-155438371D01*
X138629824Y-155306249D01*
X138788599Y-153321874D01*
X136931535Y-153321874D01*
X135074470Y-153321874D01*
X134955825Y-154115624D01*
X134862489Y-154833252D01*
X134752310Y-155809101D01*
X134688674Y-156430728D01*
X134540169Y-157952083D01*
X133880334Y-157952083D01*
X133971390Y-157489454D01*
X134086825Y-156632791D01*
X134201242Y-155565460D01*
X134234996Y-155197283D01*
X134434497Y-152921902D01*
X133629748Y-152148911D01*
X132825000Y-151375920D01*
X129394535Y-152957087D01*
X127630946Y-153744111D01*
X126256297Y-154287537D01*
X125197665Y-154602032D01*
X124382128Y-154702265D01*
X123736764Y-154602900D01*
X123188650Y-154318607D01*
X123069500Y-154229256D01*
X122428336Y-153552772D01*
X121947510Y-152762711D01*
X121945021Y-152756782D01*
X121716768Y-151829838D01*
X121602859Y-150514340D01*
X121600652Y-150130010D01*
X122134973Y-150130010D01*
X122250979Y-151526459D01*
X122384547Y-152185360D01*
X122817665Y-153087520D01*
X123492977Y-153808980D01*
X124262356Y-154209225D01*
X124558817Y-154247916D01*
X124978248Y-154143548D01*
X125778332Y-153856384D01*
X126859237Y-153425331D01*
X128121131Y-152889298D01*
X128697096Y-152635071D01*
X132309379Y-151022227D01*
X132302916Y-148467884D01*
X132311616Y-147907604D01*
X132698810Y-147907604D01*
X132778420Y-149253200D01*
X133074307Y-150417058D01*
X133386665Y-150998312D01*
X134473964Y-152093500D01*
X135735781Y-152738870D01*
X137089805Y-152912504D01*
X138453727Y-152592483D01*
X138782253Y-152435094D01*
X139851249Y-151582086D01*
X140615362Y-150378774D01*
X141038221Y-148930834D01*
X141083457Y-147343941D01*
X140895190Y-146295735D01*
X140311513Y-144950448D01*
X140306178Y-144944423D01*
X141036323Y-144944423D01*
X141495403Y-146435070D01*
X141662480Y-148052553D01*
X141645621Y-149011858D01*
X141556250Y-150841404D01*
X145128125Y-152394175D01*
X146905768Y-153133903D01*
X148293438Y-153626889D01*
X149361638Y-153887120D01*
X150180874Y-153928580D01*
X150821647Y-153765255D01*
X151134422Y-153585637D01*
X151721070Y-152875774D01*
X152129306Y-151741065D01*
X152355720Y-150256052D01*
X152396907Y-148495280D01*
X152249457Y-146533292D01*
X151909964Y-144444631D01*
X151611205Y-143155980D01*
X151191349Y-141924175D01*
X150646045Y-141146428D01*
X149895274Y-140749585D01*
X148880821Y-140659797D01*
X147965873Y-140800100D01*
X146853747Y-141140930D01*
X145634202Y-141633262D01*
X144396998Y-142228069D01*
X143231896Y-142876323D01*
X142228655Y-143529000D01*
X141477035Y-144137072D01*
X141066797Y-144651512D01*
X141036323Y-144944423D01*
X140306178Y-144944423D01*
X139427243Y-143951747D01*
X138335513Y-143310418D01*
X137129452Y-143037244D01*
X135902194Y-143143011D01*
X134746868Y-143638505D01*
X133756606Y-144534509D01*
X133211444Y-145405922D01*
X132841233Y-146563951D01*
X132698810Y-147907604D01*
X132311616Y-147907604D01*
X132321662Y-147260625D01*
X132377292Y-146169361D01*
X132459708Y-145360391D01*
X132506186Y-145119791D01*
X132583384Y-144726199D01*
X132518834Y-144410666D01*
X132235219Y-144082502D01*
X131655221Y-143651020D01*
X130744168Y-143053057D01*
X128743513Y-141885975D01*
X126993034Y-141125308D01*
X125512296Y-140777347D01*
X124320865Y-140848384D01*
X124105604Y-140918520D01*
X123613176Y-141319364D01*
X123184215Y-142141081D01*
X122803339Y-143421766D01*
X122511750Y-144866089D01*
X122267907Y-146653207D01*
X122141465Y-148456720D01*
X122134973Y-150130010D01*
X121600652Y-150130010D01*
X121593798Y-148936205D01*
X121680090Y-147221348D01*
X121852240Y-145495688D01*
X122100752Y-143885142D01*
X122416131Y-142515626D01*
X122788881Y-141513057D01*
X122793609Y-141503873D01*
X123248488Y-140872247D01*
X123728019Y-140472915D01*
X124093601Y-140171845D01*
X123989864Y-139882988D01*
X123735698Y-139312019D01*
X123732685Y-138988652D01*
X124227234Y-138988652D01*
X124379427Y-139494259D01*
X124402430Y-139519444D01*
X124885222Y-139691915D01*
X125527923Y-139620430D01*
X126041442Y-139341063D01*
X126067587Y-139311654D01*
X126274679Y-138741744D01*
X126094813Y-138188280D01*
X125657891Y-137781165D01*
X125093817Y-137650302D01*
X124610220Y-137854287D01*
X124316189Y-138345631D01*
X124227234Y-138988652D01*
X123732685Y-138988652D01*
X123728456Y-138534807D01*
X123948162Y-137802036D01*
X124180729Y-137487881D01*
X124946929Y-137084099D01*
X125723302Y-137147142D01*
X126389642Y-137630981D01*
X126825747Y-138489586D01*
X126829102Y-138502010D01*
X126906168Y-139155413D01*
X126647199Y-139602657D01*
X126523918Y-139710141D01*
X126274290Y-139948657D01*
X126287481Y-140135232D01*
X126638667Y-140341171D01*
X127403027Y-140637774D01*
X127564152Y-140696752D01*
X128525007Y-141117067D01*
X129701865Y-141731386D01*
X130880401Y-142425764D01*
X131188806Y-142623813D01*
X132100926Y-143197350D01*
X132843170Y-143615953D01*
X133310822Y-143822999D01*
X133412788Y-143826447D01*
X133442695Y-143511401D01*
X133386471Y-142808124D01*
X133256259Y-141848349D01*
X133196899Y-141484698D01*
X132970054Y-140151477D01*
X133592736Y-140151477D01*
X133730163Y-141180158D01*
X133765066Y-141384663D01*
X133962671Y-142391622D01*
X134146084Y-142939633D01*
X134358829Y-143095758D01*
X134515652Y-143003124D01*
X139307291Y-143003124D01*
X139439583Y-143135416D01*
X139571875Y-143003124D01*
X139439583Y-142870833D01*
X139307291Y-143003124D01*
X134515652Y-143003124D01*
X134644430Y-142927056D01*
X134719346Y-142855028D01*
X134853308Y-142414166D01*
X134821382Y-141679100D01*
X134808715Y-141614062D01*
X135338541Y-141614062D01*
X135467550Y-142331897D01*
X135861357Y-142602934D01*
X135929380Y-142606249D01*
X135971143Y-142542445D01*
X140146562Y-142542445D01*
X140170357Y-142752013D01*
X140360318Y-142996730D01*
X140909225Y-143358394D01*
X141597325Y-143249149D01*
X142335269Y-142774052D01*
X143114289Y-142150734D01*
X142536096Y-141841295D01*
X142012938Y-141677797D01*
X141426005Y-141814848D01*
X141095619Y-141970409D01*
X140427434Y-142320362D01*
X140146562Y-142542445D01*
X135971143Y-142542445D01*
X135997555Y-142502093D01*
X138062307Y-142502093D01*
X138188511Y-142480029D01*
X138194263Y-142473958D01*
X138395956Y-142077836D01*
X138573457Y-141547916D01*
X139571875Y-141547916D01*
X139603616Y-141949719D01*
X139792930Y-142042842D01*
X140280958Y-141862503D01*
X140477171Y-141773810D01*
X140946915Y-141443390D01*
X140914277Y-141168217D01*
X140420136Y-141029067D01*
X142834623Y-141029067D01*
X142878964Y-141239315D01*
X143146636Y-141450453D01*
X143587185Y-141745646D01*
X143901163Y-141759765D01*
X144351769Y-141538607D01*
X144761131Y-141224157D01*
X144863542Y-141027270D01*
X144641950Y-140734383D01*
X144116274Y-140604821D01*
X143495161Y-140671057D01*
X143238352Y-140774337D01*
X142834623Y-141029067D01*
X140420136Y-141029067D01*
X140405608Y-141024976D01*
X140217718Y-141018749D01*
X139706980Y-141149175D01*
X139571875Y-141547916D01*
X138573457Y-141547916D01*
X138636101Y-141360897D01*
X138762608Y-140886458D01*
X139053073Y-139895238D01*
X139921441Y-139895238D01*
X140047999Y-140209232D01*
X140562706Y-140467931D01*
X141114884Y-140643865D01*
X141878169Y-140791565D01*
X142548159Y-140673083D01*
X143077604Y-140440050D01*
X143770322Y-139980627D01*
X144066053Y-139517970D01*
X144067687Y-139495642D01*
X144675605Y-139495642D01*
X144822939Y-140042601D01*
X144845135Y-140070529D01*
X145416281Y-140443070D01*
X146022593Y-140391713D01*
X146431481Y-139996965D01*
X146514508Y-139401828D01*
X146234098Y-138893237D01*
X145719167Y-138661499D01*
X145535871Y-138674874D01*
X144942350Y-138980932D01*
X144675605Y-139495642D01*
X144067687Y-139495642D01*
X144069792Y-139466879D01*
X144287572Y-138809491D01*
X144830730Y-138364418D01*
X145533989Y-138169242D01*
X146232072Y-138261547D01*
X146759703Y-138678913D01*
X146844511Y-138835937D01*
X147156452Y-139328554D01*
X147400579Y-139380283D01*
X147477388Y-138990056D01*
X147461631Y-138842560D01*
X147119418Y-138175190D01*
X146326732Y-137778639D01*
X145088902Y-137654913D01*
X144393569Y-137688325D01*
X142984079Y-137908476D01*
X141720511Y-138297844D01*
X140727296Y-138805957D01*
X140128863Y-139382342D01*
X140102233Y-139429023D01*
X139921441Y-139895238D01*
X139053073Y-139895238D01*
X139320213Y-138983615D01*
X139897824Y-137402777D01*
X140982986Y-137402777D01*
X141019305Y-137560071D01*
X141159375Y-137579166D01*
X141377157Y-137482359D01*
X141335764Y-137402777D01*
X141021765Y-137371111D01*
X140982986Y-137402777D01*
X139897824Y-137402777D01*
X140124604Y-136782111D01*
X140392130Y-136144279D01*
X141312265Y-136144279D01*
X141665613Y-136762488D01*
X142273525Y-137218443D01*
X142854036Y-137238421D01*
X143564434Y-136822718D01*
X143637235Y-136766212D01*
X144210965Y-136117223D01*
X144272802Y-135425458D01*
X143922497Y-134727621D01*
X143366181Y-134293612D01*
X142640056Y-134136548D01*
X141974328Y-134283442D01*
X141742209Y-134471792D01*
X141314660Y-135302147D01*
X141312265Y-136144279D01*
X140392130Y-136144279D01*
X141117239Y-134415481D01*
X142239576Y-132017259D01*
X143433072Y-129720980D01*
X144369996Y-128096001D01*
X144899476Y-127171926D01*
X145194917Y-126554251D01*
X145257578Y-126280243D01*
X145088722Y-126387171D01*
X144689608Y-126912301D01*
X144347531Y-127431973D01*
X143550772Y-128792230D01*
X142648563Y-130503520D01*
X141710516Y-132417502D01*
X140806241Y-134385838D01*
X140005348Y-136260188D01*
X139377448Y-137892213D01*
X139213329Y-138372916D01*
X138664876Y-140087411D01*
X138294328Y-141330576D01*
X138095526Y-142127206D01*
X138062307Y-142502093D01*
X135997555Y-142502093D01*
X136076423Y-142381601D01*
X136083720Y-141899049D01*
X135910734Y-141328037D01*
X135645557Y-141080540D01*
X135414334Y-141204800D01*
X135338541Y-141614062D01*
X134808715Y-141614062D01*
X134658930Y-140845029D01*
X134401314Y-140107151D01*
X134151018Y-139717833D01*
X133794720Y-139456779D01*
X133611440Y-139589172D01*
X133592736Y-140151477D01*
X132970054Y-140151477D01*
X132825000Y-139298957D01*
X131237500Y-139350110D01*
X129650000Y-139401263D01*
X131054634Y-139085527D01*
X131825203Y-138879406D01*
X132221279Y-138723373D01*
X133643226Y-138723373D01*
X133787922Y-139078812D01*
X134181437Y-139391901D01*
X134449115Y-139363371D01*
X134440807Y-139012735D01*
X134288813Y-138365855D01*
X134271794Y-138152839D01*
X134223094Y-137881398D01*
X134028035Y-138029233D01*
X133879402Y-138218916D01*
X133643226Y-138723373D01*
X132221279Y-138723373D01*
X132326410Y-138681957D01*
X132438407Y-138577008D01*
X132215582Y-138217348D01*
X131688690Y-137678473D01*
X130994694Y-137073595D01*
X130270553Y-136515926D01*
X129653229Y-136118679D01*
X129310731Y-135991666D01*
X128588795Y-135780152D01*
X128129275Y-135247394D01*
X127959176Y-134546069D01*
X127994232Y-134374244D01*
X128502372Y-134374244D01*
X128607385Y-135020982D01*
X129023772Y-135389780D01*
X129581316Y-135402508D01*
X130036326Y-135078335D01*
X130306373Y-134466641D01*
X130110225Y-133980293D01*
X129510844Y-133747772D01*
X129381793Y-133742707D01*
X128789756Y-133834012D01*
X128538115Y-134188999D01*
X128502372Y-134374244D01*
X127994232Y-134374244D01*
X128105504Y-133828850D01*
X128595265Y-133248416D01*
X128804200Y-133128042D01*
X129412087Y-132915985D01*
X129904397Y-133026008D01*
X130193263Y-133198447D01*
X130683988Y-133780350D01*
X130849866Y-134535204D01*
X130658030Y-135239075D01*
X130518456Y-135414252D01*
X130413657Y-135682597D01*
X130607218Y-136076379D01*
X131150724Y-136689061D01*
X131312206Y-136852340D01*
X131924547Y-137408228D01*
X132316592Y-137647202D01*
X132424745Y-137575275D01*
X132364787Y-137157542D01*
X132205654Y-136362593D01*
X131973496Y-135300614D01*
X131912191Y-135032832D01*
X132539400Y-135032832D01*
X132632284Y-135655048D01*
X132791177Y-136420836D01*
X132976747Y-137155716D01*
X133149658Y-137685208D01*
X133254126Y-137843749D01*
X133436103Y-137613109D01*
X133610450Y-137047260D01*
X133631891Y-136940710D01*
X133690635Y-135885225D01*
X133439212Y-135136691D01*
X133041642Y-134819255D01*
X132644933Y-134714703D01*
X132551862Y-134728667D01*
X132539400Y-135032832D01*
X131912191Y-135032832D01*
X131694461Y-134081788D01*
X131672272Y-133988116D01*
X133045615Y-133988116D01*
X133046147Y-133989506D01*
X133368397Y-134350796D01*
X133763122Y-134350399D01*
X134005203Y-134011280D01*
X134015625Y-133890614D01*
X133882927Y-133376473D01*
X133727988Y-133199293D01*
X133329313Y-133182282D01*
X133048462Y-133507102D01*
X133045615Y-133988116D01*
X131672272Y-133988116D01*
X131394697Y-132816300D01*
X131100353Y-131614334D01*
X130837577Y-130586075D01*
X130632518Y-129841707D01*
X130511324Y-129491414D01*
X130503933Y-129481363D01*
X130217201Y-129523772D01*
X129697544Y-129819015D01*
X129559174Y-129917428D01*
X128586813Y-130330264D01*
X127358183Y-130397265D01*
X125992279Y-130145682D01*
X124608093Y-129602771D01*
X123324619Y-128795783D01*
X122836979Y-128377832D01*
X122229913Y-127512981D01*
X122193865Y-127116232D01*
X122707898Y-127116232D01*
X123116689Y-127819978D01*
X123620887Y-128296206D01*
X124698908Y-129009159D01*
X125913817Y-129536524D01*
X127126162Y-129842648D01*
X128196492Y-129891876D01*
X128964191Y-129662314D01*
X129128184Y-129441100D01*
X129007326Y-129073787D01*
X128561659Y-128448213D01*
X128506903Y-128378758D01*
X127868692Y-127447473D01*
X127287555Y-126400488D01*
X127151594Y-126105100D01*
X126733765Y-125314229D01*
X126648779Y-125245891D01*
X127401042Y-125245891D01*
X127538244Y-125632145D01*
X127891151Y-126279663D01*
X128371714Y-127054895D01*
X128891886Y-127824294D01*
X129363616Y-128454314D01*
X129698857Y-128811405D01*
X129775876Y-128847916D01*
X130042771Y-128637003D01*
X130150859Y-128429401D01*
X130327749Y-127304026D01*
X129993093Y-126262520D01*
X129489727Y-125646778D01*
X128824175Y-125168354D01*
X128164364Y-124914714D01*
X127646039Y-124911911D01*
X127404948Y-125186001D01*
X127401042Y-125245891D01*
X126648779Y-125245891D01*
X126261586Y-124934546D01*
X125608478Y-124926085D01*
X124647861Y-125248875D01*
X124557956Y-125286132D01*
X123421505Y-125871881D01*
X122807161Y-126474390D01*
X122707898Y-127116232D01*
X122193865Y-127116232D01*
X122142576Y-126551737D01*
X122274299Y-126080160D01*
X122710582Y-125572843D01*
X123536602Y-125094465D01*
X124613066Y-124686025D01*
X125800683Y-124388523D01*
X126960159Y-124242958D01*
X127952203Y-124290331D01*
X128177268Y-124342669D01*
X128792799Y-124498822D01*
X129136095Y-124544145D01*
X129154060Y-124537259D01*
X129122631Y-124264862D01*
X128968629Y-123623392D01*
X128731317Y-122747584D01*
X128449962Y-121772175D01*
X128163828Y-120831903D01*
X127912181Y-120061503D01*
X127734286Y-119595713D01*
X127693682Y-119526045D01*
X127373863Y-119518164D01*
X126764422Y-119718593D01*
X126406936Y-119881149D01*
X125402553Y-120233786D01*
X124369430Y-120262783D01*
X123186602Y-119954080D01*
X121844791Y-119350882D01*
X120741374Y-118653497D01*
X119907393Y-117857640D01*
X119417481Y-117054740D01*
X119350890Y-116382808D01*
X119923810Y-116382808D01*
X120011677Y-117027016D01*
X120526211Y-117738261D01*
X121384242Y-118441857D01*
X122502601Y-119063115D01*
X123233237Y-119354727D01*
X124085439Y-119647003D01*
X124611799Y-119791173D01*
X124990048Y-119801711D01*
X125397917Y-119693088D01*
X125774060Y-119561616D01*
X126338260Y-119330254D01*
X126604230Y-119152919D01*
X126607292Y-119140655D01*
X126449534Y-118883480D01*
X126044265Y-118362649D01*
X125687922Y-117936083D01*
X125042029Y-117049942D01*
X124486068Y-116068604D01*
X124324434Y-115699099D01*
X124028476Y-114998192D01*
X124025493Y-114994754D01*
X124756197Y-114994754D01*
X124903883Y-115563302D01*
X125282131Y-116325010D01*
X125796293Y-117140805D01*
X126351722Y-117871613D01*
X126853771Y-118378361D01*
X127161556Y-118529166D01*
X127352658Y-118302395D01*
X127523238Y-117781380D01*
X127517471Y-116685017D01*
X127060258Y-115713210D01*
X126229278Y-114983851D01*
X125482812Y-114684638D01*
X124955953Y-114614830D01*
X124768635Y-114818717D01*
X124756197Y-114994754D01*
X124025493Y-114994754D01*
X123757525Y-114685913D01*
X123368139Y-114649252D01*
X123060991Y-114703686D01*
X122081016Y-114988358D01*
X121138907Y-115401428D01*
X120382184Y-115863938D01*
X119958367Y-116296931D01*
X119923810Y-116382808D01*
X119350890Y-116382808D01*
X119346273Y-116336223D01*
X119355749Y-116301767D01*
X119827439Y-115572541D01*
X120717847Y-114933710D01*
X121918257Y-114432902D01*
X123319953Y-114117743D01*
X124538647Y-114031249D01*
X125277499Y-113990107D01*
X125737653Y-113885296D01*
X125813542Y-113810422D01*
X125709324Y-113413819D01*
X125421017Y-112629989D01*
X124985136Y-111541750D01*
X124438197Y-110231923D01*
X124342359Y-110008535D01*
X125024242Y-110008535D01*
X125139633Y-110455180D01*
X125433414Y-111234958D01*
X125843767Y-112209495D01*
X126308877Y-113240418D01*
X126766927Y-114189352D01*
X127156100Y-114917925D01*
X127352520Y-115220283D01*
X127991767Y-116316256D01*
X128176212Y-117361217D01*
X128119738Y-117729262D01*
X128145553Y-118163636D01*
X128307542Y-118986579D01*
X128573762Y-120084907D01*
X128912272Y-121345436D01*
X129291130Y-122654984D01*
X129678392Y-123900368D01*
X130042119Y-124968404D01*
X130350366Y-125745909D01*
X130427195Y-125905486D01*
X130724678Y-126726588D01*
X130840625Y-127504949D01*
X130905100Y-128134524D01*
X131076262Y-129093629D01*
X131320720Y-130201505D01*
X131392930Y-130494651D01*
X131715878Y-131777075D01*
X131940741Y-132618910D01*
X132106410Y-133090701D01*
X132251775Y-133262989D01*
X132415727Y-133206317D01*
X132637158Y-132991228D01*
X132721850Y-132905117D01*
X133259549Y-132367418D01*
X132314670Y-128177818D01*
X131996222Y-126753659D01*
X131723567Y-125511102D01*
X131516354Y-124541572D01*
X131394234Y-123936497D01*
X131369792Y-123781440D01*
X131208792Y-123477925D01*
X130798881Y-122936476D01*
X130510591Y-122596087D01*
X130051966Y-122026321D01*
X130019835Y-121962398D01*
X130840625Y-121962398D01*
X131072543Y-122299914D01*
X131638368Y-122549690D01*
X132343201Y-122643610D01*
X132692708Y-122609690D01*
X133287381Y-122335306D01*
X133958397Y-121811594D01*
X134139728Y-121628576D01*
X134925290Y-120778124D01*
X134082060Y-120695847D01*
X133413052Y-120744334D01*
X132594503Y-120953476D01*
X131787016Y-121260521D01*
X131151193Y-121602715D01*
X130847637Y-121917303D01*
X130840625Y-121962398D01*
X130019835Y-121962398D01*
X129790271Y-121505693D01*
X129667580Y-120847759D01*
X129639854Y-120193737D01*
X130152613Y-120193737D01*
X130163698Y-120806817D01*
X130336433Y-121132045D01*
X130511274Y-121130856D01*
X130859845Y-120992263D01*
X131516934Y-120741030D01*
X131900197Y-120596605D01*
X132868831Y-120280407D01*
X133835238Y-120035521D01*
X134081771Y-119989303D01*
X134682060Y-119865978D01*
X134972096Y-119647377D01*
X135063874Y-119174169D01*
X135070058Y-118583323D01*
X134935307Y-117320266D01*
X134557628Y-116430880D01*
X133963423Y-115969649D01*
X133783127Y-115927481D01*
X133237089Y-116074445D01*
X132527623Y-116563810D01*
X131764327Y-117284685D01*
X131056802Y-118126182D01*
X130514646Y-118977409D01*
X130318981Y-119432412D01*
X130152613Y-120193737D01*
X129639854Y-120193737D01*
X129625964Y-119866076D01*
X129624026Y-119742610D01*
X129528499Y-118406418D01*
X129249219Y-117104375D01*
X128765893Y-115673512D01*
X128122927Y-114005630D01*
X127608876Y-112760719D01*
X127181826Y-111860914D01*
X126799863Y-111228351D01*
X126421073Y-110785166D01*
X126003542Y-110453495D01*
X125930085Y-110405410D01*
X125370660Y-110086173D01*
X125052404Y-109980497D01*
X125024242Y-110008535D01*
X124342359Y-110008535D01*
X124050874Y-109329118D01*
X125908523Y-109329118D01*
X125954067Y-109683877D01*
X126220564Y-109970346D01*
X127037919Y-110310333D01*
X127894585Y-110145148D01*
X128819492Y-109468104D01*
X128948854Y-109339482D01*
X129495318Y-108763658D01*
X129700599Y-108458164D01*
X129599266Y-108320734D01*
X129313093Y-108261937D01*
X128712202Y-108292544D01*
X127885032Y-108472676D01*
X127018067Y-108743880D01*
X126297793Y-109047699D01*
X125910694Y-109325680D01*
X125908523Y-109329118D01*
X124050874Y-109329118D01*
X123816717Y-108783327D01*
X123157212Y-107278782D01*
X122496200Y-105801106D01*
X121870195Y-104433120D01*
X121315714Y-103257643D01*
X120869274Y-102357494D01*
X120567392Y-101815493D01*
X120472939Y-101697880D01*
X120113165Y-101738013D01*
X119722189Y-101998079D01*
X118809524Y-102481918D01*
X117610340Y-102596909D01*
X116217263Y-102343348D01*
X115257945Y-101983859D01*
X114122722Y-101362669D01*
X113146385Y-100622230D01*
X112430312Y-99857403D01*
X112075877Y-99163051D01*
X112066045Y-99079267D01*
X112712478Y-99079267D01*
X113043754Y-99728629D01*
X113842668Y-100443757D01*
X115085494Y-101196908D01*
X115217323Y-101265103D01*
X116645718Y-101880596D01*
X117792916Y-102107654D01*
X118725373Y-101956784D01*
X118945483Y-101854471D01*
X119205125Y-101673525D01*
X119237717Y-101437046D01*
X119008233Y-101024179D01*
X118509670Y-100350771D01*
X117899103Y-99464202D01*
X117372037Y-98552137D01*
X117164310Y-98107758D01*
X116822821Y-97432809D01*
X116431757Y-97145455D01*
X116061376Y-97103727D01*
X115242132Y-97250927D01*
X114277730Y-97612957D01*
X113398739Y-98087163D01*
X112872566Y-98523412D01*
X112712478Y-99079267D01*
X112066045Y-99079267D01*
X112055208Y-98986913D01*
X112304310Y-98316295D01*
X112991302Y-97668674D01*
X114025714Y-97096248D01*
X114347130Y-96985481D01*
X117400951Y-96985481D01*
X117477356Y-97333290D01*
X117812895Y-98039445D01*
X117910592Y-98232935D01*
X118653894Y-99568755D01*
X119281822Y-100416304D01*
X119787193Y-100769939D01*
X120162826Y-100624015D01*
X120361333Y-100158986D01*
X120349339Y-99206823D01*
X119916284Y-98277424D01*
X119158581Y-97504172D01*
X118172644Y-97020446D01*
X118074479Y-96995307D01*
X117595913Y-96903619D01*
X117400951Y-96985481D01*
X114347130Y-96985481D01*
X115317075Y-96651217D01*
X116508718Y-96417375D01*
X117275845Y-96299453D01*
X117771956Y-96192174D01*
X117876042Y-96142797D01*
X117767812Y-95877415D01*
X117482960Y-95266486D01*
X117081236Y-94437899D01*
X117047249Y-94368898D01*
X116218456Y-92688194D01*
X115052744Y-92688194D01*
X113861737Y-92503780D01*
X113729772Y-92423380D01*
X116962427Y-92423380D01*
X117143684Y-93134466D01*
X117510076Y-94029433D01*
X117999564Y-94985510D01*
X118550109Y-95879925D01*
X119099673Y-96589908D01*
X119525105Y-96959903D01*
X120251144Y-97634625D01*
X120772829Y-98576193D01*
X120987878Y-99568009D01*
X120954539Y-99987005D01*
X120979804Y-100467557D01*
X121205267Y-101265392D01*
X121646725Y-102425011D01*
X122319972Y-103990913D01*
X122585908Y-104582787D01*
X124358333Y-108495782D01*
X124432303Y-108045052D01*
X125016471Y-108045052D01*
X125101033Y-108536349D01*
X125415908Y-108669557D01*
X125482812Y-108652457D01*
X125996181Y-108487641D01*
X126789064Y-108233301D01*
X127268750Y-108079491D01*
X128172632Y-107793883D01*
X128970788Y-107548594D01*
X129253125Y-107465052D01*
X129727766Y-107209365D01*
X129947653Y-106692145D01*
X129995150Y-106313383D01*
X129950445Y-105347099D01*
X129698489Y-104452775D01*
X129302436Y-103774387D01*
X128825441Y-103455913D01*
X128738221Y-103447916D01*
X128163005Y-103648992D01*
X127421338Y-104174868D01*
X126639496Y-104909520D01*
X125943755Y-105736923D01*
X125529798Y-106395890D01*
X125160100Y-107297591D01*
X125016471Y-108045052D01*
X124432303Y-108045052D01*
X124570730Y-107201561D01*
X124634633Y-106739145D01*
X124642400Y-106311648D01*
X124567520Y-105839012D01*
X124383478Y-105241180D01*
X124063760Y-104438096D01*
X123581854Y-103349702D01*
X122911246Y-101895942D01*
X122573822Y-101171899D01*
X121376382Y-98667276D01*
X120265107Y-96466282D01*
X119266093Y-94617334D01*
X118405438Y-93168848D01*
X117747200Y-92217345D01*
X117377425Y-91880638D01*
X117060398Y-91988119D01*
X117028344Y-92018947D01*
X116962427Y-92423380D01*
X113729772Y-92423380D01*
X112896539Y-91915729D01*
X112083838Y-90871821D01*
X111820178Y-90385754D01*
X111396309Y-89284244D01*
X111122173Y-88052355D01*
X111009061Y-86836533D01*
X111011828Y-86787302D01*
X111513404Y-86787302D01*
X111652510Y-87913651D01*
X111954656Y-89093943D01*
X112390033Y-90191136D01*
X112928834Y-91068193D01*
X113166450Y-91326506D01*
X113871080Y-91896519D01*
X114333521Y-92015282D01*
X114613760Y-91665947D01*
X114615427Y-91657352D01*
X115255665Y-91657352D01*
X115330260Y-91980971D01*
X115610037Y-92069086D01*
X115702039Y-92070833D01*
X116211074Y-91878544D01*
X116795708Y-91401919D01*
X116926480Y-91256782D01*
X117399012Y-90494154D01*
X117609849Y-89738619D01*
X117611458Y-89681732D01*
X117517618Y-88939117D01*
X117284843Y-88221923D01*
X116986253Y-87711325D01*
X116760361Y-87572916D01*
X116497949Y-87805508D01*
X116164154Y-88408330D01*
X115818722Y-89238947D01*
X115521401Y-90154928D01*
X115340590Y-90957593D01*
X115255665Y-91657352D01*
X114615427Y-91657352D01*
X114766777Y-90877061D01*
X114970479Y-89932093D01*
X115339814Y-88852931D01*
X115579414Y-88313136D01*
X115922646Y-87533096D01*
X116107412Y-86936091D01*
X116109124Y-86702914D01*
X115816099Y-86435208D01*
X115223807Y-86006621D01*
X114749930Y-85694963D01*
X113617106Y-85125231D01*
X112659587Y-84940938D01*
X111949683Y-85153290D01*
X111843541Y-85244583D01*
X111567145Y-85851932D01*
X111513404Y-86787302D01*
X111011828Y-86787302D01*
X111068268Y-85783220D01*
X111311086Y-85038860D01*
X111398806Y-84921496D01*
X112130308Y-84479826D01*
X113094464Y-84433444D01*
X114207711Y-84753345D01*
X115386486Y-85410526D01*
X116547226Y-86375981D01*
X117012323Y-86869920D01*
X117756457Y-87898917D01*
X118090367Y-88911464D01*
X118079938Y-90122056D01*
X118060023Y-90280814D01*
X118027816Y-91079422D01*
X118233119Y-91761782D01*
X118646887Y-92447645D01*
X119450498Y-93734285D01*
X120399879Y-95430803D01*
X121451011Y-97453117D01*
X122559875Y-99717144D01*
X123436112Y-101595832D01*
X124015256Y-102856570D01*
X124518277Y-103936733D01*
X124904050Y-104749156D01*
X125131445Y-105206668D01*
X125171470Y-105273873D01*
X125400314Y-105161115D01*
X125902705Y-104764240D01*
X126572366Y-104167569D01*
X126609314Y-104133085D01*
X127392722Y-103445490D01*
X127970311Y-103079279D01*
X128485364Y-102958156D01*
X128796204Y-102968586D01*
X129635181Y-103288701D01*
X130200710Y-104051308D01*
X130485999Y-105241831D01*
X130500280Y-106625026D01*
X130271149Y-108237593D01*
X129799285Y-109419831D01*
X129057522Y-110224683D01*
X128491134Y-110540205D01*
X127508081Y-110960028D01*
X128831065Y-114413868D01*
X129310483Y-115663479D01*
X129717963Y-116721832D01*
X130018400Y-117498037D01*
X130176690Y-117901205D01*
X130191806Y-117937003D01*
X130381264Y-117799963D01*
X130845165Y-117374221D01*
X131487135Y-116748586D01*
X131555630Y-116680232D01*
X132623912Y-115775020D01*
X133540737Y-115361497D01*
X134333557Y-115433350D01*
X134955219Y-115898308D01*
X135316445Y-116603436D01*
X135528633Y-117649210D01*
X135583058Y-118866052D01*
X135470997Y-120084383D01*
X135219948Y-121043661D01*
X134633807Y-122048462D01*
X133797932Y-122822303D01*
X132857995Y-123246403D01*
X132463041Y-123291666D01*
X132014025Y-123370307D01*
X131898740Y-123490103D01*
X131953127Y-123802350D01*
X132103876Y-124541812D01*
X132332140Y-125619235D01*
X132619071Y-126945360D01*
X132862469Y-128054166D01*
X133316123Y-130004116D01*
X133707857Y-131457550D01*
X134046121Y-132442419D01*
X134339368Y-132986675D01*
X134361558Y-133012486D01*
X134718069Y-133532330D01*
X134694616Y-134024858D01*
X134604360Y-134246796D01*
X134481216Y-134723362D01*
X134472378Y-135436071D01*
X134581914Y-136487631D01*
X134732853Y-137490558D01*
X135060661Y-139138027D01*
X135428719Y-140266430D01*
X135840632Y-140884596D01*
X136173299Y-141018749D01*
X136281581Y-140777809D01*
X136352909Y-140146826D01*
X136388380Y-139263551D01*
X136389087Y-138265738D01*
X136388791Y-138257000D01*
X137455208Y-138257000D01*
X137494994Y-139272836D01*
X137619835Y-139788618D01*
X137837957Y-139800975D01*
X138157584Y-139306535D01*
X138586943Y-138301925D01*
X138811422Y-137701046D01*
X139300141Y-136398333D01*
X139853822Y-134987529D01*
X140354621Y-133768750D01*
X140365712Y-133742707D01*
X140735412Y-132726143D01*
X141139362Y-131372969D01*
X141525803Y-129868706D01*
X141647653Y-129310937D01*
X142219773Y-129310937D01*
X142250859Y-129567781D01*
X142378480Y-129551369D01*
X142647131Y-129209940D01*
X143101309Y-128491732D01*
X143510471Y-127809471D01*
X144019459Y-126924276D01*
X144401166Y-126206265D01*
X144589708Y-125781079D01*
X144598958Y-125733812D01*
X144428843Y-125386503D01*
X144042303Y-124994523D01*
X143625043Y-124715305D01*
X143372736Y-124694277D01*
X143242551Y-125009107D01*
X143039092Y-125691553D01*
X142799782Y-126591772D01*
X142562042Y-127559919D01*
X142363294Y-128446152D01*
X142240960Y-129100627D01*
X142219773Y-129310937D01*
X141647653Y-129310937D01*
X141811929Y-128558964D01*
X142080183Y-127239209D01*
X142334575Y-126061665D01*
X142547539Y-125149265D01*
X142691508Y-124624941D01*
X142698512Y-124605346D01*
X142709621Y-124460788D01*
X144398664Y-124460788D01*
X144442671Y-124575756D01*
X144824469Y-124919317D01*
X145493225Y-125331014D01*
X146238429Y-125698584D01*
X146849573Y-125909763D01*
X146974195Y-125925806D01*
X147123146Y-125809174D01*
X146845833Y-125422954D01*
X146709612Y-125282450D01*
X146224533Y-124918654D01*
X145616804Y-124612788D01*
X145020520Y-124406653D01*
X144629117Y-124350557D01*
X146687412Y-124350557D01*
X146900993Y-124535601D01*
X146919629Y-124542418D01*
X147267492Y-124845340D01*
X147643094Y-125411288D01*
X147654028Y-125432237D01*
X148153601Y-126045769D01*
X148706794Y-126202082D01*
X149200769Y-126110657D01*
X149361458Y-125937499D01*
X149165651Y-125680548D01*
X149104440Y-125672916D01*
X148870198Y-125445238D01*
X148640298Y-124889430D01*
X148618986Y-124813020D01*
X148399309Y-124227094D01*
X148056894Y-124025236D01*
X147621208Y-124039344D01*
X146945564Y-124172173D01*
X146687412Y-124350557D01*
X144629117Y-124350557D01*
X144569774Y-124342052D01*
X144398664Y-124460788D01*
X142709621Y-124460788D01*
X142738921Y-124079497D01*
X142622975Y-123366624D01*
X142405353Y-122654211D01*
X142194403Y-122236117D01*
X142787077Y-122236117D01*
X143005076Y-122774715D01*
X143047505Y-122868246D01*
X143350837Y-123302913D01*
X143860937Y-123572296D01*
X144710777Y-123732811D01*
X145199312Y-123781189D01*
X145515683Y-123715378D01*
X145546671Y-123347908D01*
X145493558Y-123093228D01*
X145216441Y-122269863D01*
X144843806Y-121907918D01*
X144292162Y-121939784D01*
X144135961Y-121993889D01*
X143504269Y-122143514D01*
X143098123Y-122120143D01*
X142815736Y-122052751D01*
X142787077Y-122236117D01*
X142194403Y-122236117D01*
X142140732Y-122129743D01*
X141930354Y-121971440D01*
X141780571Y-122216865D01*
X141545070Y-122907726D01*
X141242342Y-123970652D01*
X140890878Y-125332275D01*
X140509169Y-126919226D01*
X140115708Y-128658136D01*
X139728985Y-130475635D01*
X139499025Y-131618350D01*
X139173547Y-133240506D01*
X138915817Y-134418283D01*
X138701752Y-135228440D01*
X138507269Y-135747736D01*
X138308288Y-136052930D01*
X138080725Y-136220780D01*
X138050521Y-136235260D01*
X137727154Y-136442399D01*
X137547274Y-136779361D01*
X137470229Y-137384214D01*
X137455208Y-138257000D01*
X136388791Y-138257000D01*
X136356126Y-137291140D01*
X136290591Y-136477511D01*
X136193577Y-135962602D01*
X136132291Y-135859374D01*
X135918953Y-135462563D01*
X135877186Y-134802836D01*
X135885275Y-134754355D01*
X136394393Y-134754355D01*
X136498486Y-135345663D01*
X136857512Y-135671163D01*
X137414030Y-135677143D01*
X137947951Y-135369109D01*
X138002781Y-135308029D01*
X138186449Y-134771221D01*
X137946583Y-134292876D01*
X137380605Y-134024327D01*
X137165412Y-134007291D01*
X136616237Y-134215391D01*
X136394393Y-134754355D01*
X135885275Y-134754355D01*
X135992348Y-134112598D01*
X136249793Y-133624252D01*
X136274514Y-133602174D01*
X136389741Y-133448682D01*
X136480191Y-133164556D01*
X136548116Y-132694721D01*
X136595769Y-131984102D01*
X136625401Y-130977622D01*
X136639264Y-129620206D01*
X136639611Y-127856779D01*
X136628693Y-125632265D01*
X136625887Y-125209895D01*
X137199039Y-125209895D01*
X137199396Y-127525364D01*
X137207459Y-129364375D01*
X137225746Y-130779610D01*
X137256772Y-131823753D01*
X137303052Y-132549486D01*
X137367101Y-133009492D01*
X137451435Y-133256455D01*
X137558569Y-133343056D01*
X137587500Y-133345832D01*
X137703832Y-133288220D01*
X137795443Y-133079159D01*
X137865160Y-132664316D01*
X137915814Y-131989356D01*
X137950232Y-130999946D01*
X137971245Y-129641751D01*
X137981681Y-127860437D01*
X137984375Y-125723486D01*
X137980244Y-123439122D01*
X137966050Y-121627236D01*
X137939089Y-120231191D01*
X137896655Y-119194348D01*
X137836045Y-118460069D01*
X137754554Y-117971719D01*
X137649479Y-117672657D01*
X137595914Y-117587548D01*
X137486184Y-117489863D01*
X137398834Y-117551750D01*
X137331294Y-117822603D01*
X137280992Y-118351816D01*
X137245356Y-119188782D01*
X137221814Y-120382896D01*
X137207794Y-121983552D01*
X137200725Y-124040143D01*
X137199039Y-125209895D01*
X136625887Y-125209895D01*
X136624738Y-125036964D01*
X136607003Y-122913747D01*
X136584184Y-120884831D01*
X136557644Y-119031739D01*
X136528747Y-117435994D01*
X136514921Y-116854687D01*
X137984375Y-116854687D01*
X138143094Y-117166635D01*
X138422257Y-117516145D01*
X139115026Y-117922176D01*
X139987769Y-117944590D01*
X140840346Y-117585021D01*
X141223727Y-117204620D01*
X141280478Y-116923563D01*
X140974003Y-116802143D01*
X140341858Y-116720209D01*
X139555445Y-116681344D01*
X138786167Y-116689129D01*
X138205427Y-116747145D01*
X137984375Y-116854687D01*
X136514921Y-116854687D01*
X136498854Y-116179116D01*
X136485414Y-115798321D01*
X137719791Y-115798321D01*
X137965756Y-116004433D01*
X138712969Y-116147280D01*
X139638021Y-116216044D01*
X140602004Y-116267563D01*
X141349721Y-116317992D01*
X141732092Y-116357145D01*
X141744067Y-116359927D01*
X141929643Y-116167989D01*
X142163028Y-115624849D01*
X142232634Y-115408684D01*
X142466434Y-114253433D01*
X142353332Y-113483742D01*
X141888629Y-113081542D01*
X141611309Y-113020418D01*
X140813700Y-113119538D01*
X139896129Y-113510445D01*
X138995796Y-114095199D01*
X138249903Y-114775863D01*
X137795648Y-115454498D01*
X137719791Y-115798321D01*
X136485414Y-115798321D01*
X136469331Y-115342630D01*
X136459781Y-115170921D01*
X136351406Y-113532467D01*
X135666717Y-113792785D01*
X134607436Y-113948704D01*
X133636311Y-113621868D01*
X132809062Y-112857695D01*
X132181413Y-111701603D01*
X131898407Y-110721303D01*
X131779901Y-109712497D01*
X132304799Y-109712497D01*
X132446930Y-110564099D01*
X132741126Y-111522942D01*
X133156044Y-112379231D01*
X133610760Y-112996289D01*
X134024354Y-113237442D01*
X134029787Y-113237499D01*
X134154209Y-113113488D01*
X134973399Y-113113488D01*
X135147968Y-113228432D01*
X135336194Y-113237499D01*
X135855689Y-113035164D01*
X136249580Y-112649461D01*
X136587268Y-111840103D01*
X136628869Y-110957165D01*
X136435614Y-110380704D01*
X136141748Y-110227909D01*
X135795327Y-110566891D01*
X135420204Y-111365810D01*
X135196711Y-112034581D01*
X134994741Y-112759471D01*
X134973399Y-113113488D01*
X134154209Y-113113488D01*
X134256803Y-113011232D01*
X134441308Y-112509895D01*
X134646927Y-111830771D01*
X134972335Y-110941413D01*
X135144693Y-110515514D01*
X135445485Y-109767059D01*
X135539712Y-109342040D01*
X135430534Y-109078061D01*
X135176990Y-108856503D01*
X134064447Y-108120092D01*
X133208057Y-107845554D01*
X132620719Y-108024821D01*
X132315334Y-108649825D01*
X132304799Y-109712497D01*
X131779901Y-109712497D01*
X131723690Y-109233986D01*
X131880774Y-108150461D01*
X132343024Y-107487822D01*
X133083804Y-107263164D01*
X134076479Y-107493584D01*
X135294414Y-108196177D01*
X135544635Y-108381061D01*
X136459291Y-109078703D01*
X136289958Y-106329455D01*
X136162016Y-104252475D01*
X136058227Y-102643795D01*
X135967927Y-101443694D01*
X135880454Y-100592453D01*
X135785141Y-100030351D01*
X135671326Y-99697668D01*
X135644130Y-99666667D01*
X136450943Y-99666667D01*
X136454385Y-100393606D01*
X136498830Y-100931042D01*
X136653240Y-102822670D01*
X136787690Y-104955900D01*
X136895198Y-107169565D01*
X136968786Y-109302496D01*
X137001475Y-111193526D01*
X136994507Y-112377603D01*
X136998027Y-113697220D01*
X137067122Y-114598750D01*
X137193069Y-115056411D01*
X137367145Y-115044420D01*
X137580626Y-114536998D01*
X137646081Y-114303363D01*
X137711538Y-113720461D01*
X137732489Y-112744788D01*
X137714505Y-111510364D01*
X137663159Y-110151210D01*
X137584024Y-108801346D01*
X137482671Y-107594794D01*
X137412752Y-107044185D01*
X138066719Y-107044185D01*
X138109843Y-107141043D01*
X138697305Y-107639894D01*
X139514935Y-107784747D01*
X140396718Y-107572394D01*
X140978199Y-107196451D01*
X141306818Y-106867853D01*
X141229127Y-106694495D01*
X140978199Y-106584884D01*
X140204503Y-106395822D01*
X139394676Y-106372783D01*
X138680549Y-106490205D01*
X138193952Y-106722526D01*
X138066719Y-107044185D01*
X137412752Y-107044185D01*
X137364674Y-106665572D01*
X137318330Y-106420790D01*
X137295608Y-105452003D01*
X137745975Y-105452003D01*
X137878395Y-105755075D01*
X138475197Y-105909893D01*
X139564414Y-105960111D01*
X139876282Y-105961457D01*
X140959212Y-105947428D01*
X141629455Y-105888000D01*
X142003138Y-105757158D01*
X142196386Y-105528892D01*
X142238589Y-105432291D01*
X142425446Y-104662921D01*
X142461616Y-103838661D01*
X142356927Y-103144508D01*
X142121204Y-102765456D01*
X142096328Y-102754033D01*
X141420051Y-102735738D01*
X140524034Y-103035105D01*
X139554487Y-103587564D01*
X138762155Y-104226488D01*
X138049906Y-104957026D01*
X137745975Y-105452003D01*
X137295608Y-105452003D01*
X137293905Y-105379379D01*
X137456311Y-104768169D01*
X137613603Y-104132157D01*
X137670873Y-103174230D01*
X137631311Y-101810435D01*
X137592560Y-101183061D01*
X137504708Y-99947153D01*
X137427881Y-99161745D01*
X137338112Y-98749331D01*
X137211434Y-98632404D01*
X137023880Y-98733455D01*
X136875331Y-98863600D01*
X136581262Y-99211557D01*
X136450943Y-99666667D01*
X135644130Y-99666667D01*
X135528345Y-99534683D01*
X135345532Y-99481678D01*
X135112225Y-99478931D01*
X135066720Y-99479166D01*
X134081156Y-99232671D01*
X133257404Y-98537742D01*
X132636795Y-97461215D01*
X132260659Y-96069924D01*
X132163541Y-94784512D01*
X132181292Y-94583975D01*
X132681274Y-94583975D01*
X132729336Y-95517875D01*
X132921837Y-96523080D01*
X133240850Y-97459812D01*
X133668448Y-98188294D01*
X133697223Y-98222395D01*
X134217921Y-98626494D01*
X134627182Y-98598935D01*
X134693007Y-98442768D01*
X135338541Y-98442768D01*
X135440896Y-98874694D01*
X135768602Y-98862291D01*
X136326314Y-98429783D01*
X136800913Y-97866219D01*
X137044401Y-97406396D01*
X137070435Y-96900655D01*
X136952752Y-96270749D01*
X136750923Y-95734676D01*
X136526313Y-95510416D01*
X136329410Y-95735294D01*
X136044977Y-96297895D01*
X135741083Y-97030168D01*
X135485800Y-97764065D01*
X135347196Y-98331535D01*
X135338541Y-98442768D01*
X134693007Y-98442768D01*
X134815283Y-98152675D01*
X134817649Y-98090103D01*
X134936396Y-97520362D01*
X135231584Y-96707876D01*
X135471746Y-96175943D01*
X136117569Y-94857096D01*
X135397326Y-94260586D01*
X134447438Y-93653927D01*
X133565354Y-93420122D01*
X133090175Y-93489202D01*
X132795578Y-93861158D01*
X132681274Y-94583975D01*
X132181292Y-94583975D01*
X132255498Y-93745644D01*
X132578498Y-93141898D01*
X133203237Y-92904110D01*
X134047683Y-92941160D01*
X135133012Y-93086733D01*
X134949632Y-90792845D01*
X134832868Y-89590113D01*
X134691035Y-88482226D01*
X135351125Y-88482226D01*
X135360975Y-89149298D01*
X135452577Y-90198931D01*
X135598319Y-91517360D01*
X135777957Y-92771355D01*
X135996791Y-93620210D01*
X136291323Y-94187941D01*
X136435201Y-94360587D01*
X136861505Y-94755174D01*
X137113475Y-94879462D01*
X137121580Y-94873905D01*
X137138539Y-94583724D01*
X137101501Y-93882629D01*
X137018120Y-92885268D01*
X136931813Y-92030677D01*
X136766234Y-90535431D01*
X136630801Y-89483637D01*
X136503483Y-88792159D01*
X136362248Y-88377860D01*
X136185065Y-88157606D01*
X135949903Y-88048258D01*
X135870602Y-88026177D01*
X135600088Y-87995685D01*
X135428879Y-88122695D01*
X135351125Y-88482226D01*
X134691035Y-88482226D01*
X134687273Y-88452838D01*
X134540073Y-87587221D01*
X134506998Y-87440624D01*
X134374328Y-86670172D01*
X134370362Y-86633727D01*
X135073958Y-86633727D01*
X135309949Y-87100314D01*
X135904028Y-87445486D01*
X136580558Y-87564870D01*
X137161853Y-87401009D01*
X137821265Y-86989210D01*
X137903475Y-86919819D01*
X138645833Y-86266721D01*
X136859896Y-86258360D01*
X135867433Y-86279854D01*
X135308128Y-86369094D01*
X135088152Y-86545802D01*
X135073958Y-86633727D01*
X134370362Y-86633727D01*
X134267985Y-85692876D01*
X134582064Y-85692876D01*
X136697232Y-85679004D01*
X137753616Y-85662292D01*
X138402860Y-85605294D01*
X138766971Y-85472124D01*
X138967959Y-85226899D01*
X139072764Y-84980320D01*
X139232384Y-84229492D01*
X139255387Y-83370822D01*
X139254065Y-83354524D01*
X139145034Y-82714730D01*
X138866494Y-82432899D01*
X138381250Y-82346844D01*
X137601478Y-82491748D01*
X136690991Y-82958738D01*
X135812967Y-83629846D01*
X135130584Y-84387109D01*
X134861460Y-84891401D01*
X134582064Y-85692876D01*
X134267985Y-85692876D01*
X134255547Y-85578575D01*
X134172248Y-84373798D01*
X134160357Y-84102017D01*
X134081387Y-82546200D01*
X133970046Y-81447555D01*
X133806785Y-80734245D01*
X133685481Y-80527629D01*
X134382945Y-80527629D01*
X134434642Y-81156770D01*
X134581207Y-82340993D01*
X134709214Y-83071453D01*
X134845664Y-83421586D01*
X135017555Y-83464831D01*
X135223756Y-83303177D01*
X135429857Y-82990488D01*
X135476813Y-82525845D01*
X135371136Y-81755853D01*
X135304117Y-81409802D01*
X135059901Y-80488562D01*
X134791680Y-79978141D01*
X134645618Y-79899999D01*
X134435544Y-80040808D01*
X134382945Y-80527629D01*
X133685481Y-80527629D01*
X133572055Y-80334431D01*
X133246307Y-80176275D01*
X133088861Y-80164582D01*
X132248213Y-79917130D01*
X131461620Y-79243124D01*
X130792706Y-78245091D01*
X130305098Y-77025556D01*
X130062423Y-75687046D01*
X130046875Y-75262776D01*
X130089460Y-75050730D01*
X130641353Y-75050730D01*
X130660626Y-76064170D01*
X130979883Y-77273911D01*
X131384167Y-78178271D01*
X131851015Y-78873571D01*
X132309726Y-79304368D01*
X132689605Y-79415224D01*
X132919952Y-79150697D01*
X132928000Y-79080408D01*
X133491435Y-79080408D01*
X133592101Y-79514144D01*
X133922727Y-79563882D01*
X134469519Y-79179669D01*
X134544791Y-79106249D01*
X134938868Y-78397973D01*
X135069914Y-77485731D01*
X134909853Y-76639704D01*
X134819049Y-76467010D01*
X134622277Y-76333021D01*
X134378680Y-76582237D01*
X134035162Y-77260760D01*
X133634523Y-78312629D01*
X133491435Y-79080408D01*
X132928000Y-79080408D01*
X132957291Y-78824569D01*
X133059239Y-78278808D01*
X133320436Y-77473595D01*
X133535646Y-76933884D01*
X134114001Y-75589462D01*
X133352980Y-74982645D01*
X132326591Y-74334397D01*
X131509249Y-74152134D01*
X130935865Y-74402149D01*
X130641353Y-75050730D01*
X130089460Y-75050730D01*
X130230085Y-74350511D01*
X130734918Y-73803440D01*
X131494177Y-73627818D01*
X132440664Y-73829902D01*
G37*
G36*
X128922396Y-139513448D02*
G01*
X129004741Y-139590137D01*
X128638890Y-139631890D01*
X128459375Y-139634448D01*
X127978014Y-139606864D01*
X127921284Y-139538184D01*
X127996354Y-139513448D01*
X128667398Y-139472301D01*
X128922396Y-139513448D01*
G37*
D11*
%TO.C,U1*%
X139770000Y-145635000D02*
X139440000Y-145395000D01*
X139770000Y-145155000D01*
X139770000Y-145635000D01*
G36*
X139770000Y-145635000D02*
G01*
X139440000Y-145395000D01*
X139770000Y-145155000D01*
X139770000Y-145635000D01*
G37*
X139535000Y-148095000D02*
X139535000Y-150045000D01*
X139535000Y-148095000D02*
X139535000Y-146145000D01*
X134415000Y-148095000D02*
X134415000Y-150045000D01*
X134415000Y-148095000D02*
X134415000Y-146145000D01*
%TO.C,D9*%
X129656464Y-104695937D02*
X127882616Y-103961185D01*
X128561990Y-107338232D02*
X129656464Y-104695937D01*
X127882616Y-103961185D02*
X126788141Y-106603481D01*
%TO.C,D10*%
X135010000Y-97360000D02*
X135010000Y-94500000D01*
X133090000Y-97360000D02*
X135010000Y-97360000D01*
X133090000Y-94500000D02*
X133090000Y-97360000D01*
%TO.C,D16*%
X116550000Y-98090000D02*
X113690000Y-98090000D01*
X113690000Y-100010000D02*
X116550000Y-100010000D01*
X113690000Y-98090000D02*
X113690000Y-100010000D01*
%TO.C,D14*%
X147310000Y-104700000D02*
X147310000Y-101840000D01*
X147310000Y-101840000D02*
X145390000Y-101840000D01*
X145390000Y-101840000D02*
X145390000Y-104700000D01*
%TO.C,D11*%
X123825000Y-115690000D02*
X120965000Y-115690000D01*
X120965000Y-117610000D02*
X123825000Y-117610000D01*
X120965000Y-115690000D02*
X120965000Y-117610000D01*
%TO.C,D6*%
X139344041Y-83463604D02*
X137986396Y-82105959D01*
X137986396Y-82105959D02*
X135964071Y-84128284D01*
X137321716Y-85485929D02*
X139344041Y-83463604D01*
%TO.C,D7*%
X158010000Y-99760000D02*
X158010000Y-97840000D01*
X158010000Y-97840000D02*
X155150000Y-97840000D01*
X155150000Y-99760000D02*
X158010000Y-99760000D01*
%TO.C,D12*%
X134760000Y-111250000D02*
X134760000Y-108390000D01*
X134760000Y-108390000D02*
X132840000Y-108390000D01*
X132840000Y-108390000D02*
X132840000Y-111250000D01*
%TO.C,D5*%
X142519257Y-103888388D02*
X141161612Y-102530743D01*
X141161612Y-102530743D02*
X139139287Y-104553068D01*
X140496932Y-105910713D02*
X142519257Y-103888388D01*
%TO.C,D15*%
X159278284Y-85964071D02*
X157255959Y-87986396D01*
X158613604Y-89344041D02*
X160635929Y-87321716D01*
X157255959Y-87986396D02*
X158613604Y-89344041D01*
%TO.C,D8*%
X142769257Y-114038388D02*
X141411612Y-112680743D01*
X141411612Y-112680743D02*
X139389287Y-114703068D01*
X140746932Y-116060713D02*
X142769257Y-114038388D01*
%TO.C,D17*%
X126600000Y-126190000D02*
X123740000Y-126190000D01*
X123740000Y-128110000D02*
X126600000Y-128110000D01*
X123740000Y-126190000D02*
X123740000Y-128110000D01*
%TD*%
M02*
