%TF.GenerationSoftware,KiCad,Pcbnew,9.0.3*%
%TF.CreationDate,2026-05-17T22:53:08+02:00*%
%TF.ProjectId,palemka,70616c65-6d6b-4612-9e6b-696361645f70,rev?*%
%TF.SameCoordinates,Original*%
%TF.FileFunction,Soldermask,Bot*%
%TF.FilePolarity,Negative*%
%FSLAX46Y46*%
G04 Gerber Fmt 4.6, Leading zero omitted, Abs format (unit mm)*
G04 Created by KiCad (PCBNEW 9.0.3) date 2026-05-17 22:53:08*
%MOMM*%
%LPD*%
G01*
G04 APERTURE LIST*
G04 Aperture macros list*
%AMRoundRect*
0 Rectangle with rounded corners*
0 $1 Rounding radius*
0 $2 $3 $4 $5 $6 $7 $8 $9 X,Y pos of 4 corners*
0 Add a 4 corners polygon primitive as box body*
4,1,4,$2,$3,$4,$5,$6,$7,$8,$9,$2,$3,0*
0 Add four circle primitives for the rounded corners*
1,1,$1+$1,$2,$3*
1,1,$1+$1,$4,$5*
1,1,$1+$1,$6,$7*
1,1,$1+$1,$8,$9*
0 Add four rect primitives between the rounded corners*
20,1,$1+$1,$2,$3,$4,$5,0*
20,1,$1+$1,$4,$5,$6,$7,0*
20,1,$1+$1,$6,$7,$8,$9,0*
20,1,$1+$1,$8,$9,$2,$3,0*%
G04 Aperture macros list end*
%ADD10RoundRect,0.250000X0.625000X-0.400000X0.625000X0.400000X-0.625000X0.400000X-0.625000X-0.400000X0*%
%ADD11C,3.200000*%
%ADD12RoundRect,0.250000X-0.450000X0.350000X-0.450000X-0.350000X0.450000X-0.350000X0.450000X0.350000X0*%
%ADD13RoundRect,0.250000X0.450000X-0.350000X0.450000X0.350000X-0.450000X0.350000X-0.450000X-0.350000X0*%
%ADD14RoundRect,0.250000X0.475000X-0.337500X0.475000X0.337500X-0.475000X0.337500X-0.475000X-0.337500X0*%
%ADD15RoundRect,0.250000X-0.475000X0.337500X-0.475000X-0.337500X0.475000X-0.337500X0.475000X0.337500X0*%
%ADD16RoundRect,0.250000X0.650000X-1.000000X0.650000X1.000000X-0.650000X1.000000X-0.650000X-1.000000X0*%
%ADD17C,1.700000*%
%ADD18R,1.700000X1.700000*%
%ADD19RoundRect,0.250000X0.350000X0.450000X-0.350000X0.450000X-0.350000X-0.450000X0.350000X-0.450000X0*%
%ADD20O,1.700000X1.100000*%
%ADD21R,1.200000X0.800000*%
%ADD22R,1.200000X0.760000*%
%ADD23R,1.200000X0.700000*%
%ADD24RoundRect,0.250000X-0.650000X1.000000X-0.650000X-1.000000X0.650000X-1.000000X0.650000X1.000000X0*%
%ADD25RoundRect,0.500000X1.400000X-0.500000X1.400000X0.500000X-1.400000X0.500000X-1.400000X-0.500000X0*%
%ADD26RoundRect,0.375000X0.375000X-0.625000X0.375000X0.625000X-0.375000X0.625000X-0.375000X-0.625000X0*%
G04 APERTURE END LIST*
D10*
%TO.C,TH1*%
X157289965Y-139572508D03*
X157289965Y-136472508D03*
%TD*%
D11*
%TO.C,H1*%
X110000000Y-75000000D03*
%TD*%
%TO.C,H4*%
X110000000Y-157000000D03*
%TD*%
%TO.C,H3*%
X162000000Y-157000000D03*
%TD*%
%TO.C,H2*%
X162000000Y-75000000D03*
%TD*%
D12*
%TO.C,R17*%
X115812933Y-103374826D03*
X115812933Y-101374826D03*
%TD*%
D13*
%TO.C,R8*%
X136169337Y-88135773D03*
X136169337Y-90135773D03*
%TD*%
%TO.C,R11*%
X127943673Y-110159943D03*
X127943673Y-112159943D03*
%TD*%
D14*
%TO.C,C8*%
X131792196Y-148590373D03*
X131792196Y-150665373D03*
%TD*%
D13*
%TO.C,R6*%
X132947843Y-122719747D03*
X132947845Y-124719747D03*
%TD*%
D15*
%TO.C,C13*%
X124037500Y-142650000D03*
X124037500Y-140575000D03*
%TD*%
%TO.C,C2*%
X129646342Y-154787500D03*
X129646342Y-152712500D03*
%TD*%
D12*
%TO.C,R14*%
X133703750Y-81949920D03*
X133703750Y-79949920D03*
%TD*%
D14*
%TO.C,C23*%
X135600000Y-106312500D03*
X135600000Y-108387500D03*
%TD*%
D13*
%TO.C,R5*%
X115268263Y-91500000D03*
X115268263Y-93500000D03*
%TD*%
%TO.C,R9*%
X154020862Y-101196108D03*
X154020862Y-103196108D03*
%TD*%
%TO.C,R1*%
X138609782Y-140641879D03*
X138609782Y-142641879D03*
%TD*%
D14*
%TO.C,C25*%
X148500000Y-100025000D03*
X148500000Y-102100000D03*
%TD*%
D15*
%TO.C,C1*%
X131795123Y-154787500D03*
X131795123Y-152712500D03*
%TD*%
D16*
%TO.C,D2*%
X153901952Y-137090800D03*
X153901952Y-141090800D03*
%TD*%
D15*
%TO.C,C17*%
X141600000Y-110500000D03*
X141600000Y-108425000D03*
%TD*%
D17*
%TO.C,J1*%
X162500000Y-146235000D03*
D18*
X162500000Y-148775000D03*
%TD*%
D19*
%TO.C,R4*%
X155550000Y-134500000D03*
X157550000Y-134500000D03*
%TD*%
D15*
%TO.C,C30*%
X125050000Y-114237500D03*
X125050000Y-112162500D03*
%TD*%
D13*
%TO.C,R2*%
X136374132Y-140645341D03*
X136374132Y-142645341D03*
%TD*%
D14*
%TO.C,C20*%
X142100000Y-118500000D03*
X142100000Y-120575000D03*
%TD*%
D15*
%TO.C,C37*%
X140550000Y-99337500D03*
X140550000Y-97262500D03*
%TD*%
%TO.C,C28*%
X128300000Y-131137500D03*
X128300000Y-129062500D03*
%TD*%
%TO.C,C3*%
X127497562Y-154787500D03*
X127497562Y-152712500D03*
%TD*%
D12*
%TO.C,R10*%
X139436719Y-120544857D03*
X139436719Y-118544857D03*
%TD*%
D15*
%TO.C,C34*%
X160900000Y-91237500D03*
X160900000Y-89162500D03*
%TD*%
D12*
%TO.C,R12*%
X123000000Y-121000000D03*
X123000000Y-119000000D03*
%TD*%
D15*
%TO.C,C14*%
X121100000Y-142650000D03*
X121100000Y-140575000D03*
%TD*%
D12*
%TO.C,R13*%
X135198191Y-115562586D03*
X135198191Y-113562586D03*
%TD*%
D15*
%TO.C,C12*%
X126975000Y-142650000D03*
X126975000Y-140575000D03*
%TD*%
%TO.C,C19*%
X156350000Y-103237500D03*
X156350000Y-101162500D03*
%TD*%
D14*
%TO.C,C21*%
X127950000Y-105412500D03*
X127950000Y-107487500D03*
%TD*%
D13*
%TO.C,R7*%
X139424899Y-108438801D03*
X139424899Y-110438801D03*
%TD*%
D14*
%TO.C,C31*%
X131800000Y-110562500D03*
X131800000Y-112637500D03*
%TD*%
D12*
%TO.C,R18*%
X125672113Y-131093880D03*
X125672113Y-129093880D03*
%TD*%
D20*
%TO.C,J2*%
X164300000Y-139640000D03*
X160500000Y-139640000D03*
X160500000Y-131000000D03*
X164300000Y-131000000D03*
D21*
X160420000Y-132570000D03*
D22*
X160420000Y-133800000D03*
D23*
X160420000Y-135820000D03*
D21*
X160420000Y-138070000D03*
D22*
X160420000Y-136840000D03*
D23*
X160420000Y-134820000D03*
%TD*%
D12*
%TO.C,R19*%
X135642208Y-101265993D03*
X135642208Y-99265993D03*
%TD*%
D15*
%TO.C,C7*%
X157345512Y-148537500D03*
X157345512Y-146462500D03*
%TD*%
D14*
%TO.C,C33*%
X143950000Y-104062500D03*
X143950000Y-106137500D03*
%TD*%
D15*
%TO.C,C5*%
X123200000Y-154787500D03*
X123200000Y-152712500D03*
%TD*%
D14*
%TO.C,C9*%
X140924899Y-148579324D03*
X140924899Y-150654324D03*
%TD*%
D15*
%TO.C,C24*%
X136500000Y-81987500D03*
X136500000Y-79912500D03*
%TD*%
%TO.C,C18*%
X133850000Y-90187500D03*
X133850000Y-88112500D03*
%TD*%
%TO.C,C27*%
X113350000Y-103437500D03*
X113350000Y-101362500D03*
%TD*%
D19*
%TO.C,R3*%
X155551389Y-132347981D03*
X157551389Y-132347981D03*
%TD*%
D24*
%TO.C,D1*%
X153901952Y-150000000D03*
X153901952Y-146000000D03*
%TD*%
D12*
%TO.C,R15*%
X148500000Y-106104311D03*
X148500000Y-104104311D03*
%TD*%
%TO.C,R16*%
X158168286Y-93275393D03*
X158168286Y-91275393D03*
%TD*%
D25*
%TO.C,Q2*%
X134650000Y-131350000D03*
D26*
X132350000Y-137650000D03*
X136950000Y-137650000D03*
X134650000Y-137650000D03*
%TD*%
D15*
%TO.C,C32*%
X128750000Y-78637500D03*
X128750000Y-76562500D03*
%TD*%
D14*
%TO.C,C16*%
X130050000Y-121262500D03*
X130050000Y-123337500D03*
%TD*%
D25*
%TO.C,Q1*%
X142300000Y-131350000D03*
D26*
X140000000Y-137650000D03*
X144600000Y-137650000D03*
X142300000Y-137650000D03*
%TD*%
D15*
%TO.C,C11*%
X129912500Y-142650000D03*
X129912500Y-140575000D03*
%TD*%
D14*
%TO.C,C6*%
X159500000Y-146462500D03*
X159500000Y-148537500D03*
%TD*%
%TO.C,C26*%
X155600000Y-89175000D03*
X155600000Y-91250000D03*
%TD*%
D15*
%TO.C,C10*%
X132850000Y-142700000D03*
X132850000Y-140625000D03*
%TD*%
%TO.C,C4*%
X125348781Y-154787500D03*
X125348781Y-152712500D03*
%TD*%
%TO.C,C15*%
X112450000Y-93537500D03*
X112450000Y-91462500D03*
%TD*%
%TO.C,C35*%
X119850000Y-103387500D03*
X119850000Y-101312500D03*
%TD*%
%TO.C,C36*%
X139650000Y-128737500D03*
X139650000Y-126662500D03*
%TD*%
D14*
%TO.C,C22*%
X120450000Y-116762500D03*
X120450000Y-118837500D03*
%TD*%
D15*
%TO.C,C29*%
X133150000Y-101337500D03*
X133150000Y-99262500D03*
%TD*%
M02*
