%TF.GenerationSoftware,KiCad,Pcbnew,9.0.3*%
%TF.CreationDate,2026-05-17T22:53:08+02:00*%
%TF.ProjectId,palemka,70616c65-6d6b-4612-9e6b-696361645f70,rev?*%
%TF.SameCoordinates,Original*%
%TF.FileFunction,Copper,L1,Top*%
%TF.FilePolarity,Positive*%
%FSLAX46Y46*%
G04 Gerber Fmt 4.6, Leading zero omitted, Abs format (unit mm)*
G04 Created by KiCad (PCBNEW 9.0.3) date 2026-05-17 22:53:08*
%MOMM*%
%LPD*%
G01*
G04 APERTURE LIST*
G04 Aperture macros list*
%AMRoundRect*
0 Rectangle with rounded corners*
0 $1 Rounding radius*
0 $2 $3 $4 $5 $6 $7 $8 $9 X,Y pos of 4 corners*
0 Add a 4 corners polygon primitive as box body*
4,1,4,$2,$3,$4,$5,$6,$7,$8,$9,$2,$3,0*
0 Add four circle primitives for the rounded corners*
1,1,$1+$1,$2,$3*
1,1,$1+$1,$4,$5*
1,1,$1+$1,$6,$7*
1,1,$1+$1,$8,$9*
0 Add four rect primitives between the rounded corners*
20,1,$1+$1,$2,$3,$4,$5,0*
20,1,$1+$1,$4,$5,$6,$7,0*
20,1,$1+$1,$6,$7,$8,$9,0*
20,1,$1+$1,$8,$9,$2,$3,0*%
G04 Aperture macros list end*
%TA.AperFunction,SMDPad,CuDef*%
%ADD10RoundRect,0.250000X-0.548008X-0.088388X-0.088388X-0.548008X0.548008X0.088388X0.088388X0.548008X0*%
%TD*%
%TA.AperFunction,SMDPad,CuDef*%
%ADD11RoundRect,0.250000X0.450000X-0.325000X0.450000X0.325000X-0.450000X0.325000X-0.450000X-0.325000X0*%
%TD*%
%TA.AperFunction,SMDPad,CuDef*%
%ADD12RoundRect,0.250000X-0.291374X0.472468X-0.540118X-0.128053X0.291374X-0.472468X0.540118X0.128053X0*%
%TD*%
%TA.AperFunction,SMDPad,CuDef*%
%ADD13RoundRect,0.150000X-0.150000X0.825000X-0.150000X-0.825000X0.150000X-0.825000X0.150000X0.825000X0*%
%TD*%
%TA.AperFunction,SMDPad,CuDef*%
%ADD14RoundRect,0.250000X-0.325000X-0.450000X0.325000X-0.450000X0.325000X0.450000X-0.325000X0.450000X0*%
%TD*%
%TA.AperFunction,SMDPad,CuDef*%
%ADD15RoundRect,0.250000X-0.450000X0.325000X-0.450000X-0.325000X0.450000X-0.325000X0.450000X0.325000X0*%
%TD*%
%TA.AperFunction,SMDPad,CuDef*%
%ADD16RoundRect,0.250000X-0.088388X0.548008X-0.548008X0.088388X0.088388X-0.548008X0.548008X-0.088388X0*%
%TD*%
%TA.AperFunction,SMDPad,CuDef*%
%ADD17RoundRect,0.250000X0.325000X0.450000X-0.325000X0.450000X-0.325000X-0.450000X0.325000X-0.450000X0*%
%TD*%
%TA.AperFunction,SMDPad,CuDef*%
%ADD18RoundRect,0.250000X0.088388X-0.548008X0.548008X-0.088388X-0.088388X0.548008X-0.548008X0.088388X0*%
%TD*%
%TA.AperFunction,ComponentPad*%
%ADD19C,1.700000*%
%TD*%
%TA.AperFunction,ComponentPad*%
%ADD20R,1.700000X1.700000*%
%TD*%
%TA.AperFunction,ComponentPad*%
%ADD21O,1.700000X1.100000*%
%TD*%
%TA.AperFunction,ViaPad*%
%ADD22C,0.600000*%
%TD*%
%TA.AperFunction,Conductor*%
%ADD23C,0.400000*%
%TD*%
G04 APERTURE END LIST*
D10*
%TO.P,D3,2,A*%
%TO.N,Net-(D3-A)*%
X114699568Y-88299568D03*
%TO.P,D3,1,K*%
%TO.N,GND*%
X113250000Y-86850000D03*
%TD*%
D11*
%TO.P,D13,2,A*%
%TO.N,+5V*%
X132200000Y-75325001D03*
%TO.P,D13,1,K*%
%TO.N,Net-(D13-K)*%
X132200000Y-77374999D03*
%TD*%
D12*
%TO.P,D4,2,A*%
%TO.N,Net-(D4-A)*%
X132707749Y-119396977D03*
%TO.P,D4,1,K*%
%TO.N,GND*%
X133492251Y-117503023D03*
%TD*%
D13*
%TO.P,U1,8,VCC*%
%TO.N,+5V*%
X138880000Y-150570000D03*
%TO.P,U1,7,DIS*%
%TO.N,dis*%
X137610000Y-150570000D03*
%TO.P,U1,6,THR*%
%TO.N,Net-(U1-THR)*%
X136340000Y-150570000D03*
%TO.P,U1,5,CV*%
%TO.N,Net-(U1-CV)*%
X135070000Y-150570000D03*
%TO.P,U1,4,R*%
%TO.N,+5V*%
X135070000Y-145620000D03*
%TO.P,U1,3,Q*%
%TO.N,Net-(U1-Q)*%
X136340000Y-145620000D03*
%TO.P,U1,2,TR*%
%TO.N,Net-(U1-THR)*%
X137610000Y-145620000D03*
%TO.P,U1,1,GND*%
%TO.N,GND*%
X138880000Y-145620000D03*
%TD*%
D12*
%TO.P,D9,2,A*%
%TO.N,Net-(D9-A)*%
X127665498Y-106993954D03*
%TO.P,D9,1,K*%
%TO.N,GND*%
X128450000Y-105100000D03*
%TD*%
D11*
%TO.P,D10,2,A*%
%TO.N,+5V*%
X134050000Y-94475001D03*
%TO.P,D10,1,K*%
%TO.N,Net-(D10-K)*%
X134050000Y-96524999D03*
%TD*%
D14*
%TO.P,D16,2,A*%
%TO.N,+5V*%
X116574999Y-99050000D03*
%TO.P,D16,1,K*%
%TO.N,Net-(D16-K)*%
X114525001Y-99050000D03*
%TD*%
D15*
%TO.P,D14,2,A*%
%TO.N,+5V*%
X146350000Y-104725000D03*
%TO.P,D14,1,K*%
%TO.N,Net-(D14-K)*%
X146350000Y-102675000D03*
%TD*%
D14*
%TO.P,D11,2,A*%
%TO.N,+5V*%
X123850000Y-116650000D03*
%TO.P,D11,1,K*%
%TO.N,Net-(D11-K)*%
X121800000Y-116650000D03*
%TD*%
D16*
%TO.P,D6,2,A*%
%TO.N,Net-(D6-A)*%
X136625216Y-84824784D03*
%TO.P,D6,1,K*%
%TO.N,GND*%
X138074784Y-83375216D03*
%TD*%
D17*
%TO.P,D7,2,A*%
%TO.N,Net-(D7-A)*%
X155125000Y-98800000D03*
%TO.P,D7,1,K*%
%TO.N,GND*%
X157175000Y-98800000D03*
%TD*%
D15*
%TO.P,D12,2,A*%
%TO.N,+5V*%
X133800000Y-111274999D03*
%TO.P,D12,1,K*%
%TO.N,Net-(D12-K)*%
X133800000Y-109225001D03*
%TD*%
D16*
%TO.P,D5,2,A*%
%TO.N,Net-(D5-A)*%
X139800432Y-105249568D03*
%TO.P,D5,1,K*%
%TO.N,GND*%
X141250000Y-103800000D03*
%TD*%
D18*
%TO.P,D15,2,A*%
%TO.N,+5V*%
X159974784Y-86625216D03*
%TO.P,D15,1,K*%
%TO.N,Net-(D15-K)*%
X158525216Y-88074784D03*
%TD*%
D16*
%TO.P,D8,2,A*%
%TO.N,Net-(D8-A)*%
X140050432Y-115399568D03*
%TO.P,D8,1,K*%
%TO.N,GND*%
X141500000Y-113950000D03*
%TD*%
D14*
%TO.P,D17,2,A*%
%TO.N,+5V*%
X126625000Y-127150000D03*
%TO.P,D17,1,K*%
%TO.N,Net-(D17-K)*%
X124575000Y-127150000D03*
%TD*%
D19*
%TO.P,J1,2,Pin_2*%
%TO.N,Net-(D1-A)*%
X162500000Y-146235000D03*
D20*
%TO.P,J1,1,Pin_1*%
%TO.N,GND*%
X162500000Y-148775000D03*
%TD*%
D21*
%TO.P,J2,S1,SHIELD*%
%TO.N,GND*%
X164300000Y-139640000D03*
X160500000Y-139640000D03*
X160500000Y-131000000D03*
X164300000Y-131000000D03*
%TD*%
D22*
%TO.N,GND*%
X131480000Y-108640000D03*
%TO.N,Net-(U1-CV)*%
X133334627Y-150665373D03*
%TO.N,+5V*%
X135500000Y-147500000D03*
X142300000Y-135150000D03*
X138692993Y-95542993D03*
X145184023Y-107334023D03*
X139700000Y-150800000D03*
X126250000Y-116868522D03*
X132852946Y-113652946D03*
X138000000Y-148500000D03*
X136050000Y-126650000D03*
X119350000Y-99750000D03*
X160900000Y-88000000D03*
X130800000Y-76425001D03*
%TO.N,Net-(D3-A)*%
X114000000Y-90000000D03*
%TO.N,Net-(D4-A)*%
X132000000Y-121600000D03*
%TO.N,Net-(D5-A)*%
X140000000Y-107300000D03*
%TO.N,Net-(D6-A)*%
X136500000Y-87000000D03*
%TO.N,Net-(D7-A)*%
X154050000Y-100200000D03*
%TO.N,555_out*%
X141250000Y-139300000D03*
X145400000Y-139300000D03*
%TO.N,Net-(U1-THR)*%
X136350000Y-152250000D03*
X138450000Y-144000000D03*
%TO.N,Net-(D8-A)*%
X140650000Y-119550000D03*
%TO.N,Net-(D9-A)*%
X127900000Y-109000000D03*
%TO.N,Net-(D10-K)*%
X134288700Y-97912485D03*
%TO.N,Net-(D11-K)*%
X122800000Y-117600000D03*
%TO.N,Net-(D12-K)*%
X135591014Y-109791014D03*
%TO.N,Net-(D13-K)*%
X134576835Y-78076835D03*
%TO.N,Net-(D14-K)*%
X147450000Y-103400000D03*
%TO.N,Net-(D15-K)*%
X157400000Y-90050000D03*
%TO.N,Net-(D16-K)*%
X114814294Y-100314294D03*
%TO.N,Net-(Q1-E)*%
X128000000Y-118500000D03*
X137500000Y-110500000D03*
X128000000Y-122500000D03*
%TO.N,Net-(U1-Q)*%
X136350000Y-144000000D03*
%TO.N,Net-(D17-K)*%
X124450000Y-128450000D03*
%TO.N,GND*%
X164500000Y-149280000D03*
X164500000Y-136580000D03*
X164500000Y-128960000D03*
X164500000Y-113720000D03*
X164500000Y-90860000D03*
X164500000Y-73080000D03*
X161960000Y-144200000D03*
X161960000Y-123880000D03*
X161960000Y-108640000D03*
X161960000Y-85780000D03*
X161960000Y-78160000D03*
X159420000Y-151820000D03*
X159420000Y-103560000D03*
X159420000Y-95940000D03*
X156880000Y-159440000D03*
X156880000Y-141660000D03*
X156880000Y-126420000D03*
X156880000Y-113720000D03*
X156880000Y-75620000D03*
X154340000Y-154360000D03*
X154340000Y-121340000D03*
X154340000Y-108640000D03*
X151800000Y-131500000D03*
X151800000Y-116260000D03*
X151800000Y-103560000D03*
X151800000Y-93400000D03*
X151800000Y-80700000D03*
X151800000Y-73080000D03*
X149260000Y-149280000D03*
X149260000Y-136580000D03*
X149260000Y-126420000D03*
X149260000Y-88320000D03*
X146720000Y-144200000D03*
X146720000Y-75620000D03*
X144180000Y-159440000D03*
X144180000Y-134040000D03*
X144180000Y-116260000D03*
X144180000Y-93400000D03*
X141640000Y-141660000D03*
X141640000Y-128960000D03*
X141640000Y-106100000D03*
X141640000Y-80700000D03*
X164500000Y-98480000D03*
X139100000Y-156900000D03*
X139100000Y-123880000D03*
X139100000Y-101020000D03*
X136560000Y-118800000D03*
X136560000Y-75620000D03*
X134020000Y-134040000D03*
X131480000Y-159440000D03*
X131480000Y-144200000D03*
X159420000Y-118800000D03*
X131480000Y-128960000D03*
X131480000Y-88320000D03*
X128940000Y-95940000D03*
X128940000Y-83240000D03*
X126400000Y-149280000D03*
X126400000Y-139120000D03*
X126400000Y-118800000D03*
X126400000Y-78160000D03*
X123860000Y-144200000D03*
X123860000Y-134040000D03*
X123860000Y-101020000D03*
X156880000Y-83240000D03*
X123860000Y-85780000D03*
X123860000Y-73080000D03*
X121320000Y-159440000D03*
X121320000Y-151820000D03*
X121320000Y-106100000D03*
X149260000Y-111180000D03*
X121320000Y-95940000D03*
X121320000Y-80700000D03*
X118780000Y-146740000D03*
X139100000Y-85780000D03*
X131480000Y-73080000D03*
X118780000Y-139120000D03*
X118780000Y-131500000D03*
X146720000Y-121340000D03*
X126400000Y-90860000D03*
X118780000Y-123880000D03*
X118780000Y-90860000D03*
X164500000Y-156900000D03*
X118780000Y-75620000D03*
X116240000Y-156900000D03*
X116240000Y-85780000D03*
X113700000Y-151820000D03*
X126400000Y-156900000D03*
X113700000Y-144200000D03*
X113700000Y-136580000D03*
X146720000Y-98480000D03*
X113700000Y-128960000D03*
X134020000Y-154360000D03*
X113700000Y-121340000D03*
X113700000Y-113720000D03*
X113700000Y-106100000D03*
X113700000Y-95940000D03*
X113700000Y-80700000D03*
X128940000Y-103560000D03*
X113700000Y-73080000D03*
X111160000Y-159440000D03*
X108620000Y-154360000D03*
X108620000Y-146740000D03*
X146720000Y-83240000D03*
X108620000Y-139120000D03*
X149260000Y-156900000D03*
X108620000Y-123880000D03*
X108620000Y-101020000D03*
X108620000Y-108640000D03*
X108620000Y-85780000D03*
X108620000Y-131500000D03*
X108620000Y-78160000D03*
X108620000Y-93400000D03*
X141640000Y-73080000D03*
X108620000Y-116260000D03*
X144180000Y-151820000D03*
%TD*%
D23*
%TO.N,Net-(U1-CV)*%
X133430000Y-150570000D02*
X135070000Y-150570000D01*
X133334627Y-150665373D02*
X133430000Y-150570000D01*
%TO.N,+5V*%
X138692993Y-95542993D02*
X147610770Y-86625216D01*
X147610770Y-86625216D02*
X159974784Y-86625216D01*
X123850000Y-116650000D02*
X116574999Y-109374999D01*
X134050000Y-94475001D02*
X135675001Y-94475001D01*
X145184023Y-107334023D02*
X143118045Y-109400000D01*
X160900000Y-88000000D02*
X159974784Y-87074784D01*
X126576136Y-127101136D02*
X125039886Y-125564886D01*
X139470000Y-150570000D02*
X138880000Y-150570000D01*
X135700000Y-94500000D02*
X135700000Y-88430801D01*
X135675001Y-94475001D02*
X135700000Y-94500000D01*
X143118045Y-109400000D02*
X137105893Y-109400000D01*
X135598864Y-127101136D02*
X126576136Y-127101136D01*
X135070000Y-145620000D02*
X135070000Y-147070000D01*
X131900000Y-75325001D02*
X132200000Y-75325001D01*
X136050000Y-126650000D02*
X135598864Y-127101136D01*
X132200000Y-79250000D02*
X130800000Y-77850000D01*
X135700000Y-88430801D02*
X132200000Y-84930801D01*
X130800000Y-76425001D02*
X131900000Y-75325001D01*
X138880000Y-149380000D02*
X138880000Y-150570000D01*
X159974784Y-87074784D02*
X159974784Y-86625216D01*
X139700000Y-150800000D02*
X139470000Y-150570000D01*
X116574999Y-99050000D02*
X118650000Y-99050000D01*
X135265311Y-111240582D02*
X137105893Y-109400000D01*
X125039886Y-116868522D02*
X129637371Y-116868522D01*
X132200000Y-84930801D02*
X132200000Y-79250000D01*
X137105893Y-98341879D02*
X136500000Y-97735986D01*
X146350000Y-106168046D02*
X145184023Y-107334023D01*
X133834417Y-111240582D02*
X135265311Y-111240582D01*
X142350000Y-133852272D02*
X135598864Y-127101136D01*
X136500000Y-97735986D02*
X138692993Y-95542993D01*
X130800000Y-77850000D02*
X130800000Y-76425001D01*
X124068522Y-116868522D02*
X123850000Y-116650000D01*
X125039886Y-116868522D02*
X124068522Y-116868522D01*
X135700000Y-96935986D02*
X135700000Y-94500000D01*
X118650000Y-99050000D02*
X119350000Y-99750000D01*
X142350000Y-135100000D02*
X142350000Y-133852272D01*
X136500000Y-97735986D02*
X135700000Y-96935986D01*
X146350000Y-104725000D02*
X146350000Y-106168046D01*
X132852946Y-112222053D02*
X133834417Y-111240582D01*
X135070000Y-147070000D02*
X135500000Y-147500000D01*
X129637371Y-116868522D02*
X132852946Y-113652946D01*
X138000000Y-148500000D02*
X138880000Y-149380000D01*
X137105893Y-109400000D02*
X137105893Y-98341879D01*
X116574999Y-109374999D02*
X116574999Y-99050000D01*
X125039886Y-125564886D02*
X125039886Y-116868522D01*
X132852946Y-113652946D02*
X132852946Y-112222053D01*
X142300000Y-135150000D02*
X142350000Y-135100000D01*
%TO.N,Net-(D3-A)*%
X114814738Y-89185262D02*
X114814738Y-88414738D01*
X114000000Y-90000000D02*
X114814738Y-89185262D01*
X114814738Y-88414738D02*
X114699568Y-88299568D01*
%TO.N,Net-(D4-A)*%
X132000000Y-121600000D02*
X132000000Y-120800000D01*
X132707749Y-120092251D02*
X132707749Y-119396977D01*
X132000000Y-120800000D02*
X132707749Y-120092251D01*
%TO.N,Net-(D5-A)*%
X139800432Y-106700432D02*
X139800432Y-105249568D01*
X140000000Y-106900000D02*
X139800432Y-106700432D01*
X140000000Y-107300000D02*
X140000000Y-106900000D01*
%TO.N,Net-(D6-A)*%
X136500000Y-87000000D02*
X136425216Y-86925216D01*
X136425216Y-85024784D02*
X136625216Y-84824784D01*
X136425216Y-86925216D02*
X136425216Y-85024784D01*
%TO.N,Net-(D7-A)*%
X154050000Y-99875000D02*
X155125000Y-98800000D01*
X154050000Y-100200000D02*
X154050000Y-99875000D01*
%TO.N,555_out*%
X141250000Y-139300000D02*
X145400000Y-139300000D01*
%TO.N,Net-(U1-THR)*%
X136340000Y-148660000D02*
X137610000Y-147390000D01*
X137610000Y-147390000D02*
X137610000Y-145620000D01*
X137610000Y-145620000D02*
X137610000Y-144840000D01*
X136350000Y-152250000D02*
X136350000Y-150580000D01*
X136350000Y-150580000D02*
X136340000Y-150570000D01*
X136340000Y-150570000D02*
X136340000Y-148660000D01*
X137610000Y-144840000D02*
X138450000Y-144000000D01*
%TO.N,Net-(D8-A)*%
X140650000Y-119550000D02*
X140650000Y-115999136D01*
X140650000Y-115999136D02*
X140050432Y-115399568D01*
%TO.N,Net-(D9-A)*%
X127900000Y-108488186D02*
X127665498Y-108253684D01*
X127900000Y-109000000D02*
X127900000Y-108488186D01*
X127665498Y-108253684D02*
X127665498Y-106993954D01*
%TO.N,Net-(D10-K)*%
X134288700Y-96763699D02*
X134050000Y-96524999D01*
X134288700Y-97912485D02*
X134288700Y-96763699D01*
%TO.N,Net-(D11-K)*%
X122800000Y-117600000D02*
X122750000Y-117600000D01*
X122750000Y-117600000D02*
X121800000Y-116650000D01*
%TO.N,Net-(D12-K)*%
X135591014Y-109791014D02*
X134366013Y-109791014D01*
X134366013Y-109791014D02*
X133800000Y-109225001D01*
%TO.N,Net-(D13-K)*%
X134576835Y-78076835D02*
X133874999Y-77374999D01*
X133874999Y-77374999D02*
X132200000Y-77374999D01*
%TO.N,Net-(D14-K)*%
X147075000Y-103400000D02*
X146350000Y-102675000D01*
X147450000Y-103400000D02*
X147075000Y-103400000D01*
%TO.N,Net-(D15-K)*%
X157400000Y-89200000D02*
X158525216Y-88074784D01*
X157400000Y-90050000D02*
X157400000Y-89200000D01*
%TO.N,Net-(D16-K)*%
X114525001Y-100025001D02*
X114525001Y-99050000D01*
X114814294Y-100314294D02*
X114525001Y-100025001D01*
%TO.N,Net-(Q1-E)*%
X128000000Y-122500000D02*
X128000000Y-118500000D01*
X137500000Y-110500000D02*
X129500000Y-118500000D01*
X129500000Y-118500000D02*
X128000000Y-118500000D01*
%TO.N,Net-(U1-Q)*%
X136340000Y-144010000D02*
X136350000Y-144000000D01*
X136340000Y-145620000D02*
X136340000Y-144010000D01*
%TO.N,Net-(D17-K)*%
X124450000Y-128450000D02*
X124450000Y-127275000D01*
X124450000Y-127275000D02*
X124575000Y-127150000D01*
%TD*%
%TA.AperFunction,Conductor*%
%TO.N,GND*%
G36*
X165442539Y-71520185D02*
G01*
X165488294Y-71572989D01*
X165499500Y-71624500D01*
X165499500Y-112400064D01*
X165499500Y-120031848D01*
X165500315Y-120034888D01*
X165504540Y-120066982D01*
X165504540Y-130160313D01*
X165484855Y-130227352D01*
X165432051Y-130273107D01*
X165380540Y-130284313D01*
X165369237Y-130284313D01*
X164838907Y-130814642D01*
X164784205Y-130759940D01*
X164715796Y-130720444D01*
X164639496Y-130700000D01*
X163960504Y-130700000D01*
X163884204Y-130720444D01*
X163815795Y-130759940D01*
X163761091Y-130814643D01*
X163230761Y-130284313D01*
X163184410Y-130330665D01*
X163069505Y-130502631D01*
X163069500Y-130502641D01*
X162990350Y-130693725D01*
X162990348Y-130693733D01*
X162950000Y-130896579D01*
X162950000Y-131103420D01*
X162990348Y-131306266D01*
X162990350Y-131306274D01*
X163069500Y-131497358D01*
X163069505Y-131497368D01*
X163184409Y-131669334D01*
X163230761Y-131715685D01*
X163761091Y-131185356D01*
X163815795Y-131240060D01*
X163884204Y-131279556D01*
X163960504Y-131300000D01*
X164639496Y-131300000D01*
X164715796Y-131279556D01*
X164784205Y-131240060D01*
X164838908Y-131185357D01*
X165369237Y-131715686D01*
X165380540Y-131715686D01*
X165447579Y-131735371D01*
X165493334Y-131788175D01*
X165504540Y-131839686D01*
X165504540Y-138800313D01*
X165484855Y-138867352D01*
X165432051Y-138913107D01*
X165380540Y-138924313D01*
X165369237Y-138924313D01*
X164838907Y-139454642D01*
X164784205Y-139399940D01*
X164715796Y-139360444D01*
X164639496Y-139340000D01*
X163960504Y-139340000D01*
X163884204Y-139360444D01*
X163815795Y-139399940D01*
X163761091Y-139454643D01*
X163230761Y-138924313D01*
X163184410Y-138970665D01*
X163069505Y-139142631D01*
X163069500Y-139142641D01*
X162990350Y-139333725D01*
X162990348Y-139333733D01*
X162950000Y-139536579D01*
X162950000Y-139743420D01*
X162990348Y-139946266D01*
X162990350Y-139946274D01*
X163069500Y-140137358D01*
X163069505Y-140137368D01*
X163184409Y-140309334D01*
X163230761Y-140355685D01*
X163761091Y-139825356D01*
X163815795Y-139880060D01*
X163884204Y-139919556D01*
X163960504Y-139940000D01*
X164639496Y-139940000D01*
X164715796Y-139919556D01*
X164784205Y-139880060D01*
X164838908Y-139825357D01*
X165369237Y-140355686D01*
X165380540Y-140355686D01*
X165447579Y-140375371D01*
X165493334Y-140428175D01*
X165504540Y-140479686D01*
X165504540Y-160375500D01*
X165484855Y-160442539D01*
X165432051Y-160488294D01*
X165380540Y-160499500D01*
X106624500Y-160499500D01*
X106557461Y-160479815D01*
X106511706Y-160427011D01*
X106500500Y-160375500D01*
X106500500Y-156878711D01*
X108149500Y-156878711D01*
X108149500Y-157121288D01*
X108181161Y-157361785D01*
X108243947Y-157596104D01*
X108336773Y-157820205D01*
X108336776Y-157820212D01*
X108458064Y-158030289D01*
X108458066Y-158030292D01*
X108458067Y-158030293D01*
X108605733Y-158222736D01*
X108605739Y-158222743D01*
X108777256Y-158394260D01*
X108777262Y-158394265D01*
X108969711Y-158541936D01*
X109179788Y-158663224D01*
X109403900Y-158756054D01*
X109638211Y-158818838D01*
X109818586Y-158842584D01*
X109878711Y-158850500D01*
X109878712Y-158850500D01*
X110121289Y-158850500D01*
X110169388Y-158844167D01*
X110361789Y-158818838D01*
X110596100Y-158756054D01*
X110820212Y-158663224D01*
X111030289Y-158541936D01*
X111222738Y-158394265D01*
X111394265Y-158222738D01*
X111541936Y-158030289D01*
X111663224Y-157820212D01*
X111756054Y-157596100D01*
X111818838Y-157361789D01*
X111850500Y-157121288D01*
X111850500Y-156878712D01*
X111850500Y-156878711D01*
X160149500Y-156878711D01*
X160149500Y-157121288D01*
X160181161Y-157361785D01*
X160243947Y-157596104D01*
X160336773Y-157820205D01*
X160336776Y-157820212D01*
X160458064Y-158030289D01*
X160458066Y-158030292D01*
X160458067Y-158030293D01*
X160605733Y-158222736D01*
X160605739Y-158222743D01*
X160777256Y-158394260D01*
X160777262Y-158394265D01*
X160969711Y-158541936D01*
X161179788Y-158663224D01*
X161403900Y-158756054D01*
X161638211Y-158818838D01*
X161818586Y-158842584D01*
X161878711Y-158850500D01*
X161878712Y-158850500D01*
X162121289Y-158850500D01*
X162169388Y-158844167D01*
X162361789Y-158818838D01*
X162596100Y-158756054D01*
X162820212Y-158663224D01*
X163030289Y-158541936D01*
X163222738Y-158394265D01*
X163394265Y-158222738D01*
X163541936Y-158030289D01*
X163663224Y-157820212D01*
X163756054Y-157596100D01*
X163818838Y-157361789D01*
X163850500Y-157121288D01*
X163850500Y-156878712D01*
X163818838Y-156638211D01*
X163756054Y-156403900D01*
X163663224Y-156179788D01*
X163541936Y-155969711D01*
X163394265Y-155777262D01*
X163394260Y-155777256D01*
X163222743Y-155605739D01*
X163222736Y-155605733D01*
X163030293Y-155458067D01*
X163030292Y-155458066D01*
X163030289Y-155458064D01*
X162820212Y-155336776D01*
X162820205Y-155336773D01*
X162596104Y-155243947D01*
X162361785Y-155181161D01*
X162121289Y-155149500D01*
X162121288Y-155149500D01*
X161878712Y-155149500D01*
X161878711Y-155149500D01*
X161638214Y-155181161D01*
X161403895Y-155243947D01*
X161179794Y-155336773D01*
X161179785Y-155336777D01*
X160969706Y-155458067D01*
X160777263Y-155605733D01*
X160777256Y-155605739D01*
X160605739Y-155777256D01*
X160605733Y-155777263D01*
X160458067Y-155969706D01*
X160336777Y-156179785D01*
X160336773Y-156179794D01*
X160243947Y-156403895D01*
X160181161Y-156638214D01*
X160149500Y-156878711D01*
X111850500Y-156878711D01*
X111818838Y-156638211D01*
X111756054Y-156403900D01*
X111663224Y-156179788D01*
X111541936Y-155969711D01*
X111394265Y-155777262D01*
X111394260Y-155777256D01*
X111222743Y-155605739D01*
X111222736Y-155605733D01*
X111030293Y-155458067D01*
X111030292Y-155458066D01*
X111030289Y-155458064D01*
X110820212Y-155336776D01*
X110820205Y-155336773D01*
X110596104Y-155243947D01*
X110361785Y-155181161D01*
X110121289Y-155149500D01*
X110121288Y-155149500D01*
X109878712Y-155149500D01*
X109878711Y-155149500D01*
X109638214Y-155181161D01*
X109403895Y-155243947D01*
X109179794Y-155336773D01*
X109179785Y-155336777D01*
X108969706Y-155458067D01*
X108777263Y-155605733D01*
X108777256Y-155605739D01*
X108605739Y-155777256D01*
X108605733Y-155777263D01*
X108458067Y-155969706D01*
X108336777Y-156179785D01*
X108336773Y-156179794D01*
X108243947Y-156403895D01*
X108181161Y-156638214D01*
X108149500Y-156878711D01*
X106500500Y-156878711D01*
X106500500Y-150586526D01*
X132534127Y-150586526D01*
X132534127Y-150744219D01*
X132564888Y-150898862D01*
X132564891Y-150898874D01*
X132625229Y-151044545D01*
X132625236Y-151044558D01*
X132712837Y-151175661D01*
X132712840Y-151175665D01*
X132824334Y-151287159D01*
X132824338Y-151287162D01*
X132955441Y-151374763D01*
X132955454Y-151374770D01*
X133068970Y-151421789D01*
X133101130Y-151435110D01*
X133229749Y-151460694D01*
X133255780Y-151465872D01*
X133255783Y-151465873D01*
X133255785Y-151465873D01*
X133413471Y-151465873D01*
X133413472Y-151465872D01*
X133568124Y-151435110D01*
X133713806Y-151374767D01*
X133810300Y-151310292D01*
X133838577Y-151291398D01*
X133856623Y-151285747D01*
X133872533Y-151275523D01*
X133903492Y-151271071D01*
X133905254Y-151270520D01*
X133907468Y-151270500D01*
X134145500Y-151270500D01*
X134212539Y-151290185D01*
X134258294Y-151342989D01*
X134269500Y-151394500D01*
X134269500Y-151460701D01*
X134272401Y-151497567D01*
X134272402Y-151497573D01*
X134318254Y-151655393D01*
X134318255Y-151655396D01*
X134401917Y-151796862D01*
X134401923Y-151796870D01*
X134518129Y-151913076D01*
X134518133Y-151913079D01*
X134518135Y-151913081D01*
X134659602Y-151996744D01*
X134701224Y-152008836D01*
X134817426Y-152042597D01*
X134817429Y-152042597D01*
X134817431Y-152042598D01*
X134854306Y-152045500D01*
X134854314Y-152045500D01*
X135285686Y-152045500D01*
X135285694Y-152045500D01*
X135322569Y-152042598D01*
X135394520Y-152021694D01*
X135464387Y-152021893D01*
X135523057Y-152059834D01*
X135551902Y-152123472D01*
X135550733Y-152164952D01*
X135549500Y-152171150D01*
X135549500Y-152328846D01*
X135580261Y-152483489D01*
X135580264Y-152483501D01*
X135640602Y-152629172D01*
X135640609Y-152629185D01*
X135728210Y-152760288D01*
X135728213Y-152760292D01*
X135839707Y-152871786D01*
X135839711Y-152871789D01*
X135970814Y-152959390D01*
X135970827Y-152959397D01*
X136116498Y-153019735D01*
X136116503Y-153019737D01*
X136271153Y-153050499D01*
X136271156Y-153050500D01*
X136271158Y-153050500D01*
X136428844Y-153050500D01*
X136428845Y-153050499D01*
X136583497Y-153019737D01*
X136729179Y-152959394D01*
X136860289Y-152871789D01*
X136971789Y-152760289D01*
X137059394Y-152629179D01*
X137119737Y-152483497D01*
X137150500Y-152328842D01*
X137150500Y-152171158D01*
X137150496Y-152171138D01*
X137150497Y-152171127D01*
X137149903Y-152165093D01*
X137151046Y-152164980D01*
X137156716Y-152101550D01*
X137199572Y-152046368D01*
X137265460Y-152023116D01*
X137306706Y-152027860D01*
X137357431Y-152042598D01*
X137394306Y-152045500D01*
X137394314Y-152045500D01*
X137825686Y-152045500D01*
X137825694Y-152045500D01*
X137862569Y-152042598D01*
X137862571Y-152042597D01*
X137862573Y-152042597D01*
X137904191Y-152030505D01*
X138020398Y-151996744D01*
X138161865Y-151913081D01*
X138161870Y-151913075D01*
X138168031Y-151908298D01*
X138169933Y-151910750D01*
X138218579Y-151884155D01*
X138288274Y-151889104D01*
X138320695Y-151909940D01*
X138321969Y-151908298D01*
X138328132Y-151913078D01*
X138328135Y-151913081D01*
X138469602Y-151996744D01*
X138511224Y-152008836D01*
X138627426Y-152042597D01*
X138627429Y-152042597D01*
X138627431Y-152042598D01*
X138664306Y-152045500D01*
X138664314Y-152045500D01*
X139095686Y-152045500D01*
X139095694Y-152045500D01*
X139132569Y-152042598D01*
X139132571Y-152042597D01*
X139132573Y-152042597D01*
X139174191Y-152030505D01*
X139290398Y-151996744D01*
X139431865Y-151913081D01*
X139548081Y-151796865D01*
X139628207Y-151661379D01*
X139679276Y-151613696D01*
X139734939Y-151600500D01*
X139778844Y-151600500D01*
X139778845Y-151600499D01*
X139933497Y-151569737D01*
X140079179Y-151509394D01*
X140210289Y-151421789D01*
X140321789Y-151310289D01*
X140409394Y-151179179D01*
X140469737Y-151033497D01*
X140500500Y-150878842D01*
X140500500Y-150721158D01*
X140500500Y-150721155D01*
X140500499Y-150721153D01*
X140469738Y-150566510D01*
X140469737Y-150566503D01*
X140413976Y-150431883D01*
X140409397Y-150420827D01*
X140409390Y-150420814D01*
X140321789Y-150289711D01*
X140321786Y-150289707D01*
X140210292Y-150178213D01*
X140210288Y-150178210D01*
X140079185Y-150090609D01*
X140079172Y-150090602D01*
X139933497Y-150030262D01*
X139932044Y-150029822D01*
X139905735Y-150018372D01*
X139902375Y-150016419D01*
X139801811Y-149949225D01*
X139749384Y-149927508D01*
X139742195Y-149923331D01*
X139723640Y-149903760D01*
X139702643Y-149886839D01*
X139699963Y-149878786D01*
X139694123Y-149872627D01*
X139689094Y-149846132D01*
X139680579Y-149820545D01*
X139680500Y-149816121D01*
X139680500Y-149679313D01*
X139680499Y-149679298D01*
X139677598Y-149642432D01*
X139677597Y-149642426D01*
X139631745Y-149484606D01*
X139631744Y-149484603D01*
X139631744Y-149484602D01*
X139622170Y-149468413D01*
X139597768Y-149427150D01*
X139594005Y-149415243D01*
X139588606Y-149408128D01*
X139584221Y-149384276D01*
X139580877Y-149373691D01*
X139580500Y-149368866D01*
X139580500Y-149311007D01*
X139574486Y-149280775D01*
X139566559Y-149240925D01*
X139553581Y-149175679D01*
X139553580Y-149175672D01*
X139540153Y-149143256D01*
X139500776Y-149048191D01*
X139496993Y-149042529D01*
X139496992Y-149042528D01*
X139485280Y-149025000D01*
X139424114Y-148933457D01*
X139424112Y-148933454D01*
X139424111Y-148933453D01*
X138796071Y-148305414D01*
X138769191Y-148265185D01*
X138709397Y-148120827D01*
X138709390Y-148120814D01*
X138621789Y-147989711D01*
X138621786Y-147989707D01*
X138510292Y-147878213D01*
X138510288Y-147878210D01*
X138379185Y-147790609D01*
X138379172Y-147790602D01*
X138342747Y-147775515D01*
X138341750Y-147774712D01*
X138340480Y-147774550D01*
X138314605Y-147752837D01*
X138288343Y-147731674D01*
X138287939Y-147730460D01*
X138286958Y-147729637D01*
X138276936Y-147697404D01*
X138266278Y-147665380D01*
X138266470Y-147663740D01*
X138266215Y-147662918D01*
X138267133Y-147658099D01*
X138270683Y-147627908D01*
X138272714Y-147620560D01*
X138283580Y-147594329D01*
X138291951Y-147552246D01*
X138310500Y-147458993D01*
X138310500Y-147165153D01*
X138330185Y-147098114D01*
X138382989Y-147052359D01*
X138452147Y-147042415D01*
X138469095Y-147046077D01*
X138627505Y-147092099D01*
X138627511Y-147092100D01*
X138629998Y-147092295D01*
X138630000Y-147092295D01*
X139130000Y-147092295D01*
X139130001Y-147092295D01*
X139132486Y-147092100D01*
X139290198Y-147046281D01*
X139431552Y-146962685D01*
X139431561Y-146962678D01*
X139547678Y-146846561D01*
X139547685Y-146846552D01*
X139631282Y-146705196D01*
X139631283Y-146705193D01*
X139677099Y-146547495D01*
X139677100Y-146547489D01*
X139679999Y-146510649D01*
X139680000Y-146510634D01*
X139680000Y-146128713D01*
X161149500Y-146128713D01*
X161149500Y-146341286D01*
X161182172Y-146547573D01*
X161182754Y-146551243D01*
X161232842Y-146705398D01*
X161248444Y-146753414D01*
X161344951Y-146942820D01*
X161469890Y-147114786D01*
X161583818Y-147228714D01*
X161617303Y-147290037D01*
X161612319Y-147359729D01*
X161570447Y-147415662D01*
X161539471Y-147432577D01*
X161407912Y-147481646D01*
X161407906Y-147481649D01*
X161292812Y-147567809D01*
X161292809Y-147567812D01*
X161206649Y-147682906D01*
X161206645Y-147682913D01*
X161156403Y-147817620D01*
X161156401Y-147817627D01*
X161150000Y-147877155D01*
X161150000Y-148525000D01*
X162066988Y-148525000D01*
X162034075Y-148582007D01*
X162000000Y-148709174D01*
X162000000Y-148840826D01*
X162034075Y-148967993D01*
X162066988Y-149025000D01*
X161150000Y-149025000D01*
X161150000Y-149672844D01*
X161156401Y-149732372D01*
X161156403Y-149732379D01*
X161206645Y-149867086D01*
X161206649Y-149867093D01*
X161292809Y-149982187D01*
X161292812Y-149982190D01*
X161407906Y-150068350D01*
X161407913Y-150068354D01*
X161542620Y-150118596D01*
X161542627Y-150118598D01*
X161602155Y-150124999D01*
X161602172Y-150125000D01*
X162250000Y-150125000D01*
X162250000Y-149208012D01*
X162307007Y-149240925D01*
X162434174Y-149275000D01*
X162565826Y-149275000D01*
X162692993Y-149240925D01*
X162750000Y-149208012D01*
X162750000Y-150125000D01*
X163397828Y-150125000D01*
X163397844Y-150124999D01*
X163457372Y-150118598D01*
X163457379Y-150118596D01*
X163592086Y-150068354D01*
X163592093Y-150068350D01*
X163707187Y-149982190D01*
X163707190Y-149982187D01*
X163793350Y-149867093D01*
X163793354Y-149867086D01*
X163843596Y-149732379D01*
X163843598Y-149732372D01*
X163849999Y-149672844D01*
X163850000Y-149672827D01*
X163850000Y-149025000D01*
X162933012Y-149025000D01*
X162965925Y-148967993D01*
X163000000Y-148840826D01*
X163000000Y-148709174D01*
X162965925Y-148582007D01*
X162933012Y-148525000D01*
X163850000Y-148525000D01*
X163850000Y-147877172D01*
X163849999Y-147877155D01*
X163843598Y-147817627D01*
X163843596Y-147817620D01*
X163793354Y-147682913D01*
X163793350Y-147682906D01*
X163707190Y-147567812D01*
X163707187Y-147567809D01*
X163592093Y-147481649D01*
X163592088Y-147481646D01*
X163460528Y-147432577D01*
X163404595Y-147390705D01*
X163380178Y-147325241D01*
X163395030Y-147256968D01*
X163416175Y-147228720D01*
X163530104Y-147114792D01*
X163544121Y-147095500D01*
X163640615Y-146962685D01*
X163655051Y-146942816D01*
X163751557Y-146753412D01*
X163817246Y-146551243D01*
X163850500Y-146341287D01*
X163850500Y-146128713D01*
X163817246Y-145918757D01*
X163751557Y-145716588D01*
X163655051Y-145527184D01*
X163655049Y-145527181D01*
X163655048Y-145527179D01*
X163530109Y-145355213D01*
X163379786Y-145204890D01*
X163207820Y-145079951D01*
X163018414Y-144983444D01*
X163018413Y-144983443D01*
X163018412Y-144983443D01*
X162816243Y-144917754D01*
X162816241Y-144917753D01*
X162816240Y-144917753D01*
X162654957Y-144892208D01*
X162606287Y-144884500D01*
X162393713Y-144884500D01*
X162345042Y-144892208D01*
X162183760Y-144917753D01*
X161981585Y-144983444D01*
X161792179Y-145079951D01*
X161620213Y-145204890D01*
X161469890Y-145355213D01*
X161344951Y-145527179D01*
X161248444Y-145716585D01*
X161182753Y-145918760D01*
X161149500Y-146128713D01*
X139680000Y-146128713D01*
X139680000Y-145870000D01*
X139130000Y-145870000D01*
X139130000Y-147092295D01*
X138630000Y-147092295D01*
X138630000Y-145744000D01*
X138649685Y-145676961D01*
X138702489Y-145631206D01*
X138754000Y-145620000D01*
X138880000Y-145620000D01*
X138880000Y-145494000D01*
X138899685Y-145426961D01*
X138952489Y-145381206D01*
X139004000Y-145370000D01*
X139680000Y-145370000D01*
X139680000Y-144729365D01*
X139679999Y-144729350D01*
X139677100Y-144692510D01*
X139677099Y-144692504D01*
X139631283Y-144534806D01*
X139631282Y-144534803D01*
X139547685Y-144393447D01*
X139547678Y-144393438D01*
X139431561Y-144277321D01*
X139431552Y-144277314D01*
X139309873Y-144205354D01*
X139262190Y-144154285D01*
X139249686Y-144085543D01*
X139250121Y-144082684D01*
X139250500Y-144078844D01*
X139250500Y-143921155D01*
X139250499Y-143921153D01*
X139219737Y-143766503D01*
X139219191Y-143765185D01*
X139159397Y-143620827D01*
X139159390Y-143620814D01*
X139071789Y-143489711D01*
X139071786Y-143489707D01*
X138960292Y-143378213D01*
X138960288Y-143378210D01*
X138829185Y-143290609D01*
X138829172Y-143290602D01*
X138683501Y-143230264D01*
X138683489Y-143230261D01*
X138528845Y-143199500D01*
X138528842Y-143199500D01*
X138371158Y-143199500D01*
X138371155Y-143199500D01*
X138216510Y-143230261D01*
X138216498Y-143230264D01*
X138070827Y-143290602D01*
X138070814Y-143290609D01*
X137939711Y-143378210D01*
X137939707Y-143378213D01*
X137828213Y-143489707D01*
X137828210Y-143489711D01*
X137740609Y-143620814D01*
X137740604Y-143620824D01*
X137680808Y-143765185D01*
X137653928Y-143805413D01*
X137362181Y-144097161D01*
X137300858Y-144130646D01*
X137231167Y-144125662D01*
X137175233Y-144083791D01*
X137150816Y-144018326D01*
X137150500Y-144009480D01*
X137150500Y-143921155D01*
X137150499Y-143921153D01*
X137119737Y-143766503D01*
X137119191Y-143765185D01*
X137059397Y-143620827D01*
X137059390Y-143620814D01*
X136971789Y-143489711D01*
X136971786Y-143489707D01*
X136860292Y-143378213D01*
X136860288Y-143378210D01*
X136729185Y-143290609D01*
X136729172Y-143290602D01*
X136583501Y-143230264D01*
X136583489Y-143230261D01*
X136428845Y-143199500D01*
X136428842Y-143199500D01*
X136271158Y-143199500D01*
X136271155Y-143199500D01*
X136116510Y-143230261D01*
X136116498Y-143230264D01*
X135970827Y-143290602D01*
X135970814Y-143290609D01*
X135839711Y-143378210D01*
X135839707Y-143378213D01*
X135728213Y-143489707D01*
X135728210Y-143489711D01*
X135640609Y-143620814D01*
X135640602Y-143620827D01*
X135580264Y-143766498D01*
X135580261Y-143766510D01*
X135549500Y-143921153D01*
X135549500Y-144048179D01*
X135529815Y-144115218D01*
X135477011Y-144160973D01*
X135407853Y-144170917D01*
X135390905Y-144167255D01*
X135322573Y-144147402D01*
X135322567Y-144147401D01*
X135285701Y-144144500D01*
X135285694Y-144144500D01*
X134854306Y-144144500D01*
X134854298Y-144144500D01*
X134817432Y-144147401D01*
X134817426Y-144147402D01*
X134659606Y-144193254D01*
X134659603Y-144193255D01*
X134518137Y-144276917D01*
X134518129Y-144276923D01*
X134401923Y-144393129D01*
X134401917Y-144393137D01*
X134318255Y-144534603D01*
X134318254Y-144534606D01*
X134272402Y-144692426D01*
X134272401Y-144692432D01*
X134269500Y-144729298D01*
X134269500Y-146510701D01*
X134272401Y-146547567D01*
X134272402Y-146547573D01*
X134318254Y-146705393D01*
X134318255Y-146705396D01*
X134318256Y-146705398D01*
X134346651Y-146753412D01*
X134352232Y-146762848D01*
X134369500Y-146825969D01*
X134369500Y-147001006D01*
X134369500Y-147138994D01*
X134369500Y-147138996D01*
X134369499Y-147138996D01*
X134396418Y-147274322D01*
X134396421Y-147274332D01*
X134449222Y-147401807D01*
X134525887Y-147516545D01*
X134525888Y-147516546D01*
X134703928Y-147694585D01*
X134730808Y-147734814D01*
X134790602Y-147879172D01*
X134790609Y-147879185D01*
X134878210Y-148010288D01*
X134878213Y-148010292D01*
X134989707Y-148121786D01*
X134989711Y-148121789D01*
X135120814Y-148209390D01*
X135120827Y-148209397D01*
X135232233Y-148255542D01*
X135266503Y-148269737D01*
X135421153Y-148300499D01*
X135421156Y-148300500D01*
X135546296Y-148300500D01*
X135613335Y-148320185D01*
X135659090Y-148372989D01*
X135669034Y-148442147D01*
X135667367Y-148449650D01*
X135667608Y-148449698D01*
X135639500Y-148591004D01*
X135639500Y-149024326D01*
X135619815Y-149091365D01*
X135567011Y-149137120D01*
X135497853Y-149147064D01*
X135480905Y-149143402D01*
X135322573Y-149097402D01*
X135322567Y-149097401D01*
X135285701Y-149094500D01*
X135285694Y-149094500D01*
X134854306Y-149094500D01*
X134854298Y-149094500D01*
X134817432Y-149097401D01*
X134817426Y-149097402D01*
X134659606Y-149143254D01*
X134659603Y-149143255D01*
X134518137Y-149226917D01*
X134518129Y-149226923D01*
X134401923Y-149343129D01*
X134401917Y-149343137D01*
X134318255Y-149484603D01*
X134318254Y-149484606D01*
X134272402Y-149642426D01*
X134272401Y-149642432D01*
X134269500Y-149679298D01*
X134269500Y-149745500D01*
X134249815Y-149812539D01*
X134197011Y-149858294D01*
X134145500Y-149869500D01*
X133448943Y-149869500D01*
X133424751Y-149867117D01*
X133413469Y-149864873D01*
X133255785Y-149864873D01*
X133255782Y-149864873D01*
X133101137Y-149895634D01*
X133101125Y-149895637D01*
X132955454Y-149955975D01*
X132955441Y-149955982D01*
X132824338Y-150043583D01*
X132824334Y-150043586D01*
X132712840Y-150155080D01*
X132712837Y-150155084D01*
X132625236Y-150286187D01*
X132625229Y-150286200D01*
X132564891Y-150431871D01*
X132564888Y-150431883D01*
X132534127Y-150586526D01*
X106500500Y-150586526D01*
X106500500Y-140635055D01*
X159858495Y-140635055D01*
X159858495Y-140635056D01*
X159893722Y-140649648D01*
X159893732Y-140649651D01*
X160096579Y-140689999D01*
X160096583Y-140690000D01*
X160903417Y-140690000D01*
X160903420Y-140689999D01*
X161106263Y-140649652D01*
X161106273Y-140649649D01*
X161141503Y-140635055D01*
X163658495Y-140635055D01*
X163658495Y-140635056D01*
X163693722Y-140649648D01*
X163693732Y-140649651D01*
X163896579Y-140689999D01*
X163896583Y-140690000D01*
X164703417Y-140690000D01*
X164703420Y-140689999D01*
X164906263Y-140649652D01*
X164906273Y-140649649D01*
X164941503Y-140635055D01*
X164300001Y-139993552D01*
X164300000Y-139993552D01*
X163658495Y-140635055D01*
X161141503Y-140635055D01*
X160500001Y-139993552D01*
X160500000Y-139993552D01*
X159858495Y-140635055D01*
X106500500Y-140635055D01*
X106500500Y-139221153D01*
X140449500Y-139221153D01*
X140449500Y-139378846D01*
X140480261Y-139533489D01*
X140480264Y-139533501D01*
X140540602Y-139679172D01*
X140540609Y-139679185D01*
X140628210Y-139810288D01*
X140628213Y-139810292D01*
X140739707Y-139921786D01*
X140739711Y-139921789D01*
X140870814Y-140009390D01*
X140870827Y-140009397D01*
X141016498Y-140069735D01*
X141016503Y-140069737D01*
X141171153Y-140100499D01*
X141171156Y-140100500D01*
X141171158Y-140100500D01*
X141328844Y-140100500D01*
X141328845Y-140100499D01*
X141483497Y-140069737D01*
X141558963Y-140038478D01*
X141627864Y-140009939D01*
X141675316Y-140000500D01*
X144974684Y-140000500D01*
X145022136Y-140009939D01*
X145166498Y-140069735D01*
X145166503Y-140069737D01*
X145321153Y-140100499D01*
X145321156Y-140100500D01*
X145321158Y-140100500D01*
X145478844Y-140100500D01*
X145478845Y-140100499D01*
X145633497Y-140069737D01*
X145779179Y-140009394D01*
X145910289Y-139921789D01*
X146021789Y-139810289D01*
X146109394Y-139679179D01*
X146168460Y-139536579D01*
X159150000Y-139536579D01*
X159150000Y-139743420D01*
X159190348Y-139946266D01*
X159190350Y-139946274D01*
X159269500Y-140137358D01*
X159269505Y-140137368D01*
X159384409Y-140309334D01*
X159430761Y-140355685D01*
X159961091Y-139825356D01*
X160015795Y-139880060D01*
X160084204Y-139919556D01*
X160160504Y-139940000D01*
X160839496Y-139940000D01*
X160915796Y-139919556D01*
X160984205Y-139880060D01*
X161038908Y-139825357D01*
X161569237Y-140355686D01*
X161569238Y-140355686D01*
X161615591Y-140309333D01*
X161730494Y-140137368D01*
X161730499Y-140137358D01*
X161809649Y-139946274D01*
X161809651Y-139946266D01*
X161849999Y-139743420D01*
X161850000Y-139743417D01*
X161850000Y-139536583D01*
X161849999Y-139536579D01*
X161809651Y-139333733D01*
X161809649Y-139333725D01*
X161730499Y-139142641D01*
X161730494Y-139142631D01*
X161615590Y-138970665D01*
X161569237Y-138924313D01*
X161038907Y-139454642D01*
X160984205Y-139399940D01*
X160915796Y-139360444D01*
X160839496Y-139340000D01*
X160160504Y-139340000D01*
X160084204Y-139360444D01*
X160015795Y-139399940D01*
X159961091Y-139454643D01*
X159430761Y-138924313D01*
X159384410Y-138970665D01*
X159269505Y-139142631D01*
X159269500Y-139142641D01*
X159190350Y-139333725D01*
X159190348Y-139333733D01*
X159150000Y-139536579D01*
X146168460Y-139536579D01*
X146169737Y-139533497D01*
X146185193Y-139455795D01*
X146200500Y-139378844D01*
X146200500Y-139221155D01*
X146200499Y-139221153D01*
X146169738Y-139066510D01*
X146169737Y-139066503D01*
X146130040Y-138970665D01*
X146109397Y-138920827D01*
X146109390Y-138920814D01*
X146021789Y-138789711D01*
X146021786Y-138789707D01*
X145910292Y-138678213D01*
X145910288Y-138678210D01*
X145860501Y-138644943D01*
X159858494Y-138644943D01*
X160500000Y-139286448D01*
X160500001Y-139286448D01*
X161141504Y-138644943D01*
X163658494Y-138644943D01*
X164300000Y-139286448D01*
X164300001Y-139286448D01*
X164941504Y-138644943D01*
X164906270Y-138630349D01*
X164906266Y-138630348D01*
X164703420Y-138590000D01*
X163896579Y-138590000D01*
X163693734Y-138630348D01*
X163693722Y-138630351D01*
X163658494Y-138644943D01*
X161141504Y-138644943D01*
X161106270Y-138630349D01*
X161106266Y-138630348D01*
X160903420Y-138590000D01*
X160096579Y-138590000D01*
X159893734Y-138630348D01*
X159893722Y-138630351D01*
X159858494Y-138644943D01*
X145860501Y-138644943D01*
X145779185Y-138590609D01*
X145779172Y-138590602D01*
X145633501Y-138530264D01*
X145633489Y-138530261D01*
X145478845Y-138499500D01*
X145478842Y-138499500D01*
X145321158Y-138499500D01*
X145321155Y-138499500D01*
X145166510Y-138530261D01*
X145166498Y-138530264D01*
X145022136Y-138590061D01*
X144974684Y-138599500D01*
X141675316Y-138599500D01*
X141627864Y-138590061D01*
X141483501Y-138530264D01*
X141483489Y-138530261D01*
X141328845Y-138499500D01*
X141328842Y-138499500D01*
X141171158Y-138499500D01*
X141171155Y-138499500D01*
X141016510Y-138530261D01*
X141016498Y-138530264D01*
X140870827Y-138590602D01*
X140870814Y-138590609D01*
X140739711Y-138678210D01*
X140739707Y-138678213D01*
X140628213Y-138789707D01*
X140628210Y-138789711D01*
X140540609Y-138920814D01*
X140540602Y-138920827D01*
X140480264Y-139066498D01*
X140480261Y-139066510D01*
X140449500Y-139221153D01*
X106500500Y-139221153D01*
X106500500Y-98549983D01*
X113449501Y-98549983D01*
X113449501Y-99550001D01*
X113449502Y-99550019D01*
X113460001Y-99652796D01*
X113460002Y-99652799D01*
X113515186Y-99819331D01*
X113515188Y-99819336D01*
X113550070Y-99875888D01*
X113607289Y-99968656D01*
X113731345Y-100092712D01*
X113791255Y-100129664D01*
X113837980Y-100181612D01*
X113847776Y-100211008D01*
X113851420Y-100229327D01*
X113851421Y-100229331D01*
X113904223Y-100356808D01*
X113980888Y-100471546D01*
X114018222Y-100508880D01*
X114045102Y-100549108D01*
X114104898Y-100693470D01*
X114104903Y-100693479D01*
X114192504Y-100824582D01*
X114192507Y-100824586D01*
X114304001Y-100936080D01*
X114304005Y-100936083D01*
X114435108Y-101023684D01*
X114435121Y-101023691D01*
X114580792Y-101084029D01*
X114580797Y-101084031D01*
X114735447Y-101114793D01*
X114735450Y-101114794D01*
X114735452Y-101114794D01*
X114893138Y-101114794D01*
X114893139Y-101114793D01*
X115047791Y-101084031D01*
X115193473Y-101023688D01*
X115324583Y-100936083D01*
X115436083Y-100824583D01*
X115523688Y-100693473D01*
X115584031Y-100547791D01*
X115614794Y-100393136D01*
X115614794Y-100235452D01*
X115614666Y-100234809D01*
X115614697Y-100234465D01*
X115614197Y-100229387D01*
X115615159Y-100229292D01*
X115620886Y-100165221D01*
X115663742Y-100110039D01*
X115729629Y-100086787D01*
X115797628Y-100102847D01*
X115801374Y-100105067D01*
X115815593Y-100113837D01*
X115862318Y-100165782D01*
X115874499Y-100219377D01*
X115874499Y-109306005D01*
X115874499Y-109443993D01*
X115874499Y-109443995D01*
X115874498Y-109443995D01*
X115901417Y-109579321D01*
X115901420Y-109579331D01*
X115954221Y-109706806D01*
X116030886Y-109821544D01*
X116030887Y-109821545D01*
X121452649Y-115243306D01*
X121486134Y-115304629D01*
X121481150Y-115374321D01*
X121439278Y-115430254D01*
X121377570Y-115454345D01*
X121322202Y-115460001D01*
X121322200Y-115460001D01*
X121155668Y-115515185D01*
X121155663Y-115515187D01*
X121006342Y-115607289D01*
X120882289Y-115731342D01*
X120790187Y-115880663D01*
X120790186Y-115880666D01*
X120735001Y-116047203D01*
X120735001Y-116047204D01*
X120735000Y-116047204D01*
X120724500Y-116149983D01*
X120724500Y-117150001D01*
X120724501Y-117150019D01*
X120735000Y-117252796D01*
X120735001Y-117252799D01*
X120790185Y-117419331D01*
X120790186Y-117419334D01*
X120882288Y-117568656D01*
X121006344Y-117692712D01*
X121155666Y-117784814D01*
X121322203Y-117839999D01*
X121424991Y-117850500D01*
X121954450Y-117850499D01*
X122021489Y-117870183D01*
X122067244Y-117922987D01*
X122069011Y-117927045D01*
X122077881Y-117948460D01*
X122090605Y-117979177D01*
X122090606Y-117979178D01*
X122090609Y-117979185D01*
X122178210Y-118110288D01*
X122178213Y-118110292D01*
X122289707Y-118221786D01*
X122289711Y-118221789D01*
X122420814Y-118309390D01*
X122420827Y-118309397D01*
X122560892Y-118367413D01*
X122566503Y-118369737D01*
X122716442Y-118399562D01*
X122721153Y-118400499D01*
X122721156Y-118400500D01*
X122721158Y-118400500D01*
X122878844Y-118400500D01*
X122878845Y-118400499D01*
X123033497Y-118369737D01*
X123179179Y-118309394D01*
X123310289Y-118221789D01*
X123421789Y-118110289D01*
X123509394Y-117979179D01*
X123530987Y-117927045D01*
X123574827Y-117872644D01*
X123641120Y-117850578D01*
X123645548Y-117850499D01*
X124215386Y-117850499D01*
X124282425Y-117870184D01*
X124328180Y-117922988D01*
X124339386Y-117974499D01*
X124339386Y-125495892D01*
X124339386Y-125633880D01*
X124339386Y-125633882D01*
X124339385Y-125633882D01*
X124366304Y-125769208D01*
X124366306Y-125769214D01*
X124369965Y-125778047D01*
X124377434Y-125847516D01*
X124346159Y-125909996D01*
X124286070Y-125945648D01*
X124255406Y-125949500D01*
X124199999Y-125949500D01*
X124199980Y-125949501D01*
X124097203Y-125960000D01*
X124097200Y-125960001D01*
X123930668Y-126015185D01*
X123930663Y-126015187D01*
X123781342Y-126107289D01*
X123657289Y-126231342D01*
X123565187Y-126380663D01*
X123565185Y-126380668D01*
X123553312Y-126416498D01*
X123510001Y-126547203D01*
X123510001Y-126547204D01*
X123510000Y-126547204D01*
X123499500Y-126649983D01*
X123499500Y-127650001D01*
X123499501Y-127650019D01*
X123510000Y-127752796D01*
X123510001Y-127752799D01*
X123565185Y-127919331D01*
X123565186Y-127919334D01*
X123626719Y-128019096D01*
X123657289Y-128068657D01*
X123658250Y-128069618D01*
X123658699Y-128070440D01*
X123661766Y-128074319D01*
X123661103Y-128074843D01*
X123691735Y-128130941D01*
X123686751Y-128200633D01*
X123685131Y-128204749D01*
X123680263Y-128216501D01*
X123680261Y-128216506D01*
X123649500Y-128371153D01*
X123649500Y-128528846D01*
X123680261Y-128683489D01*
X123680264Y-128683501D01*
X123740602Y-128829172D01*
X123740609Y-128829185D01*
X123828210Y-128960288D01*
X123828213Y-128960292D01*
X123939707Y-129071786D01*
X123939711Y-129071789D01*
X124070814Y-129159390D01*
X124070827Y-129159397D01*
X124216498Y-129219735D01*
X124216503Y-129219737D01*
X124371153Y-129250499D01*
X124371156Y-129250500D01*
X124371158Y-129250500D01*
X124528844Y-129250500D01*
X124528845Y-129250499D01*
X124683497Y-129219737D01*
X124829179Y-129159394D01*
X124960289Y-129071789D01*
X125071789Y-128960289D01*
X125159394Y-128829179D01*
X125219737Y-128683497D01*
X125250500Y-128528842D01*
X125250500Y-128371158D01*
X125248605Y-128361632D01*
X125254829Y-128292042D01*
X125297689Y-128236862D01*
X125305109Y-128231907D01*
X125368656Y-128192712D01*
X125492712Y-128068656D01*
X125494461Y-128065819D01*
X125496169Y-128064283D01*
X125497193Y-128062989D01*
X125497414Y-128063163D01*
X125546406Y-128019096D01*
X125615368Y-128007872D01*
X125679451Y-128035713D01*
X125705537Y-128065817D01*
X125707288Y-128068656D01*
X125831344Y-128192712D01*
X125980666Y-128284814D01*
X126147203Y-128339999D01*
X126249991Y-128350500D01*
X127000008Y-128350499D01*
X127000016Y-128350498D01*
X127000019Y-128350498D01*
X127056302Y-128344748D01*
X127102797Y-128339999D01*
X127269334Y-128284814D01*
X127418656Y-128192712D01*
X127542712Y-128068656D01*
X127634814Y-127919334D01*
X127645650Y-127886631D01*
X127685423Y-127829187D01*
X127749939Y-127802364D01*
X127763356Y-127801636D01*
X135257345Y-127801636D01*
X135324384Y-127821321D01*
X135345026Y-127837955D01*
X141613181Y-134106110D01*
X141646666Y-134167433D01*
X141649500Y-134193791D01*
X141649500Y-134645064D01*
X141629815Y-134712103D01*
X141628603Y-134713954D01*
X141590608Y-134770817D01*
X141590602Y-134770828D01*
X141530264Y-134916498D01*
X141530261Y-134916510D01*
X141499500Y-135071153D01*
X141499500Y-135228846D01*
X141530261Y-135383489D01*
X141530264Y-135383501D01*
X141590602Y-135529172D01*
X141590609Y-135529185D01*
X141678210Y-135660288D01*
X141678213Y-135660292D01*
X141789707Y-135771786D01*
X141789711Y-135771789D01*
X141920814Y-135859390D01*
X141920827Y-135859397D01*
X142066498Y-135919735D01*
X142066503Y-135919737D01*
X142221153Y-135950499D01*
X142221156Y-135950500D01*
X142221158Y-135950500D01*
X142378844Y-135950500D01*
X142378845Y-135950499D01*
X142533497Y-135919737D01*
X142679179Y-135859394D01*
X142810289Y-135771789D01*
X142921789Y-135660289D01*
X143009394Y-135529179D01*
X143069737Y-135383497D01*
X143100500Y-135228842D01*
X143100500Y-135071158D01*
X143100500Y-135071155D01*
X143100499Y-135071153D01*
X143069739Y-134916511D01*
X143069738Y-134916508D01*
X143069737Y-134916503D01*
X143059937Y-134892844D01*
X143050500Y-134845396D01*
X143050500Y-133783276D01*
X143023581Y-133647949D01*
X143023580Y-133647948D01*
X143023580Y-133647944D01*
X143023578Y-133647939D01*
X142970777Y-133520464D01*
X142894112Y-133405726D01*
X141483441Y-131995055D01*
X159858495Y-131995055D01*
X159858495Y-131995056D01*
X159893722Y-132009648D01*
X159893732Y-132009651D01*
X160096579Y-132049999D01*
X160096583Y-132050000D01*
X160903417Y-132050000D01*
X160903420Y-132049999D01*
X161106263Y-132009652D01*
X161106273Y-132009649D01*
X161141503Y-131995055D01*
X163658495Y-131995055D01*
X163658495Y-131995056D01*
X163693722Y-132009648D01*
X163693732Y-132009651D01*
X163896579Y-132049999D01*
X163896583Y-132050000D01*
X164703417Y-132050000D01*
X164703420Y-132049999D01*
X164906263Y-132009652D01*
X164906273Y-132009649D01*
X164941503Y-131995055D01*
X164300001Y-131353552D01*
X164300000Y-131353552D01*
X163658495Y-131995055D01*
X161141503Y-131995055D01*
X160500001Y-131353552D01*
X160500000Y-131353552D01*
X159858495Y-131995055D01*
X141483441Y-131995055D01*
X140384965Y-130896579D01*
X159150000Y-130896579D01*
X159150000Y-131103420D01*
X159190348Y-131306266D01*
X159190350Y-131306274D01*
X159269500Y-131497358D01*
X159269505Y-131497368D01*
X159384409Y-131669334D01*
X159430761Y-131715685D01*
X159961091Y-131185356D01*
X160015795Y-131240060D01*
X160084204Y-131279556D01*
X160160504Y-131300000D01*
X160839496Y-131300000D01*
X160915796Y-131279556D01*
X160984205Y-131240060D01*
X161038908Y-131185357D01*
X161569237Y-131715686D01*
X161569238Y-131715686D01*
X161615591Y-131669333D01*
X161730494Y-131497368D01*
X161730499Y-131497358D01*
X161809649Y-131306274D01*
X161809651Y-131306266D01*
X161849999Y-131103420D01*
X161850000Y-131103417D01*
X161850000Y-130896583D01*
X161849999Y-130896579D01*
X161809651Y-130693733D01*
X161809649Y-130693725D01*
X161730499Y-130502641D01*
X161730494Y-130502631D01*
X161615590Y-130330665D01*
X161569237Y-130284313D01*
X161038907Y-130814642D01*
X160984205Y-130759940D01*
X160915796Y-130720444D01*
X160839496Y-130700000D01*
X160160504Y-130700000D01*
X160084204Y-130720444D01*
X160015795Y-130759940D01*
X159961091Y-130814643D01*
X159430761Y-130284313D01*
X159384410Y-130330665D01*
X159269505Y-130502631D01*
X159269500Y-130502641D01*
X159190350Y-130693725D01*
X159190348Y-130693733D01*
X159150000Y-130896579D01*
X140384965Y-130896579D01*
X139621825Y-130133439D01*
X139493329Y-130004943D01*
X159858494Y-130004943D01*
X160500000Y-130646448D01*
X160500001Y-130646448D01*
X161141504Y-130004943D01*
X163658494Y-130004943D01*
X164300000Y-130646448D01*
X164300001Y-130646448D01*
X164941504Y-130004943D01*
X164906270Y-129990349D01*
X164906266Y-129990348D01*
X164703420Y-129950000D01*
X163896579Y-129950000D01*
X163693734Y-129990348D01*
X163693722Y-129990351D01*
X163658494Y-130004943D01*
X161141504Y-130004943D01*
X161106270Y-129990349D01*
X161106266Y-129990348D01*
X160903420Y-129950000D01*
X160096579Y-129950000D01*
X159893734Y-129990348D01*
X159893722Y-129990351D01*
X159858494Y-130004943D01*
X139493329Y-130004943D01*
X136734488Y-127246103D01*
X136701003Y-127184780D01*
X136705987Y-127115088D01*
X136719063Y-127089537D01*
X136759394Y-127029179D01*
X136819737Y-126883497D01*
X136850500Y-126728842D01*
X136850500Y-126571158D01*
X136850500Y-126571155D01*
X136850499Y-126571153D01*
X136819738Y-126416510D01*
X136819737Y-126416503D01*
X136804892Y-126380663D01*
X136759397Y-126270827D01*
X136759390Y-126270814D01*
X136671789Y-126139711D01*
X136671786Y-126139707D01*
X136560292Y-126028213D01*
X136560288Y-126028210D01*
X136429185Y-125940609D01*
X136429172Y-125940602D01*
X136283501Y-125880264D01*
X136283489Y-125880261D01*
X136128845Y-125849500D01*
X136128842Y-125849500D01*
X135971158Y-125849500D01*
X135971155Y-125849500D01*
X135816510Y-125880261D01*
X135816498Y-125880264D01*
X135670827Y-125940602D01*
X135670814Y-125940609D01*
X135539711Y-126028210D01*
X135539707Y-126028213D01*
X135428213Y-126139707D01*
X135428210Y-126139711D01*
X135340609Y-126270814D01*
X135340602Y-126270827D01*
X135318542Y-126324088D01*
X135274702Y-126378492D01*
X135208408Y-126400557D01*
X135203981Y-126400636D01*
X127716338Y-126400636D01*
X127649299Y-126380951D01*
X127610799Y-126341732D01*
X127599916Y-126324088D01*
X127542712Y-126231344D01*
X127418656Y-126107288D01*
X127290451Y-126028211D01*
X127269336Y-126015187D01*
X127269331Y-126015185D01*
X127267862Y-126014698D01*
X127102797Y-125960001D01*
X127102795Y-125960000D01*
X127000016Y-125949500D01*
X127000009Y-125949500D01*
X126466519Y-125949500D01*
X126399480Y-125929815D01*
X126378838Y-125913181D01*
X125776705Y-125311048D01*
X125743220Y-125249725D01*
X125740386Y-125223367D01*
X125740386Y-117709466D01*
X125760071Y-117642427D01*
X125812875Y-117596672D01*
X125882033Y-117586728D01*
X125911831Y-117594902D01*
X126016503Y-117638259D01*
X126171153Y-117669021D01*
X126171156Y-117669022D01*
X126171158Y-117669022D01*
X126328844Y-117669022D01*
X126328845Y-117669021D01*
X126483497Y-117638259D01*
X126588164Y-117594905D01*
X126627864Y-117578461D01*
X126675316Y-117569022D01*
X127543671Y-117569022D01*
X127610710Y-117588707D01*
X127656465Y-117641511D01*
X127666409Y-117710669D01*
X127637384Y-117774225D01*
X127612562Y-117796124D01*
X127489711Y-117878210D01*
X127489707Y-117878213D01*
X127378213Y-117989707D01*
X127378210Y-117989711D01*
X127290609Y-118120814D01*
X127290602Y-118120827D01*
X127230264Y-118266498D01*
X127230261Y-118266510D01*
X127199500Y-118421153D01*
X127199500Y-118578846D01*
X127230261Y-118733489D01*
X127230264Y-118733501D01*
X127290061Y-118877864D01*
X127299500Y-118925316D01*
X127299500Y-122074684D01*
X127290061Y-122122136D01*
X127230264Y-122266498D01*
X127230261Y-122266510D01*
X127199500Y-122421153D01*
X127199500Y-122578846D01*
X127230261Y-122733489D01*
X127230264Y-122733501D01*
X127290602Y-122879172D01*
X127290609Y-122879185D01*
X127378210Y-123010288D01*
X127378213Y-123010292D01*
X127489707Y-123121786D01*
X127489711Y-123121789D01*
X127620814Y-123209390D01*
X127620827Y-123209397D01*
X127766498Y-123269735D01*
X127766503Y-123269737D01*
X127921153Y-123300499D01*
X127921156Y-123300500D01*
X127921158Y-123300500D01*
X128078844Y-123300500D01*
X128078845Y-123300499D01*
X128233497Y-123269737D01*
X128379179Y-123209394D01*
X128510289Y-123121789D01*
X128621789Y-123010289D01*
X128709394Y-122879179D01*
X128769737Y-122733497D01*
X128800500Y-122578842D01*
X128800500Y-122421158D01*
X128800500Y-122421155D01*
X128800499Y-122421153D01*
X128778269Y-122309397D01*
X128769737Y-122266503D01*
X128709939Y-122122136D01*
X128700500Y-122074684D01*
X128700500Y-121521153D01*
X131199500Y-121521153D01*
X131199500Y-121678846D01*
X131230261Y-121833489D01*
X131230264Y-121833501D01*
X131290602Y-121979172D01*
X131290609Y-121979185D01*
X131378210Y-122110288D01*
X131378213Y-122110292D01*
X131489707Y-122221786D01*
X131489711Y-122221789D01*
X131620814Y-122309390D01*
X131620827Y-122309397D01*
X131766498Y-122369735D01*
X131766503Y-122369737D01*
X131921153Y-122400499D01*
X131921156Y-122400500D01*
X131921158Y-122400500D01*
X132078844Y-122400500D01*
X132078845Y-122400499D01*
X132233497Y-122369737D01*
X132379179Y-122309394D01*
X132510289Y-122221789D01*
X132621789Y-122110289D01*
X132709394Y-121979179D01*
X132769737Y-121833497D01*
X132800500Y-121678842D01*
X132800500Y-121521158D01*
X132800500Y-121521155D01*
X132800499Y-121521153D01*
X132769738Y-121366510D01*
X132769737Y-121366503D01*
X132709939Y-121222136D01*
X132708312Y-121213959D01*
X132705523Y-121209619D01*
X132700500Y-121174684D01*
X132700500Y-121141518D01*
X132720185Y-121074479D01*
X132736815Y-121053841D01*
X133169042Y-120621613D01*
X133209263Y-120594738D01*
X133367370Y-120529248D01*
X133509604Y-120426539D01*
X133624320Y-120293797D01*
X133673357Y-120202852D01*
X133960375Y-119509926D01*
X133990010Y-119410943D01*
X134002756Y-119235965D01*
X133974808Y-119062763D01*
X133907670Y-118900676D01*
X133905391Y-118897520D01*
X133904497Y-118894991D01*
X133904149Y-118894368D01*
X133904255Y-118894308D01*
X133882102Y-118831646D01*
X133898125Y-118763638D01*
X133948372Y-118715089D01*
X133986171Y-118702509D01*
X133989649Y-118701947D01*
X134151627Y-118634854D01*
X134293766Y-118532213D01*
X134408404Y-118399562D01*
X134457406Y-118308681D01*
X134505235Y-118193213D01*
X134505234Y-118193212D01*
X133396580Y-117733993D01*
X132788901Y-117482284D01*
X132512325Y-117367722D01*
X133818890Y-117367722D01*
X134696575Y-117731272D01*
X134744404Y-117615805D01*
X134774017Y-117516897D01*
X134774018Y-117516892D01*
X134786756Y-117342034D01*
X134786755Y-117342027D01*
X134758826Y-117168948D01*
X134691731Y-117006966D01*
X134589093Y-116864829D01*
X134589090Y-116864826D01*
X134456439Y-116750189D01*
X134365558Y-116701187D01*
X134134604Y-116605522D01*
X133818890Y-117367722D01*
X132512325Y-117367722D01*
X132287925Y-117274772D01*
X132287924Y-117274773D01*
X132240099Y-117390235D01*
X132240098Y-117390238D01*
X132210484Y-117489148D01*
X132210483Y-117489153D01*
X132197745Y-117664011D01*
X132197746Y-117664018D01*
X132225675Y-117837097D01*
X132292771Y-117999080D01*
X132294836Y-118001940D01*
X132295646Y-118004233D01*
X132296291Y-118005388D01*
X132296093Y-118005498D01*
X132318122Y-118067815D01*
X132302097Y-118135822D01*
X132251848Y-118184369D01*
X132214061Y-118196946D01*
X132210216Y-118197566D01*
X132048126Y-118264706D01*
X131905895Y-118367413D01*
X131791178Y-118500157D01*
X131791176Y-118500159D01*
X131742142Y-118591099D01*
X131455121Y-119284033D01*
X131455120Y-119284033D01*
X131425489Y-119383005D01*
X131425487Y-119383013D01*
X131412741Y-119557986D01*
X131440690Y-119731191D01*
X131462357Y-119783501D01*
X131507828Y-119893277D01*
X131507829Y-119893280D01*
X131614766Y-120041367D01*
X131613042Y-120042611D01*
X131639204Y-120095943D01*
X131631177Y-120165350D01*
X131604683Y-120204659D01*
X131455886Y-120353456D01*
X131379222Y-120468192D01*
X131326421Y-120595667D01*
X131326418Y-120595679D01*
X131303077Y-120713023D01*
X131303077Y-120713026D01*
X131299500Y-120731006D01*
X131299500Y-121174684D01*
X131290061Y-121222136D01*
X131230264Y-121366498D01*
X131230261Y-121366510D01*
X131199500Y-121521153D01*
X128700500Y-121521153D01*
X128700500Y-119324500D01*
X128720185Y-119257461D01*
X128772989Y-119211706D01*
X128824500Y-119200500D01*
X129568996Y-119200500D01*
X129660040Y-119182389D01*
X129704328Y-119173580D01*
X129768069Y-119147177D01*
X129831807Y-119120777D01*
X129831808Y-119120776D01*
X129831811Y-119120775D01*
X129946543Y-119044114D01*
X132259751Y-116730904D01*
X132321074Y-116697420D01*
X132390766Y-116702404D01*
X132446699Y-116744276D01*
X132461993Y-116771133D01*
X132479265Y-116812831D01*
X133356950Y-117176381D01*
X133672665Y-116414182D01*
X133672664Y-116414181D01*
X133441716Y-116318520D01*
X133342806Y-116288907D01*
X133342798Y-116288905D01*
X133167942Y-116276167D01*
X133167935Y-116276168D01*
X133005868Y-116302320D01*
X132936548Y-116293567D01*
X132882966Y-116248726D01*
X132862132Y-116182035D01*
X132880662Y-116114667D01*
X132898433Y-116092223D01*
X133767197Y-115223459D01*
X138751924Y-115223459D01*
X138751924Y-115398900D01*
X138779485Y-115515187D01*
X138792385Y-115569616D01*
X138871119Y-115726389D01*
X138871122Y-115726394D01*
X138936379Y-115806502D01*
X139643498Y-116513620D01*
X139723606Y-116578878D01*
X139880387Y-116657616D01*
X139880389Y-116657616D01*
X139881151Y-116657999D01*
X139932225Y-116705677D01*
X139949500Y-116768810D01*
X139949500Y-119124684D01*
X139940061Y-119172136D01*
X139880264Y-119316498D01*
X139880261Y-119316510D01*
X139849500Y-119471153D01*
X139849500Y-119628846D01*
X139880261Y-119783489D01*
X139880264Y-119783501D01*
X139940602Y-119929172D01*
X139940609Y-119929185D01*
X140028210Y-120060288D01*
X140028213Y-120060292D01*
X140139707Y-120171786D01*
X140139711Y-120171789D01*
X140270814Y-120259390D01*
X140270827Y-120259397D01*
X140416498Y-120319735D01*
X140416503Y-120319737D01*
X140571153Y-120350499D01*
X140571156Y-120350500D01*
X140571158Y-120350500D01*
X140728844Y-120350500D01*
X140728845Y-120350499D01*
X140883497Y-120319737D01*
X141029179Y-120259394D01*
X141160289Y-120171789D01*
X141271789Y-120060289D01*
X141359394Y-119929179D01*
X141419737Y-119783497D01*
X141450500Y-119628842D01*
X141450500Y-119471158D01*
X141450500Y-119471155D01*
X141450499Y-119471153D01*
X141432965Y-119383005D01*
X141419737Y-119316503D01*
X141386378Y-119235967D01*
X141359939Y-119172136D01*
X141350500Y-119124684D01*
X141350500Y-115930140D01*
X141323581Y-115794813D01*
X141323580Y-115794812D01*
X141323580Y-115794808D01*
X141322018Y-115791039D01*
X141314549Y-115721571D01*
X141315922Y-115714988D01*
X141348940Y-115575678D01*
X141348940Y-115400240D01*
X141348940Y-115400236D01*
X141348043Y-115396452D01*
X141348184Y-115393772D01*
X141348102Y-115393063D01*
X141348223Y-115393048D01*
X141351732Y-115326685D01*
X141392557Y-115269983D01*
X141457556Y-115244354D01*
X141497300Y-115247195D01*
X141500730Y-115248008D01*
X141676048Y-115248008D01*
X141846649Y-115207574D01*
X142003328Y-115128888D01*
X142083372Y-115063682D01*
X142083380Y-115063675D01*
X142171750Y-114975303D01*
X141323223Y-114126777D01*
X141146444Y-113949998D01*
X141853553Y-113949998D01*
X141853553Y-113949999D01*
X142525303Y-114621750D01*
X142525304Y-114621750D01*
X142613674Y-114533380D01*
X142613683Y-114533370D01*
X142678884Y-114453333D01*
X142678888Y-114453327D01*
X142757574Y-114296649D01*
X142798008Y-114126048D01*
X142798008Y-113950727D01*
X142757574Y-113780126D01*
X142678888Y-113623449D01*
X142613689Y-113543412D01*
X142613676Y-113543397D01*
X142436915Y-113366637D01*
X142436914Y-113366637D01*
X141853553Y-113949998D01*
X141146444Y-113949998D01*
X140474695Y-113278249D01*
X140386320Y-113366624D01*
X140321115Y-113446666D01*
X140321111Y-113446672D01*
X140242425Y-113603350D01*
X140201992Y-113773951D01*
X140201992Y-113949277D01*
X140202805Y-113952708D01*
X140202676Y-113955133D01*
X140202830Y-113956447D01*
X140202605Y-113956473D01*
X140199110Y-114022479D01*
X140158279Y-114079177D01*
X140093277Y-114104799D01*
X140053550Y-114101957D01*
X140049765Y-114101060D01*
X140049764Y-114101060D01*
X139874323Y-114101060D01*
X139703610Y-114141520D01*
X139703606Y-114141521D01*
X139546833Y-114220255D01*
X139546826Y-114220259D01*
X139466732Y-114285506D01*
X139466714Y-114285522D01*
X138936387Y-114815850D01*
X138936368Y-114815871D01*
X138871127Y-114895957D01*
X138871118Y-114895970D01*
X138792385Y-115052742D01*
X138792384Y-115052745D01*
X138792384Y-115052746D01*
X138751924Y-115223459D01*
X133767197Y-115223459D01*
X133862100Y-115128556D01*
X134968177Y-114022479D01*
X136065960Y-112924695D01*
X140828249Y-112924695D01*
X141500000Y-113596446D01*
X142083362Y-113013084D01*
X141906608Y-112836330D01*
X141906587Y-112836311D01*
X141826556Y-112771115D01*
X141826550Y-112771111D01*
X141669873Y-112692425D01*
X141499272Y-112651992D01*
X141323952Y-112651992D01*
X141153350Y-112692425D01*
X140996672Y-112771111D01*
X140916635Y-112836310D01*
X140916619Y-112836324D01*
X140828249Y-112924695D01*
X136065960Y-112924695D01*
X137694584Y-111296070D01*
X137734810Y-111269193D01*
X137879172Y-111209397D01*
X137879172Y-111209396D01*
X137879179Y-111209394D01*
X138010289Y-111121789D01*
X138121789Y-111010289D01*
X138209394Y-110879179D01*
X138269737Y-110733497D01*
X138300500Y-110578842D01*
X138300500Y-110421158D01*
X138300500Y-110421155D01*
X138300499Y-110421153D01*
X138287447Y-110355536D01*
X138269737Y-110266503D01*
X138269732Y-110266492D01*
X138267969Y-110260676D01*
X138270720Y-110259841D01*
X138264497Y-110202641D01*
X138295691Y-110140122D01*
X138355734Y-110104392D01*
X138386555Y-110100500D01*
X143187041Y-110100500D01*
X143278085Y-110082389D01*
X143322373Y-110073580D01*
X143386114Y-110047177D01*
X143449852Y-110020777D01*
X143449853Y-110020776D01*
X143449856Y-110020775D01*
X143564588Y-109944114D01*
X145378607Y-108130093D01*
X145418833Y-108103216D01*
X145425393Y-108100499D01*
X145563202Y-108043417D01*
X145694312Y-107955812D01*
X145805812Y-107844312D01*
X145893417Y-107713202D01*
X145953216Y-107568832D01*
X145980093Y-107528607D01*
X146894113Y-106614589D01*
X146927725Y-106564286D01*
X146970775Y-106499857D01*
X147023580Y-106372374D01*
X147035576Y-106312066D01*
X147050500Y-106237041D01*
X147050500Y-105845908D01*
X147070185Y-105778869D01*
X147114271Y-105740363D01*
X147113187Y-105738605D01*
X147119332Y-105734814D01*
X147119334Y-105734814D01*
X147268656Y-105642712D01*
X147392712Y-105518656D01*
X147484814Y-105369334D01*
X147539999Y-105202797D01*
X147550500Y-105100009D01*
X147550499Y-104349992D01*
X147546563Y-104311466D01*
X147559332Y-104242777D01*
X147607212Y-104191892D01*
X147645726Y-104177250D01*
X147683497Y-104169737D01*
X147829179Y-104109394D01*
X147960289Y-104021789D01*
X148071789Y-103910289D01*
X148159394Y-103779179D01*
X148219737Y-103633497D01*
X148250500Y-103478842D01*
X148250500Y-103321158D01*
X148250500Y-103321155D01*
X148250499Y-103321153D01*
X148229709Y-103216637D01*
X148219737Y-103166503D01*
X148214060Y-103152797D01*
X148159397Y-103020827D01*
X148159390Y-103020814D01*
X148071789Y-102889711D01*
X148071786Y-102889707D01*
X147960292Y-102778213D01*
X147960288Y-102778210D01*
X147829185Y-102690609D01*
X147829172Y-102690602D01*
X147683501Y-102630264D01*
X147683494Y-102630262D01*
X147650305Y-102623660D01*
X147588395Y-102591274D01*
X147553822Y-102530557D01*
X147550499Y-102502043D01*
X147550499Y-102299998D01*
X147550498Y-102299981D01*
X147539999Y-102197203D01*
X147539998Y-102197200D01*
X147484814Y-102030666D01*
X147392712Y-101881344D01*
X147268656Y-101757288D01*
X147119334Y-101665186D01*
X146952797Y-101610001D01*
X146952795Y-101610000D01*
X146850010Y-101599500D01*
X145849998Y-101599500D01*
X145849980Y-101599501D01*
X145747203Y-101610000D01*
X145747200Y-101610001D01*
X145580668Y-101665185D01*
X145580663Y-101665187D01*
X145431342Y-101757289D01*
X145307289Y-101881342D01*
X145215187Y-102030663D01*
X145215186Y-102030666D01*
X145160001Y-102197203D01*
X145160001Y-102197204D01*
X145160000Y-102197204D01*
X145149500Y-102299983D01*
X145149500Y-103050001D01*
X145149501Y-103050019D01*
X145160000Y-103152796D01*
X145160001Y-103152799D01*
X145215185Y-103319331D01*
X145215186Y-103319334D01*
X145297847Y-103453350D01*
X145307289Y-103468657D01*
X145431346Y-103592714D01*
X145434182Y-103594463D01*
X145435717Y-103596170D01*
X145437011Y-103597193D01*
X145436836Y-103597414D01*
X145480905Y-103646411D01*
X145492126Y-103715374D01*
X145464282Y-103779456D01*
X145434182Y-103805537D01*
X145431346Y-103807285D01*
X145307289Y-103931342D01*
X145215187Y-104080663D01*
X145215186Y-104080666D01*
X145160001Y-104247203D01*
X145160001Y-104247204D01*
X145160000Y-104247204D01*
X145149500Y-104349983D01*
X145149500Y-105100001D01*
X145149501Y-105100019D01*
X145160000Y-105202796D01*
X145160001Y-105202799D01*
X145179286Y-105260995D01*
X145215186Y-105369334D01*
X145307288Y-105518656D01*
X145431344Y-105642712D01*
X145578257Y-105733328D01*
X145624981Y-105785275D01*
X145636204Y-105854237D01*
X145608361Y-105918319D01*
X145600841Y-105926547D01*
X144989437Y-106537951D01*
X144949209Y-106564831D01*
X144804846Y-106624627D01*
X144804837Y-106624632D01*
X144673734Y-106712233D01*
X144673730Y-106712236D01*
X144562236Y-106823730D01*
X144562233Y-106823734D01*
X144474632Y-106954837D01*
X144474627Y-106954846D01*
X144414832Y-107099207D01*
X144387952Y-107139435D01*
X142864207Y-108663181D01*
X142802884Y-108696666D01*
X142776526Y-108699500D01*
X137930393Y-108699500D01*
X137863354Y-108679815D01*
X137817599Y-108627011D01*
X137806393Y-108575500D01*
X137806393Y-105073459D01*
X138501924Y-105073459D01*
X138501924Y-105248900D01*
X138521375Y-105330970D01*
X138542385Y-105419616D01*
X138621119Y-105576389D01*
X138621122Y-105576394D01*
X138686379Y-105656502D01*
X138891560Y-105861683D01*
X139063613Y-106033735D01*
X139097098Y-106095058D01*
X139099932Y-106121416D01*
X139099932Y-106631438D01*
X139099932Y-106769426D01*
X139099932Y-106769428D01*
X139099931Y-106769428D01*
X139126850Y-106904754D01*
X139126853Y-106904764D01*
X139179654Y-107032239D01*
X139195370Y-107055759D01*
X139216247Y-107122436D01*
X139213885Y-107148840D01*
X139199500Y-107221160D01*
X139199500Y-107378846D01*
X139230261Y-107533489D01*
X139230264Y-107533501D01*
X139290602Y-107679172D01*
X139290609Y-107679185D01*
X139378210Y-107810288D01*
X139378213Y-107810292D01*
X139489707Y-107921786D01*
X139489711Y-107921789D01*
X139620814Y-108009390D01*
X139620827Y-108009397D01*
X139766498Y-108069735D01*
X139766503Y-108069737D01*
X139921153Y-108100499D01*
X139921156Y-108100500D01*
X139921158Y-108100500D01*
X140078844Y-108100500D01*
X140078845Y-108100499D01*
X140233497Y-108069737D01*
X140379179Y-108009394D01*
X140510289Y-107921789D01*
X140621789Y-107810289D01*
X140709394Y-107679179D01*
X140769737Y-107533497D01*
X140800500Y-107378842D01*
X140800500Y-107221158D01*
X140800500Y-107221155D01*
X140800499Y-107221153D01*
X140769737Y-107066503D01*
X140755546Y-107032243D01*
X140709939Y-106922136D01*
X140708787Y-106916903D01*
X140707032Y-106914400D01*
X140703465Y-106892714D01*
X140700601Y-106879696D01*
X140700500Y-106877199D01*
X140700500Y-106831007D01*
X140700050Y-106828747D01*
X140673580Y-106695672D01*
X140658696Y-106659738D01*
X140620777Y-106568192D01*
X140544112Y-106453454D01*
X140537251Y-106446593D01*
X140522547Y-106419665D01*
X140505955Y-106393847D01*
X140505063Y-106387646D01*
X140503766Y-106385270D01*
X140500932Y-106358912D01*
X140500932Y-106298192D01*
X140520617Y-106231153D01*
X140537251Y-106210511D01*
X140714027Y-106033735D01*
X140914484Y-105833278D01*
X140979742Y-105753171D01*
X141058480Y-105596390D01*
X141098940Y-105425677D01*
X141098940Y-105250236D01*
X141098043Y-105246452D01*
X141098184Y-105243772D01*
X141098102Y-105243063D01*
X141098223Y-105243048D01*
X141101732Y-105176685D01*
X141142557Y-105119983D01*
X141207556Y-105094354D01*
X141247300Y-105097195D01*
X141250730Y-105098008D01*
X141426048Y-105098008D01*
X141596649Y-105057574D01*
X141753328Y-104978888D01*
X141833372Y-104913682D01*
X141833380Y-104913675D01*
X141921750Y-104825303D01*
X141073223Y-103976777D01*
X140896444Y-103799998D01*
X141603553Y-103799998D01*
X141603553Y-103799999D01*
X142275303Y-104471750D01*
X142275304Y-104471750D01*
X142363674Y-104383380D01*
X142363683Y-104383370D01*
X142428884Y-104303333D01*
X142428888Y-104303327D01*
X142507574Y-104146649D01*
X142548008Y-103976048D01*
X142548008Y-103800727D01*
X142507574Y-103630126D01*
X142428888Y-103473449D01*
X142363689Y-103393412D01*
X142363676Y-103393397D01*
X142186915Y-103216637D01*
X142186914Y-103216637D01*
X141603553Y-103799998D01*
X140896444Y-103799998D01*
X140224695Y-103128249D01*
X140136320Y-103216624D01*
X140071115Y-103296666D01*
X140071111Y-103296672D01*
X139992425Y-103453350D01*
X139951992Y-103623951D01*
X139951992Y-103799277D01*
X139952805Y-103802708D01*
X139952676Y-103805133D01*
X139952830Y-103806447D01*
X139952605Y-103806473D01*
X139949110Y-103872479D01*
X139908279Y-103929177D01*
X139843277Y-103954799D01*
X139803550Y-103951957D01*
X139799765Y-103951060D01*
X139799764Y-103951060D01*
X139624323Y-103951060D01*
X139453610Y-103991520D01*
X139453606Y-103991521D01*
X139296833Y-104070255D01*
X139296826Y-104070259D01*
X139216732Y-104135506D01*
X139216714Y-104135522D01*
X138686387Y-104665850D01*
X138686368Y-104665871D01*
X138621127Y-104745957D01*
X138621118Y-104745970D01*
X138542385Y-104902742D01*
X138542384Y-104902745D01*
X138542384Y-104902746D01*
X138501924Y-105073459D01*
X137806393Y-105073459D01*
X137806393Y-102774695D01*
X140578249Y-102774695D01*
X141250000Y-103446446D01*
X141833362Y-102863084D01*
X141656608Y-102686330D01*
X141656587Y-102686311D01*
X141576556Y-102621115D01*
X141576550Y-102621111D01*
X141419873Y-102542425D01*
X141249272Y-102501992D01*
X141073952Y-102501992D01*
X140903350Y-102542425D01*
X140746672Y-102621111D01*
X140666635Y-102686310D01*
X140666619Y-102686324D01*
X140578249Y-102774695D01*
X137806393Y-102774695D01*
X137806393Y-100121153D01*
X153249500Y-100121153D01*
X153249500Y-100278846D01*
X153280261Y-100433489D01*
X153280264Y-100433501D01*
X153340602Y-100579172D01*
X153340609Y-100579185D01*
X153428210Y-100710288D01*
X153428213Y-100710292D01*
X153539707Y-100821786D01*
X153539711Y-100821789D01*
X153670814Y-100909390D01*
X153670827Y-100909397D01*
X153735254Y-100936083D01*
X153816503Y-100969737D01*
X153971153Y-101000499D01*
X153971156Y-101000500D01*
X153971158Y-101000500D01*
X154128844Y-101000500D01*
X154128845Y-101000499D01*
X154283497Y-100969737D01*
X154429179Y-100909394D01*
X154560289Y-100821789D01*
X154671789Y-100710289D01*
X154759394Y-100579179D01*
X154819737Y-100433497D01*
X154850500Y-100278842D01*
X154850500Y-100124499D01*
X154870185Y-100057460D01*
X154922989Y-100011705D01*
X154974500Y-100000499D01*
X155500002Y-100000499D01*
X155500008Y-100000499D01*
X155602797Y-99989999D01*
X155769334Y-99934814D01*
X155918656Y-99842712D01*
X156042712Y-99718656D01*
X156044752Y-99715347D01*
X156046745Y-99713555D01*
X156047193Y-99712989D01*
X156047289Y-99713065D01*
X156096694Y-99668623D01*
X156165656Y-99657395D01*
X156229740Y-99685234D01*
X156255829Y-99715339D01*
X156257681Y-99718341D01*
X156257683Y-99718344D01*
X156381654Y-99842315D01*
X156530875Y-99934356D01*
X156530880Y-99934358D01*
X156697302Y-99989505D01*
X156697309Y-99989506D01*
X156800019Y-99999999D01*
X156924999Y-99999999D01*
X157425000Y-99999999D01*
X157549972Y-99999999D01*
X157549986Y-99999998D01*
X157652697Y-99989505D01*
X157819119Y-99934358D01*
X157819124Y-99934356D01*
X157968345Y-99842315D01*
X158092315Y-99718345D01*
X158184356Y-99569124D01*
X158184358Y-99569119D01*
X158239505Y-99402697D01*
X158239506Y-99402690D01*
X158249999Y-99299986D01*
X158250000Y-99299973D01*
X158250000Y-99050000D01*
X157425000Y-99050000D01*
X157425000Y-99999999D01*
X156924999Y-99999999D01*
X156925000Y-99999998D01*
X156925000Y-98550000D01*
X157425000Y-98550000D01*
X158249999Y-98550000D01*
X158249999Y-98300028D01*
X158249998Y-98300013D01*
X158239505Y-98197302D01*
X158184358Y-98030880D01*
X158184356Y-98030875D01*
X158092315Y-97881654D01*
X157968345Y-97757684D01*
X157819124Y-97665643D01*
X157819119Y-97665641D01*
X157652697Y-97610494D01*
X157652690Y-97610493D01*
X157549986Y-97600000D01*
X157425000Y-97600000D01*
X157425000Y-98550000D01*
X156925000Y-98550000D01*
X156925000Y-97600000D01*
X156800027Y-97600000D01*
X156800012Y-97600001D01*
X156697302Y-97610494D01*
X156530880Y-97665641D01*
X156530875Y-97665643D01*
X156381654Y-97757684D01*
X156257683Y-97881655D01*
X156257679Y-97881660D01*
X156255826Y-97884665D01*
X156254018Y-97886290D01*
X156253202Y-97887323D01*
X156253025Y-97887183D01*
X156203874Y-97931385D01*
X156134911Y-97942601D01*
X156070831Y-97914752D01*
X156044753Y-97884653D01*
X156044737Y-97884628D01*
X156042712Y-97881344D01*
X155918656Y-97757288D01*
X155825888Y-97700069D01*
X155769336Y-97665187D01*
X155769331Y-97665185D01*
X155767862Y-97664698D01*
X155602797Y-97610001D01*
X155602795Y-97610000D01*
X155500010Y-97599500D01*
X154749998Y-97599500D01*
X154749980Y-97599501D01*
X154647203Y-97610000D01*
X154647200Y-97610001D01*
X154480668Y-97665185D01*
X154480663Y-97665187D01*
X154331342Y-97757289D01*
X154207289Y-97881342D01*
X154115187Y-98030663D01*
X154115185Y-98030668D01*
X154115115Y-98030880D01*
X154060001Y-98197203D01*
X154060001Y-98197204D01*
X154060000Y-98197204D01*
X154049500Y-98299983D01*
X154049500Y-98833480D01*
X154029815Y-98900519D01*
X154013181Y-98921161D01*
X153505888Y-99428453D01*
X153505887Y-99428454D01*
X153429223Y-99543192D01*
X153376421Y-99670668D01*
X153376420Y-99670672D01*
X153363062Y-99737829D01*
X153358822Y-99759144D01*
X153353666Y-99785062D01*
X153342892Y-99815174D01*
X153342937Y-99815193D01*
X153342563Y-99816094D01*
X153341415Y-99819305D01*
X153340608Y-99820813D01*
X153280264Y-99966498D01*
X153280261Y-99966510D01*
X153249500Y-100121153D01*
X137806393Y-100121153D01*
X137806393Y-98272889D01*
X137806393Y-98272886D01*
X137803011Y-98255886D01*
X137779473Y-98137551D01*
X137735201Y-98030668D01*
X137726670Y-98010071D01*
X137650005Y-97895333D01*
X137578337Y-97823665D01*
X137544852Y-97762342D01*
X137549836Y-97692650D01*
X137578335Y-97648305D01*
X138887577Y-96339063D01*
X138927803Y-96312186D01*
X139072165Y-96252390D01*
X139072165Y-96252389D01*
X139072172Y-96252387D01*
X139203282Y-96164782D01*
X139314782Y-96053282D01*
X139402387Y-95922172D01*
X139402388Y-95922169D01*
X139402390Y-95922166D01*
X139462185Y-95777805D01*
X139489062Y-95737579D01*
X147864608Y-87362035D01*
X147925931Y-87328550D01*
X147952289Y-87325716D01*
X157284918Y-87325716D01*
X157351957Y-87345401D01*
X157397712Y-87398205D01*
X157407656Y-87467363D01*
X157381055Y-87528033D01*
X157345911Y-87571172D01*
X157345902Y-87571186D01*
X157267169Y-87727958D01*
X157267168Y-87727961D01*
X157267168Y-87727962D01*
X157226708Y-87898675D01*
X157226708Y-88074116D01*
X157267168Y-88244829D01*
X157268834Y-88251857D01*
X157266788Y-88252341D01*
X157270551Y-88311718D01*
X157237284Y-88372057D01*
X156855887Y-88753454D01*
X156779222Y-88868192D01*
X156726421Y-88995667D01*
X156726418Y-88995679D01*
X156702637Y-89115235D01*
X156702637Y-89115239D01*
X156699500Y-89131007D01*
X156699500Y-89624684D01*
X156690061Y-89672136D01*
X156630264Y-89816498D01*
X156630261Y-89816510D01*
X156599500Y-89971153D01*
X156599500Y-90128846D01*
X156630261Y-90283489D01*
X156630264Y-90283501D01*
X156690602Y-90429172D01*
X156690609Y-90429185D01*
X156778210Y-90560288D01*
X156778213Y-90560292D01*
X156889707Y-90671786D01*
X156889711Y-90671789D01*
X157020814Y-90759390D01*
X157020827Y-90759397D01*
X157120060Y-90800500D01*
X157166503Y-90819737D01*
X157321153Y-90850499D01*
X157321156Y-90850500D01*
X157321158Y-90850500D01*
X157478844Y-90850500D01*
X157478845Y-90850499D01*
X157633497Y-90819737D01*
X157779179Y-90759394D01*
X157910289Y-90671789D01*
X158021789Y-90560289D01*
X158109394Y-90429179D01*
X158169737Y-90283497D01*
X158200500Y-90128842D01*
X158200500Y-89971158D01*
X158200500Y-89971155D01*
X158200499Y-89971153D01*
X158169738Y-89816510D01*
X158169737Y-89816503D01*
X158169735Y-89816498D01*
X158109939Y-89672136D01*
X158108312Y-89663959D01*
X158105523Y-89659619D01*
X158100500Y-89624684D01*
X158100500Y-89541518D01*
X158120185Y-89474479D01*
X158136810Y-89453846D01*
X158227945Y-89362711D01*
X158289263Y-89329229D01*
X158347666Y-89333175D01*
X158348143Y-89331166D01*
X158355169Y-89332831D01*
X158355171Y-89332832D01*
X158525884Y-89373292D01*
X158525886Y-89373292D01*
X158701323Y-89373292D01*
X158701325Y-89373292D01*
X158872038Y-89332832D01*
X159028819Y-89254094D01*
X159108926Y-89188837D01*
X159639268Y-88658494D01*
X159704526Y-88578387D01*
X159783264Y-88421606D01*
X159823724Y-88250893D01*
X159823724Y-88213743D01*
X159829962Y-88192497D01*
X159831542Y-88170409D01*
X159839614Y-88159625D01*
X159843409Y-88146704D01*
X159860142Y-88132204D01*
X159873414Y-88114476D01*
X159886034Y-88109768D01*
X159896213Y-88100949D01*
X159918130Y-88097797D01*
X159938878Y-88090059D01*
X159952038Y-88092921D01*
X159965371Y-88091005D01*
X159985514Y-88100204D01*
X160007151Y-88104911D01*
X160024876Y-88118179D01*
X160028927Y-88120030D01*
X160035405Y-88126062D01*
X160103928Y-88194585D01*
X160130808Y-88234814D01*
X160190602Y-88379172D01*
X160190609Y-88379185D01*
X160278210Y-88510288D01*
X160278213Y-88510292D01*
X160389707Y-88621786D01*
X160389711Y-88621789D01*
X160520814Y-88709390D01*
X160520827Y-88709397D01*
X160609102Y-88745961D01*
X160666503Y-88769737D01*
X160821153Y-88800499D01*
X160821156Y-88800500D01*
X160821158Y-88800500D01*
X160978844Y-88800500D01*
X160978845Y-88800499D01*
X161133497Y-88769737D01*
X161279179Y-88709394D01*
X161410289Y-88621789D01*
X161521789Y-88510289D01*
X161609394Y-88379179D01*
X161616591Y-88361805D01*
X161643663Y-88296446D01*
X161669737Y-88233497D01*
X161700500Y-88078842D01*
X161700500Y-87921158D01*
X161700500Y-87921155D01*
X161700499Y-87921153D01*
X161690527Y-87871023D01*
X161669737Y-87766503D01*
X161653771Y-87727958D01*
X161609397Y-87620827D01*
X161609390Y-87620814D01*
X161521789Y-87489711D01*
X161521786Y-87489707D01*
X161410292Y-87378213D01*
X161410288Y-87378210D01*
X161279185Y-87290609D01*
X161279176Y-87290604D01*
X161231583Y-87270891D01*
X161177180Y-87227050D01*
X161155115Y-87160756D01*
X161168225Y-87100681D01*
X161232832Y-86972038D01*
X161273292Y-86801325D01*
X161273292Y-86625884D01*
X161232832Y-86455171D01*
X161154094Y-86298390D01*
X161088837Y-86218282D01*
X160381718Y-85511164D01*
X160331523Y-85470274D01*
X160301612Y-85445907D01*
X160301604Y-85445902D01*
X160144832Y-85367169D01*
X160144830Y-85367168D01*
X160144829Y-85367168D01*
X159974116Y-85326708D01*
X159798675Y-85326708D01*
X159627962Y-85367168D01*
X159627958Y-85367169D01*
X159471185Y-85445903D01*
X159471178Y-85445907D01*
X159391084Y-85511154D01*
X159391066Y-85511170D01*
X159013841Y-85888397D01*
X158952518Y-85921882D01*
X158926160Y-85924716D01*
X147541773Y-85924716D01*
X147433360Y-85946281D01*
X147433359Y-85946281D01*
X147406441Y-85951636D01*
X147278960Y-86004440D01*
X147164224Y-86081103D01*
X138498405Y-94746922D01*
X138458177Y-94773802D01*
X138313816Y-94833597D01*
X138313807Y-94833602D01*
X138182704Y-94921203D01*
X138182700Y-94921206D01*
X138071206Y-95032700D01*
X138071203Y-95032704D01*
X137983602Y-95163807D01*
X137983597Y-95163817D01*
X137923800Y-95308180D01*
X137896920Y-95348408D01*
X136612181Y-96633148D01*
X136550858Y-96666633D01*
X136481166Y-96661649D01*
X136425233Y-96619777D01*
X136400816Y-96554313D01*
X136400500Y-96545467D01*
X136400500Y-88361805D01*
X136373581Y-88226477D01*
X136373580Y-88226475D01*
X136373580Y-88226473D01*
X136364407Y-88204328D01*
X136351707Y-88173667D01*
X136330911Y-88123460D01*
X136320778Y-88098995D01*
X136320771Y-88098984D01*
X136307314Y-88078844D01*
X136244114Y-87984259D01*
X136244113Y-87984258D01*
X136241689Y-87980630D01*
X136220811Y-87913953D01*
X136239295Y-87846573D01*
X136291274Y-87799882D01*
X136360244Y-87788706D01*
X136368983Y-87790122D01*
X136421155Y-87800500D01*
X136421158Y-87800500D01*
X136578844Y-87800500D01*
X136578845Y-87800499D01*
X136733497Y-87769737D01*
X136863549Y-87715868D01*
X136879172Y-87709397D01*
X136879172Y-87709396D01*
X136879179Y-87709394D01*
X137010289Y-87621789D01*
X137121789Y-87510289D01*
X137209394Y-87379179D01*
X137269737Y-87233497D01*
X137300500Y-87078842D01*
X137300500Y-86921158D01*
X137300500Y-86921155D01*
X137300499Y-86921153D01*
X137277667Y-86806369D01*
X137269737Y-86766503D01*
X137211492Y-86625885D01*
X137209397Y-86620827D01*
X137209390Y-86620814D01*
X137146614Y-86526863D01*
X137125736Y-86460185D01*
X137125716Y-86457972D01*
X137125716Y-86065544D01*
X137145401Y-85998505D01*
X137171398Y-85969407D01*
X137208926Y-85938837D01*
X137739268Y-85408494D01*
X137804526Y-85328387D01*
X137883264Y-85171606D01*
X137923724Y-85000893D01*
X137923724Y-84825452D01*
X137922827Y-84821668D01*
X137922968Y-84818988D01*
X137922886Y-84818279D01*
X137923007Y-84818264D01*
X137926516Y-84751901D01*
X137967341Y-84695199D01*
X138032340Y-84669570D01*
X138072084Y-84672411D01*
X138075514Y-84673224D01*
X138250832Y-84673224D01*
X138421433Y-84632790D01*
X138578112Y-84554104D01*
X138658156Y-84488898D01*
X138658164Y-84488891D01*
X138746534Y-84400519D01*
X137898007Y-83551993D01*
X137721228Y-83375214D01*
X138428337Y-83375214D01*
X138428337Y-83375215D01*
X139100087Y-84046966D01*
X139100088Y-84046966D01*
X139188458Y-83958596D01*
X139188467Y-83958586D01*
X139253668Y-83878549D01*
X139253672Y-83878543D01*
X139332358Y-83721865D01*
X139372792Y-83551264D01*
X139372792Y-83375943D01*
X139332358Y-83205342D01*
X139253672Y-83048665D01*
X139188473Y-82968628D01*
X139188460Y-82968613D01*
X139011699Y-82791853D01*
X139011698Y-82791853D01*
X138428337Y-83375214D01*
X137721228Y-83375214D01*
X137049479Y-82703465D01*
X136961104Y-82791840D01*
X136895899Y-82871882D01*
X136895895Y-82871888D01*
X136817209Y-83028566D01*
X136776776Y-83199167D01*
X136776776Y-83374493D01*
X136777589Y-83377924D01*
X136777460Y-83380349D01*
X136777614Y-83381663D01*
X136777389Y-83381689D01*
X136773894Y-83447695D01*
X136733063Y-83504393D01*
X136668061Y-83530015D01*
X136628334Y-83527173D01*
X136624549Y-83526276D01*
X136624548Y-83526276D01*
X136449107Y-83526276D01*
X136278394Y-83566736D01*
X136278390Y-83566737D01*
X136121617Y-83645471D01*
X136121610Y-83645475D01*
X136041516Y-83710722D01*
X136041498Y-83710738D01*
X135511171Y-84241066D01*
X135511152Y-84241087D01*
X135445911Y-84321173D01*
X135445902Y-84321186D01*
X135367169Y-84477958D01*
X135367168Y-84477961D01*
X135367168Y-84477962D01*
X135328612Y-84640644D01*
X135326708Y-84648676D01*
X135326708Y-84824114D01*
X135367169Y-84994832D01*
X135445903Y-85151605D01*
X135445906Y-85151610D01*
X135511163Y-85231718D01*
X135607839Y-85328394D01*
X135688397Y-85408951D01*
X135721882Y-85470274D01*
X135724716Y-85496632D01*
X135724716Y-86782177D01*
X135722333Y-86806369D01*
X135699500Y-86921155D01*
X135699500Y-87078846D01*
X135709340Y-87128315D01*
X135703113Y-87197907D01*
X135660250Y-87253084D01*
X135594360Y-87276328D01*
X135526363Y-87260260D01*
X135500042Y-87240187D01*
X134478137Y-86218282D01*
X132936819Y-84676963D01*
X132903334Y-84615640D01*
X132900500Y-84589282D01*
X132900500Y-82349911D01*
X137403033Y-82349911D01*
X138074784Y-83021662D01*
X138658146Y-82438300D01*
X138481392Y-82261546D01*
X138481371Y-82261527D01*
X138401340Y-82196331D01*
X138401334Y-82196327D01*
X138244657Y-82117641D01*
X138074056Y-82077208D01*
X137898736Y-82077208D01*
X137728134Y-82117641D01*
X137571456Y-82196327D01*
X137491419Y-82261526D01*
X137491403Y-82261540D01*
X137403033Y-82349911D01*
X132900500Y-82349911D01*
X132900500Y-79181004D01*
X132873581Y-79045677D01*
X132873580Y-79045676D01*
X132873580Y-79045672D01*
X132873578Y-79045667D01*
X132820778Y-78918195D01*
X132820776Y-78918191D01*
X132820775Y-78918189D01*
X132772922Y-78846572D01*
X132772922Y-78846571D01*
X132744115Y-78803458D01*
X132744109Y-78803451D01*
X132602837Y-78662179D01*
X132569352Y-78600856D01*
X132574336Y-78531164D01*
X132616208Y-78475231D01*
X132681672Y-78450814D01*
X132690518Y-78450498D01*
X132700002Y-78450498D01*
X132700008Y-78450498D01*
X132802797Y-78439998D01*
X132969334Y-78384813D01*
X133118656Y-78292711D01*
X133242712Y-78168655D01*
X133263839Y-78134401D01*
X133271426Y-78127577D01*
X133275665Y-78118296D01*
X133296964Y-78104607D01*
X133315787Y-78087678D01*
X133327422Y-78085033D01*
X133334443Y-78080522D01*
X133369378Y-78075499D01*
X133533480Y-78075499D01*
X133600519Y-78095184D01*
X133621161Y-78111818D01*
X133780763Y-78271420D01*
X133807643Y-78311649D01*
X133867437Y-78456007D01*
X133867444Y-78456020D01*
X133955045Y-78587123D01*
X133955048Y-78587127D01*
X134066542Y-78698621D01*
X134066546Y-78698624D01*
X134197649Y-78786225D01*
X134197662Y-78786232D01*
X134343333Y-78846570D01*
X134343338Y-78846572D01*
X134497988Y-78877334D01*
X134497991Y-78877335D01*
X134497993Y-78877335D01*
X134655679Y-78877335D01*
X134655680Y-78877334D01*
X134810332Y-78846572D01*
X134956014Y-78786229D01*
X135087124Y-78698624D01*
X135198624Y-78587124D01*
X135286229Y-78456014D01*
X135346572Y-78310332D01*
X135377335Y-78155677D01*
X135377335Y-77997993D01*
X135377335Y-77997990D01*
X135377334Y-77997988D01*
X135346573Y-77843345D01*
X135346572Y-77843338D01*
X135346570Y-77843333D01*
X135286232Y-77697662D01*
X135286225Y-77697649D01*
X135198624Y-77566546D01*
X135198621Y-77566542D01*
X135087127Y-77455048D01*
X135087123Y-77455045D01*
X134956020Y-77367444D01*
X134956007Y-77367437D01*
X134811649Y-77307643D01*
X134771420Y-77280763D01*
X134321545Y-76830887D01*
X134321544Y-76830886D01*
X134206806Y-76754221D01*
X134079331Y-76701420D01*
X134079321Y-76701417D01*
X133943995Y-76674499D01*
X133943993Y-76674499D01*
X133943992Y-76674499D01*
X133369378Y-76674499D01*
X133302339Y-76654814D01*
X133263839Y-76615596D01*
X133242712Y-76581343D01*
X133118656Y-76457287D01*
X133118655Y-76457286D01*
X133115822Y-76455539D01*
X133114286Y-76453832D01*
X133112989Y-76452806D01*
X133113164Y-76452584D01*
X133069097Y-76403592D01*
X133057874Y-76334630D01*
X133085717Y-76270547D01*
X133115822Y-76244461D01*
X133118656Y-76242713D01*
X133242712Y-76118657D01*
X133334814Y-75969335D01*
X133389999Y-75802798D01*
X133400500Y-75700010D01*
X133400499Y-74949993D01*
X133393217Y-74878711D01*
X160149500Y-74878711D01*
X160149500Y-75121288D01*
X160181161Y-75361785D01*
X160243947Y-75596104D01*
X160329562Y-75802796D01*
X160336776Y-75820212D01*
X160458064Y-76030289D01*
X160458066Y-76030292D01*
X160458067Y-76030293D01*
X160605733Y-76222736D01*
X160605739Y-76222743D01*
X160777256Y-76394260D01*
X160777262Y-76394265D01*
X160969711Y-76541936D01*
X161179788Y-76663224D01*
X161403900Y-76756054D01*
X161638211Y-76818838D01*
X161818586Y-76842584D01*
X161878711Y-76850500D01*
X161878712Y-76850500D01*
X162121289Y-76850500D01*
X162169388Y-76844167D01*
X162361789Y-76818838D01*
X162596100Y-76756054D01*
X162820212Y-76663224D01*
X163030289Y-76541936D01*
X163222738Y-76394265D01*
X163394265Y-76222738D01*
X163541936Y-76030289D01*
X163663224Y-75820212D01*
X163756054Y-75596100D01*
X163818838Y-75361789D01*
X163850500Y-75121288D01*
X163850500Y-74878712D01*
X163818838Y-74638211D01*
X163756054Y-74403900D01*
X163663224Y-74179788D01*
X163541936Y-73969711D01*
X163394265Y-73777262D01*
X163394260Y-73777256D01*
X163222743Y-73605739D01*
X163222736Y-73605733D01*
X163030293Y-73458067D01*
X163030292Y-73458066D01*
X163030289Y-73458064D01*
X162820212Y-73336776D01*
X162820205Y-73336773D01*
X162596104Y-73243947D01*
X162361785Y-73181161D01*
X162121289Y-73149500D01*
X162121288Y-73149500D01*
X161878712Y-73149500D01*
X161878711Y-73149500D01*
X161638214Y-73181161D01*
X161403895Y-73243947D01*
X161179794Y-73336773D01*
X161179785Y-73336777D01*
X160969706Y-73458067D01*
X160777263Y-73605733D01*
X160777256Y-73605739D01*
X160605739Y-73777256D01*
X160605733Y-73777263D01*
X160458067Y-73969706D01*
X160336777Y-74179785D01*
X160336773Y-74179794D01*
X160243947Y-74403895D01*
X160181161Y-74638214D01*
X160149500Y-74878711D01*
X133393217Y-74878711D01*
X133389999Y-74847204D01*
X133334814Y-74680667D01*
X133242712Y-74531345D01*
X133118656Y-74407289D01*
X132969334Y-74315187D01*
X132802797Y-74260002D01*
X132802795Y-74260001D01*
X132700010Y-74249501D01*
X131699998Y-74249501D01*
X131699980Y-74249502D01*
X131597203Y-74260001D01*
X131597200Y-74260002D01*
X131430668Y-74315186D01*
X131430663Y-74315188D01*
X131281342Y-74407290D01*
X131157289Y-74531343D01*
X131065187Y-74680664D01*
X131065186Y-74680667D01*
X131010001Y-74847204D01*
X131010001Y-74847205D01*
X131010000Y-74847205D01*
X130999500Y-74949984D01*
X130999500Y-75183481D01*
X130979815Y-75250520D01*
X130963181Y-75271162D01*
X130605412Y-75628930D01*
X130565184Y-75655810D01*
X130420823Y-75715605D01*
X130420814Y-75715610D01*
X130289711Y-75803211D01*
X130289707Y-75803214D01*
X130178213Y-75914708D01*
X130178210Y-75914712D01*
X130090609Y-76045815D01*
X130090602Y-76045828D01*
X130030264Y-76191499D01*
X130030261Y-76191511D01*
X129999500Y-76346154D01*
X129999500Y-76503847D01*
X130030261Y-76658490D01*
X130030264Y-76658502D01*
X130090061Y-76802865D01*
X130099500Y-76850317D01*
X130099500Y-77781006D01*
X130099500Y-77918994D01*
X130099500Y-77918996D01*
X130099499Y-77918996D01*
X130126418Y-78054322D01*
X130126421Y-78054332D01*
X130179222Y-78181807D01*
X130255887Y-78296545D01*
X130255888Y-78296546D01*
X131463181Y-79503838D01*
X131496666Y-79565161D01*
X131499500Y-79591519D01*
X131499500Y-84861807D01*
X131499500Y-84999795D01*
X131499500Y-84999797D01*
X131499499Y-84999797D01*
X131526418Y-85135123D01*
X131526421Y-85135133D01*
X131579222Y-85262608D01*
X131655887Y-85377346D01*
X131655888Y-85377347D01*
X134963181Y-88684638D01*
X134996666Y-88745961D01*
X134999500Y-88772319D01*
X134999500Y-93354558D01*
X134979815Y-93421597D01*
X134927011Y-93467352D01*
X134857853Y-93477296D01*
X134823106Y-93466945D01*
X134819340Y-93465189D01*
X134819331Y-93465186D01*
X134652797Y-93410002D01*
X134652795Y-93410001D01*
X134550010Y-93399501D01*
X133549998Y-93399501D01*
X133549980Y-93399502D01*
X133447203Y-93410001D01*
X133447200Y-93410002D01*
X133280668Y-93465186D01*
X133280663Y-93465188D01*
X133131342Y-93557290D01*
X133007289Y-93681343D01*
X132915187Y-93830664D01*
X132915186Y-93830667D01*
X132860001Y-93997204D01*
X132860001Y-93997205D01*
X132860000Y-93997205D01*
X132849500Y-94099984D01*
X132849500Y-94850002D01*
X132849501Y-94850020D01*
X132860000Y-94952797D01*
X132860001Y-94952800D01*
X132915185Y-95119332D01*
X132915187Y-95119337D01*
X133007289Y-95268658D01*
X133131343Y-95392712D01*
X133131346Y-95392714D01*
X133134182Y-95394464D01*
X133135717Y-95396170D01*
X133137011Y-95397194D01*
X133136836Y-95397415D01*
X133180904Y-95446413D01*
X133192124Y-95515376D01*
X133164278Y-95579458D01*
X133134182Y-95605536D01*
X133131346Y-95607285D01*
X133131343Y-95607287D01*
X133007289Y-95731341D01*
X132915187Y-95880662D01*
X132915186Y-95880665D01*
X132860001Y-96047202D01*
X132860001Y-96047203D01*
X132860000Y-96047203D01*
X132849500Y-96149982D01*
X132849500Y-96900000D01*
X132849501Y-96900018D01*
X132860000Y-97002795D01*
X132860001Y-97002798D01*
X132915185Y-97169330D01*
X132915186Y-97169333D01*
X133007288Y-97318655D01*
X133131344Y-97442711D01*
X133280666Y-97534813D01*
X133427150Y-97583353D01*
X133484592Y-97623123D01*
X133511415Y-97687639D01*
X133509760Y-97725248D01*
X133488200Y-97833638D01*
X133488200Y-97991331D01*
X133518961Y-98145974D01*
X133518964Y-98145986D01*
X133579302Y-98291657D01*
X133579309Y-98291670D01*
X133666910Y-98422773D01*
X133666913Y-98422777D01*
X133778407Y-98534271D01*
X133778411Y-98534274D01*
X133909514Y-98621875D01*
X133909527Y-98621882D01*
X134055198Y-98682220D01*
X134055203Y-98682222D01*
X134209853Y-98712984D01*
X134209856Y-98712985D01*
X134209858Y-98712985D01*
X134367544Y-98712985D01*
X134367545Y-98712984D01*
X134522197Y-98682222D01*
X134667879Y-98621879D01*
X134798989Y-98534274D01*
X134910489Y-98422774D01*
X134998094Y-98291664D01*
X135002650Y-98280666D01*
X135037221Y-98197203D01*
X135058437Y-98145982D01*
X135089200Y-97991327D01*
X135089200Y-97833643D01*
X135089200Y-97833640D01*
X135089199Y-97833638D01*
X135069774Y-97735985D01*
X135058437Y-97678988D01*
X135018462Y-97582480D01*
X135010994Y-97513014D01*
X135042269Y-97450534D01*
X135102358Y-97414882D01*
X135172183Y-97417376D01*
X135220705Y-97447349D01*
X135955886Y-98182529D01*
X136369074Y-98595717D01*
X136402559Y-98657040D01*
X136405393Y-98683398D01*
X136405393Y-109058480D01*
X136396748Y-109087920D01*
X136390225Y-109117907D01*
X136386470Y-109122922D01*
X136385708Y-109125519D01*
X136369074Y-109146161D01*
X136311338Y-109203897D01*
X136250015Y-109237382D01*
X136180323Y-109232398D01*
X136135976Y-109203897D01*
X136101306Y-109169227D01*
X136101302Y-109169224D01*
X135970199Y-109081623D01*
X135970186Y-109081616D01*
X135824515Y-109021278D01*
X135824503Y-109021275D01*
X135669859Y-108990514D01*
X135669856Y-108990514D01*
X135512172Y-108990514D01*
X135512169Y-108990514D01*
X135357524Y-109021275D01*
X135357512Y-109021278D01*
X135213150Y-109081075D01*
X135204973Y-109082701D01*
X135200633Y-109085491D01*
X135165698Y-109090514D01*
X135124499Y-109090514D01*
X135057460Y-109070829D01*
X135011705Y-109018025D01*
X135000499Y-108966514D01*
X135000499Y-108849999D01*
X135000498Y-108849982D01*
X134989999Y-108747204D01*
X134989998Y-108747201D01*
X134962156Y-108663181D01*
X134934814Y-108580667D01*
X134842712Y-108431345D01*
X134718656Y-108307289D01*
X134569334Y-108215187D01*
X134402797Y-108160002D01*
X134402795Y-108160001D01*
X134300010Y-108149501D01*
X133299998Y-108149501D01*
X133299980Y-108149502D01*
X133197203Y-108160001D01*
X133197200Y-108160002D01*
X133030668Y-108215186D01*
X133030663Y-108215188D01*
X132881342Y-108307290D01*
X132757289Y-108431343D01*
X132665187Y-108580664D01*
X132665185Y-108580669D01*
X132649829Y-108627011D01*
X132610001Y-108747204D01*
X132610001Y-108747205D01*
X132610000Y-108747205D01*
X132599500Y-108849984D01*
X132599500Y-109600002D01*
X132599501Y-109600020D01*
X132610000Y-109702797D01*
X132610001Y-109702800D01*
X132665185Y-109869332D01*
X132665187Y-109869337D01*
X132757289Y-110018658D01*
X132881343Y-110142712D01*
X132881346Y-110142714D01*
X132884182Y-110144464D01*
X132885717Y-110146170D01*
X132887011Y-110147194D01*
X132886836Y-110147415D01*
X132930904Y-110196413D01*
X132942124Y-110265376D01*
X132914278Y-110329458D01*
X132884182Y-110355536D01*
X132881346Y-110357285D01*
X132881343Y-110357287D01*
X132757289Y-110481341D01*
X132665187Y-110630662D01*
X132665186Y-110630665D01*
X132610001Y-110797202D01*
X132610001Y-110797203D01*
X132610000Y-110797203D01*
X132599500Y-110899982D01*
X132599500Y-111433479D01*
X132579815Y-111500518D01*
X132563181Y-111521160D01*
X132308834Y-111775506D01*
X132308831Y-111775509D01*
X132251470Y-111861358D01*
X132232176Y-111890233D01*
X132232169Y-111890245D01*
X132179366Y-112017724D01*
X132179364Y-112017730D01*
X132152446Y-112153057D01*
X132152446Y-113227630D01*
X132150819Y-113235809D01*
X132151735Y-113240886D01*
X132143007Y-113275082D01*
X132141696Y-113278249D01*
X132083753Y-113418133D01*
X132056873Y-113458361D01*
X129383533Y-116131703D01*
X129322210Y-116165188D01*
X129295852Y-116168022D01*
X126675316Y-116168022D01*
X126627864Y-116158583D01*
X126483501Y-116098786D01*
X126483489Y-116098783D01*
X126328845Y-116068022D01*
X126328842Y-116068022D01*
X126171158Y-116068022D01*
X126171155Y-116068022D01*
X126016510Y-116098783D01*
X126016498Y-116098786D01*
X125872136Y-116158583D01*
X125824684Y-116168022D01*
X125039319Y-116168022D01*
X124972280Y-116148337D01*
X124926525Y-116095533D01*
X124915961Y-116056621D01*
X124914999Y-116047204D01*
X124914998Y-116047200D01*
X124876208Y-115930140D01*
X124859814Y-115880666D01*
X124767712Y-115731344D01*
X124643656Y-115607288D01*
X124494334Y-115515186D01*
X124327797Y-115460001D01*
X124327795Y-115460000D01*
X124225016Y-115449500D01*
X124225009Y-115449500D01*
X123691519Y-115449500D01*
X123624480Y-115429815D01*
X123603838Y-115413181D01*
X117311818Y-109121161D01*
X117278333Y-109059838D01*
X117275499Y-109033480D01*
X117275499Y-107154963D01*
X126370490Y-107154963D01*
X126381172Y-107221160D01*
X126398439Y-107328168D01*
X126419430Y-107378846D01*
X126465577Y-107490254D01*
X126465578Y-107490257D01*
X126568286Y-107632488D01*
X126701027Y-107747203D01*
X126791974Y-107796241D01*
X126888450Y-107836202D01*
X126942854Y-107880042D01*
X126964919Y-107946336D01*
X126964998Y-107950763D01*
X126964998Y-108184690D01*
X126964998Y-108322678D01*
X126964998Y-108322680D01*
X126964997Y-108322680D01*
X126991916Y-108458006D01*
X126991919Y-108458016D01*
X127044720Y-108585491D01*
X127109850Y-108682965D01*
X127130727Y-108749642D01*
X127128364Y-108776046D01*
X127099500Y-108921153D01*
X127099500Y-109078846D01*
X127130261Y-109233489D01*
X127130264Y-109233501D01*
X127190602Y-109379172D01*
X127190609Y-109379185D01*
X127278210Y-109510288D01*
X127278213Y-109510292D01*
X127389707Y-109621786D01*
X127389711Y-109621789D01*
X127520814Y-109709390D01*
X127520827Y-109709397D01*
X127666498Y-109769735D01*
X127666503Y-109769737D01*
X127821153Y-109800499D01*
X127821156Y-109800500D01*
X127821158Y-109800500D01*
X127978844Y-109800500D01*
X127978845Y-109800499D01*
X128133497Y-109769737D01*
X128279179Y-109709394D01*
X128410289Y-109621789D01*
X128521789Y-109510289D01*
X128609394Y-109379179D01*
X128669737Y-109233497D01*
X128700500Y-109078842D01*
X128700500Y-108921158D01*
X128700500Y-108921155D01*
X128700499Y-108921153D01*
X128686344Y-108849992D01*
X128669737Y-108766503D01*
X128609939Y-108622136D01*
X128600500Y-108574684D01*
X128600500Y-108419190D01*
X128573581Y-108283863D01*
X128573580Y-108283862D01*
X128573580Y-108283858D01*
X128545135Y-108215186D01*
X128520776Y-108156377D01*
X128516182Y-108149502D01*
X128506174Y-108134523D01*
X128506174Y-108134522D01*
X128506171Y-108134519D01*
X128499875Y-108125096D01*
X128479003Y-108058419D01*
X128497492Y-107991040D01*
X128509159Y-107975140D01*
X128582069Y-107890774D01*
X128631106Y-107799829D01*
X128918124Y-107106903D01*
X128947759Y-107007920D01*
X128960505Y-106832942D01*
X128932557Y-106659740D01*
X128865419Y-106497653D01*
X128863140Y-106494497D01*
X128862246Y-106491968D01*
X128861898Y-106491345D01*
X128862004Y-106491285D01*
X128839851Y-106428623D01*
X128855874Y-106360615D01*
X128906121Y-106312066D01*
X128943920Y-106299486D01*
X128947398Y-106298924D01*
X129109376Y-106231831D01*
X129251515Y-106129190D01*
X129366153Y-105996539D01*
X129415155Y-105905658D01*
X129462984Y-105790190D01*
X129462983Y-105790189D01*
X128354329Y-105330970D01*
X127746650Y-105079261D01*
X127470074Y-104964699D01*
X128776639Y-104964699D01*
X129654324Y-105328249D01*
X129702153Y-105212782D01*
X129731766Y-105113874D01*
X129731767Y-105113869D01*
X129744505Y-104939011D01*
X129744504Y-104939004D01*
X129716575Y-104765925D01*
X129649480Y-104603943D01*
X129546842Y-104461806D01*
X129546839Y-104461803D01*
X129414188Y-104347166D01*
X129323307Y-104298164D01*
X129092353Y-104202499D01*
X128776639Y-104964699D01*
X127470074Y-104964699D01*
X127245674Y-104871749D01*
X127245673Y-104871750D01*
X127197848Y-104987212D01*
X127197847Y-104987215D01*
X127168233Y-105086125D01*
X127168232Y-105086130D01*
X127155494Y-105260988D01*
X127155495Y-105260995D01*
X127183424Y-105434074D01*
X127250520Y-105596057D01*
X127252585Y-105598917D01*
X127253395Y-105601210D01*
X127254040Y-105602365D01*
X127253842Y-105602475D01*
X127275871Y-105664792D01*
X127259846Y-105732799D01*
X127209597Y-105781346D01*
X127171810Y-105793923D01*
X127167965Y-105794543D01*
X127005875Y-105861683D01*
X126863644Y-105964390D01*
X126748927Y-106097134D01*
X126748925Y-106097136D01*
X126699891Y-106188076D01*
X126574274Y-106491345D01*
X126459089Y-106769428D01*
X126412870Y-106881010D01*
X126412869Y-106881010D01*
X126383238Y-106979982D01*
X126383236Y-106979990D01*
X126370490Y-107154963D01*
X117275499Y-107154963D01*
X117275499Y-104409808D01*
X127437015Y-104409808D01*
X128314699Y-104773358D01*
X128630414Y-104011159D01*
X128630413Y-104011158D01*
X128399465Y-103915497D01*
X128300555Y-103885884D01*
X128300547Y-103885882D01*
X128125691Y-103873144D01*
X128125684Y-103873145D01*
X127952605Y-103901074D01*
X127952601Y-103901075D01*
X127790623Y-103968168D01*
X127648484Y-104070809D01*
X127533846Y-104203460D01*
X127484846Y-104294337D01*
X127484841Y-104294347D01*
X127437015Y-104409808D01*
X117275499Y-104409808D01*
X117275499Y-100219377D01*
X117295184Y-100152338D01*
X117334405Y-100113837D01*
X117368653Y-100092713D01*
X117368652Y-100092713D01*
X117368655Y-100092712D01*
X117492711Y-99968656D01*
X117584813Y-99819334D01*
X117584814Y-99819331D01*
X117588604Y-99813187D01*
X117590398Y-99814293D01*
X117629686Y-99769663D01*
X117695907Y-99750500D01*
X118308481Y-99750500D01*
X118337921Y-99759144D01*
X118367908Y-99765668D01*
X118372923Y-99769422D01*
X118375520Y-99770185D01*
X118396162Y-99786819D01*
X118553927Y-99944584D01*
X118580807Y-99984812D01*
X118640604Y-100129176D01*
X118640609Y-100129185D01*
X118728210Y-100260288D01*
X118728213Y-100260292D01*
X118839707Y-100371786D01*
X118839711Y-100371789D01*
X118970814Y-100459390D01*
X118970827Y-100459397D01*
X119116498Y-100519735D01*
X119116503Y-100519737D01*
X119257499Y-100547783D01*
X119271153Y-100550499D01*
X119271156Y-100550500D01*
X119271158Y-100550500D01*
X119428844Y-100550500D01*
X119428845Y-100550499D01*
X119583497Y-100519737D01*
X119729179Y-100459394D01*
X119860289Y-100371789D01*
X119971789Y-100260289D01*
X120059394Y-100129179D01*
X120062719Y-100121153D01*
X120108053Y-100011705D01*
X120119737Y-99983497D01*
X120150500Y-99828842D01*
X120150500Y-99671158D01*
X120150500Y-99671155D01*
X120150499Y-99671153D01*
X120146848Y-99652797D01*
X120119737Y-99516503D01*
X120119735Y-99516498D01*
X120059397Y-99370827D01*
X120059390Y-99370814D01*
X119971789Y-99239711D01*
X119971786Y-99239707D01*
X119860292Y-99128213D01*
X119860288Y-99128210D01*
X119729185Y-99040609D01*
X119729176Y-99040604D01*
X119584812Y-98980807D01*
X119544584Y-98953927D01*
X119096546Y-98505888D01*
X119096545Y-98505887D01*
X118981807Y-98429222D01*
X118854332Y-98376421D01*
X118854322Y-98376418D01*
X118718996Y-98349500D01*
X118718994Y-98349500D01*
X118718993Y-98349500D01*
X117695907Y-98349500D01*
X117628868Y-98329815D01*
X117590362Y-98285728D01*
X117588604Y-98286813D01*
X117580014Y-98272886D01*
X117492711Y-98131344D01*
X117368655Y-98007288D01*
X117219333Y-97915186D01*
X117052796Y-97860001D01*
X117052794Y-97860000D01*
X116950009Y-97849500D01*
X116199997Y-97849500D01*
X116199979Y-97849501D01*
X116097202Y-97860000D01*
X116097199Y-97860001D01*
X115930667Y-97915185D01*
X115930662Y-97915187D01*
X115781341Y-98007289D01*
X115657287Y-98131343D01*
X115657285Y-98131346D01*
X115655536Y-98134182D01*
X115653829Y-98135717D01*
X115652806Y-98137011D01*
X115652584Y-98136836D01*
X115603587Y-98180904D01*
X115534624Y-98192124D01*
X115470542Y-98164278D01*
X115444464Y-98134182D01*
X115442714Y-98131346D01*
X115442712Y-98131343D01*
X115318658Y-98007289D01*
X115318657Y-98007288D01*
X115169335Y-97915186D01*
X115002798Y-97860001D01*
X115002796Y-97860000D01*
X114900011Y-97849500D01*
X114149999Y-97849500D01*
X114149981Y-97849501D01*
X114047204Y-97860000D01*
X114047201Y-97860001D01*
X113880669Y-97915185D01*
X113880664Y-97915187D01*
X113731343Y-98007289D01*
X113607290Y-98131342D01*
X113515188Y-98280663D01*
X113515186Y-98280668D01*
X113492378Y-98349500D01*
X113460002Y-98447203D01*
X113460002Y-98447204D01*
X113460001Y-98447204D01*
X113449501Y-98549983D01*
X106500500Y-98549983D01*
X106500500Y-87875303D01*
X112578249Y-87875303D01*
X112578249Y-87875304D01*
X112666614Y-87963669D01*
X112666635Y-87963688D01*
X112746666Y-88028884D01*
X112746672Y-88028888D01*
X112903350Y-88107574D01*
X113073952Y-88148008D01*
X113249272Y-88148008D01*
X113252697Y-88147196D01*
X113255125Y-88147324D01*
X113256447Y-88147170D01*
X113256473Y-88147395D01*
X113322469Y-88150886D01*
X113379170Y-88191711D01*
X113404798Y-88256711D01*
X113401958Y-88296446D01*
X113401060Y-88300235D01*
X113401060Y-88300236D01*
X113401060Y-88475677D01*
X113441520Y-88646390D01*
X113441521Y-88646393D01*
X113520255Y-88803166D01*
X113520259Y-88803173D01*
X113585506Y-88883267D01*
X113585515Y-88883278D01*
X113585521Y-88883284D01*
X113585522Y-88883285D01*
X113752656Y-89050419D01*
X113786141Y-89111742D01*
X113781157Y-89181434D01*
X113739285Y-89237367D01*
X113712428Y-89252661D01*
X113620823Y-89290604D01*
X113620814Y-89290609D01*
X113489711Y-89378210D01*
X113489707Y-89378213D01*
X113378213Y-89489707D01*
X113378210Y-89489711D01*
X113290609Y-89620814D01*
X113290602Y-89620827D01*
X113230264Y-89766498D01*
X113230261Y-89766510D01*
X113199500Y-89921153D01*
X113199500Y-90078846D01*
X113230261Y-90233489D01*
X113230264Y-90233501D01*
X113290602Y-90379172D01*
X113290609Y-90379185D01*
X113378210Y-90510288D01*
X113378213Y-90510292D01*
X113489707Y-90621786D01*
X113489711Y-90621789D01*
X113620814Y-90709390D01*
X113620827Y-90709397D01*
X113766498Y-90769735D01*
X113766503Y-90769737D01*
X113921153Y-90800499D01*
X113921156Y-90800500D01*
X113921158Y-90800500D01*
X114078844Y-90800500D01*
X114078845Y-90800499D01*
X114233497Y-90769737D01*
X114379179Y-90709394D01*
X114510289Y-90621789D01*
X114621789Y-90510289D01*
X114709394Y-90379179D01*
X114709395Y-90379176D01*
X114709397Y-90379173D01*
X114769192Y-90234812D01*
X114796069Y-90194586D01*
X115358852Y-89631805D01*
X115435513Y-89517073D01*
X115446849Y-89489707D01*
X115488316Y-89389594D01*
X115488318Y-89389590D01*
X115508007Y-89290609D01*
X115515238Y-89254257D01*
X115515238Y-89056246D01*
X115534923Y-88989207D01*
X115551557Y-88968565D01*
X115651933Y-88868189D01*
X115813620Y-88706502D01*
X115878878Y-88626394D01*
X115957616Y-88469613D01*
X115998076Y-88298900D01*
X115998076Y-88123459D01*
X115957616Y-87952746D01*
X115878878Y-87795965D01*
X115874118Y-87790122D01*
X115813629Y-87715868D01*
X115813621Y-87715858D01*
X115283278Y-87185516D01*
X115283270Y-87185509D01*
X115283264Y-87185504D01*
X115203178Y-87120263D01*
X115203165Y-87120254D01*
X115046393Y-87041521D01*
X115046391Y-87041520D01*
X115046390Y-87041520D01*
X114875677Y-87001060D01*
X114700236Y-87001060D01*
X114700235Y-87001060D01*
X114696446Y-87001958D01*
X114693764Y-87001815D01*
X114693063Y-87001898D01*
X114693048Y-87001778D01*
X114626674Y-86998263D01*
X114569976Y-86957433D01*
X114544353Y-86892432D01*
X114547196Y-86852697D01*
X114548008Y-86849271D01*
X114548008Y-86673951D01*
X114507574Y-86503350D01*
X114428888Y-86346671D01*
X114363682Y-86266627D01*
X114363675Y-86266619D01*
X114275304Y-86178249D01*
X114275303Y-86178249D01*
X113426777Y-87026777D01*
X112578249Y-87875303D01*
X106500500Y-87875303D01*
X106500500Y-86850727D01*
X111951992Y-86850727D01*
X111951992Y-87026048D01*
X111992425Y-87196649D01*
X112071111Y-87353328D01*
X112136317Y-87433372D01*
X112136324Y-87433380D01*
X112224695Y-87521750D01*
X112224696Y-87521750D01*
X112896446Y-86849999D01*
X112313084Y-86266637D01*
X112136321Y-86443401D01*
X112136311Y-86443412D01*
X112071115Y-86523443D01*
X112071111Y-86523449D01*
X111992425Y-86680126D01*
X111951992Y-86850727D01*
X106500500Y-86850727D01*
X106500500Y-85913084D01*
X112666637Y-85913084D01*
X113249999Y-86496446D01*
X113921750Y-85824695D01*
X113833385Y-85736330D01*
X113833364Y-85736311D01*
X113753333Y-85671115D01*
X113753327Y-85671111D01*
X113596649Y-85592425D01*
X113426048Y-85551992D01*
X113250728Y-85551992D01*
X113080126Y-85592425D01*
X112923449Y-85671111D01*
X112843412Y-85736310D01*
X112843396Y-85736324D01*
X112666637Y-85913084D01*
X106500500Y-85913084D01*
X106500500Y-74878711D01*
X108149500Y-74878711D01*
X108149500Y-75121288D01*
X108181161Y-75361785D01*
X108243947Y-75596104D01*
X108329562Y-75802796D01*
X108336776Y-75820212D01*
X108458064Y-76030289D01*
X108458066Y-76030292D01*
X108458067Y-76030293D01*
X108605733Y-76222736D01*
X108605739Y-76222743D01*
X108777256Y-76394260D01*
X108777262Y-76394265D01*
X108969711Y-76541936D01*
X109179788Y-76663224D01*
X109403900Y-76756054D01*
X109638211Y-76818838D01*
X109818586Y-76842584D01*
X109878711Y-76850500D01*
X109878712Y-76850500D01*
X110121289Y-76850500D01*
X110169388Y-76844167D01*
X110361789Y-76818838D01*
X110596100Y-76756054D01*
X110820212Y-76663224D01*
X111030289Y-76541936D01*
X111222738Y-76394265D01*
X111394265Y-76222738D01*
X111541936Y-76030289D01*
X111663224Y-75820212D01*
X111756054Y-75596100D01*
X111818838Y-75361789D01*
X111850500Y-75121288D01*
X111850500Y-74878712D01*
X111818838Y-74638211D01*
X111756054Y-74403900D01*
X111663224Y-74179788D01*
X111541936Y-73969711D01*
X111394265Y-73777262D01*
X111394260Y-73777256D01*
X111222743Y-73605739D01*
X111222736Y-73605733D01*
X111030293Y-73458067D01*
X111030292Y-73458066D01*
X111030289Y-73458064D01*
X110820212Y-73336776D01*
X110820205Y-73336773D01*
X110596104Y-73243947D01*
X110361785Y-73181161D01*
X110121289Y-73149500D01*
X110121288Y-73149500D01*
X109878712Y-73149500D01*
X109878711Y-73149500D01*
X109638214Y-73181161D01*
X109403895Y-73243947D01*
X109179794Y-73336773D01*
X109179785Y-73336777D01*
X108969706Y-73458067D01*
X108777263Y-73605733D01*
X108777256Y-73605739D01*
X108605739Y-73777256D01*
X108605733Y-73777263D01*
X108458067Y-73969706D01*
X108336777Y-74179785D01*
X108336773Y-74179794D01*
X108243947Y-74403895D01*
X108181161Y-74638214D01*
X108149500Y-74878711D01*
X106500500Y-74878711D01*
X106500500Y-71624500D01*
X106520185Y-71557461D01*
X106572989Y-71511706D01*
X106624500Y-71500500D01*
X165375500Y-71500500D01*
X165442539Y-71520185D01*
G37*
%TD.AperFunction*%
%TD*%
M02*
