M48
; DRILL file {KiCad 9.0.3} date 2026-05-17T22:53:57+0200
; FORMAT={-:-/ absolute / metric / decimal}
; #@! TF.CreationDate,2026-05-17T22:53:57+02:00
; #@! TF.GenerationSoftware,Kicad,Pcbnew,9.0.3
; #@! TF.FileFunction,Plated,1,2,PTH
FMAT,2
METRIC
; #@! TA.AperFunction,Plated,PTH,ViaDrill
T1C0.300
; #@! TA.AperFunction,Plated,PTH,ComponentDrill
T2C0.600
; #@! TA.AperFunction,Plated,PTH,ComponentDrill
T3C1.000
%
G90
G05
T1
X108.62Y-78.16
X108.62Y-85.78
X108.62Y-93.4
X108.62Y-101.02
X108.62Y-108.64
X108.62Y-116.26
X108.62Y-123.88
X108.62Y-131.5
X108.62Y-139.12
X108.62Y-146.74
X108.62Y-154.36
X111.16Y-159.44
X113.7Y-73.08
X113.7Y-80.7
X113.7Y-95.94
X113.7Y-106.1
X113.7Y-113.72
X113.7Y-121.34
X113.7Y-128.96
X113.7Y-136.58
X113.7Y-144.2
X113.7Y-151.82
X114.0Y-90.0
X114.814Y-100.314
X116.24Y-85.78
X116.24Y-156.9
X118.78Y-75.62
X118.78Y-90.86
X118.78Y-123.88
X118.78Y-131.5
X118.78Y-139.12
X118.78Y-146.74
X119.35Y-99.75
X121.32Y-80.7
X121.32Y-95.94
X121.32Y-106.1
X121.32Y-151.82
X121.32Y-159.44
X122.8Y-117.6
X123.86Y-73.08
X123.86Y-85.78
X123.86Y-101.02
X123.86Y-134.04
X123.86Y-144.2
X124.45Y-128.45
X126.25Y-116.869
X126.4Y-78.16
X126.4Y-90.86
X126.4Y-118.8
X126.4Y-139.12
X126.4Y-149.28
X126.4Y-156.9
X127.9Y-109.0
X128.0Y-118.5
X128.0Y-122.5
X128.94Y-83.24
X128.94Y-95.94
X128.94Y-103.56
X130.8Y-76.425
X131.48Y-73.08
X131.48Y-88.32
X131.48Y-108.64
X131.48Y-128.96
X131.48Y-144.2
X131.48Y-159.44
X132.0Y-121.6
X132.853Y-113.653
X133.335Y-150.665
X134.02Y-134.04
X134.02Y-154.36
X134.289Y-97.912
X134.577Y-78.077
X135.5Y-147.5
X135.591Y-109.791
X136.05Y-126.65
X136.35Y-144.0
X136.35Y-152.25
X136.5Y-87.0
X136.56Y-75.62
X136.56Y-118.8
X137.5Y-110.5
X138.0Y-148.5
X138.45Y-144.0
X138.693Y-95.543
X139.1Y-85.78
X139.1Y-101.02
X139.1Y-123.88
X139.1Y-156.9
X139.7Y-150.8
X140.0Y-107.3
X140.65Y-119.55
X141.25Y-139.3
X141.64Y-73.08
X141.64Y-80.7
X141.64Y-106.1
X141.64Y-128.96
X141.64Y-141.66
X142.3Y-135.15
X144.18Y-93.4
X144.18Y-116.26
X144.18Y-134.04
X144.18Y-151.82
X144.18Y-159.44
X145.184Y-107.334
X145.4Y-139.3
X146.72Y-75.62
X146.72Y-83.24
X146.72Y-98.48
X146.72Y-121.34
X146.72Y-144.2
X147.45Y-103.4
X149.26Y-88.32
X149.26Y-111.18
X149.26Y-126.42
X149.26Y-136.58
X149.26Y-149.28
X149.26Y-156.9
X151.8Y-73.08
X151.8Y-80.7
X151.8Y-93.4
X151.8Y-103.56
X151.8Y-116.26
X151.8Y-131.5
X154.05Y-100.2
X154.34Y-108.64
X154.34Y-121.34
X154.34Y-154.36
X156.88Y-75.62
X156.88Y-83.24
X156.88Y-113.72
X156.88Y-126.42
X156.88Y-141.66
X156.88Y-159.44
X157.4Y-90.05
X159.42Y-95.94
X159.42Y-103.56
X159.42Y-118.8
X159.42Y-151.82
X160.9Y-88.0
X161.96Y-78.16
X161.96Y-85.78
X161.96Y-108.64
X161.96Y-123.88
X161.96Y-144.2
X164.5Y-73.08
X164.5Y-90.86
X164.5Y-98.48
X164.5Y-113.72
X164.5Y-128.96
X164.5Y-136.58
X164.5Y-149.28
X164.5Y-156.9
T3
X162.5Y-146.235
X162.5Y-148.775
T2
G00X160.8Y-131.0
M15
G01X160.2Y-131.0
M16
G05
G00X160.8Y-139.64
M15
G01X160.2Y-139.64
M16
G05
G00X164.6Y-131.0
M15
G01X164.0Y-131.0
M16
G05
G00X164.6Y-139.64
M15
G01X164.0Y-139.64
M16
G05
M30
